%TF.GenerationSoftware,KiCad,Pcbnew,(5.1.2-1)-1*%
%TF.CreationDate,2022-01-27T07:40:46-05:00*%
%TF.ProjectId,project1-Juan,70726f6a-6563-4743-912d-4a75616e2e6b,rev?*%
%TF.SameCoordinates,Original*%
%TF.FileFunction,Paste,Top*%
%TF.FilePolarity,Positive*%
%FSLAX46Y46*%
G04 Gerber Fmt 4.6, Leading zero omitted, Abs format (unit mm)*
G04 Created by KiCad (PCBNEW (5.1.2-1)-1) date 2022-01-27 07:40:46*
%MOMM*%
%LPD*%
G04 APERTURE LIST*
%ADD10R,3.800000X2.000000*%
%ADD11R,1.500000X2.000000*%
%ADD12C,0.100000*%
%ADD13C,1.200000*%
%ADD14R,1.550000X1.300000*%
%ADD15R,2.000000X3.800000*%
%ADD16R,2.000000X1.500000*%
%ADD17R,0.900000X0.800000*%
%ADD18C,1.175000*%
%ADD19C,1.150000*%
%ADD20R,1.500000X0.900000*%
%ADD21R,0.900000X1.500000*%
%ADD22R,1.050000X1.050000*%
G04 APERTURE END LIST*
D10*
%TO.C,Q2*%
X117348000Y-148946000D03*
D11*
X117348000Y-142646000D03*
X115048000Y-142646000D03*
X119648000Y-142646000D03*
%TD*%
D12*
%TO.C,R5*%
G36*
X108594505Y-152971204D02*
G01*
X108618773Y-152974804D01*
X108642572Y-152980765D01*
X108665671Y-152989030D01*
X108687850Y-152999520D01*
X108708893Y-153012132D01*
X108728599Y-153026747D01*
X108746777Y-153043223D01*
X108763253Y-153061401D01*
X108777868Y-153081107D01*
X108790480Y-153102150D01*
X108800970Y-153124329D01*
X108809235Y-153147428D01*
X108815196Y-153171227D01*
X108818796Y-153195495D01*
X108820000Y-153219999D01*
X108820000Y-154120001D01*
X108818796Y-154144505D01*
X108815196Y-154168773D01*
X108809235Y-154192572D01*
X108800970Y-154215671D01*
X108790480Y-154237850D01*
X108777868Y-154258893D01*
X108763253Y-154278599D01*
X108746777Y-154296777D01*
X108728599Y-154313253D01*
X108708893Y-154327868D01*
X108687850Y-154340480D01*
X108665671Y-154350970D01*
X108642572Y-154359235D01*
X108618773Y-154365196D01*
X108594505Y-154368796D01*
X108570001Y-154370000D01*
X107869999Y-154370000D01*
X107845495Y-154368796D01*
X107821227Y-154365196D01*
X107797428Y-154359235D01*
X107774329Y-154350970D01*
X107752150Y-154340480D01*
X107731107Y-154327868D01*
X107711401Y-154313253D01*
X107693223Y-154296777D01*
X107676747Y-154278599D01*
X107662132Y-154258893D01*
X107649520Y-154237850D01*
X107639030Y-154215671D01*
X107630765Y-154192572D01*
X107624804Y-154168773D01*
X107621204Y-154144505D01*
X107620000Y-154120001D01*
X107620000Y-153219999D01*
X107621204Y-153195495D01*
X107624804Y-153171227D01*
X107630765Y-153147428D01*
X107639030Y-153124329D01*
X107649520Y-153102150D01*
X107662132Y-153081107D01*
X107676747Y-153061401D01*
X107693223Y-153043223D01*
X107711401Y-153026747D01*
X107731107Y-153012132D01*
X107752150Y-152999520D01*
X107774329Y-152989030D01*
X107797428Y-152980765D01*
X107821227Y-152974804D01*
X107845495Y-152971204D01*
X107869999Y-152970000D01*
X108570001Y-152970000D01*
X108594505Y-152971204D01*
X108594505Y-152971204D01*
G37*
D13*
X108220000Y-153670000D03*
D12*
G36*
X110594505Y-152971204D02*
G01*
X110618773Y-152974804D01*
X110642572Y-152980765D01*
X110665671Y-152989030D01*
X110687850Y-152999520D01*
X110708893Y-153012132D01*
X110728599Y-153026747D01*
X110746777Y-153043223D01*
X110763253Y-153061401D01*
X110777868Y-153081107D01*
X110790480Y-153102150D01*
X110800970Y-153124329D01*
X110809235Y-153147428D01*
X110815196Y-153171227D01*
X110818796Y-153195495D01*
X110820000Y-153219999D01*
X110820000Y-154120001D01*
X110818796Y-154144505D01*
X110815196Y-154168773D01*
X110809235Y-154192572D01*
X110800970Y-154215671D01*
X110790480Y-154237850D01*
X110777868Y-154258893D01*
X110763253Y-154278599D01*
X110746777Y-154296777D01*
X110728599Y-154313253D01*
X110708893Y-154327868D01*
X110687850Y-154340480D01*
X110665671Y-154350970D01*
X110642572Y-154359235D01*
X110618773Y-154365196D01*
X110594505Y-154368796D01*
X110570001Y-154370000D01*
X109869999Y-154370000D01*
X109845495Y-154368796D01*
X109821227Y-154365196D01*
X109797428Y-154359235D01*
X109774329Y-154350970D01*
X109752150Y-154340480D01*
X109731107Y-154327868D01*
X109711401Y-154313253D01*
X109693223Y-154296777D01*
X109676747Y-154278599D01*
X109662132Y-154258893D01*
X109649520Y-154237850D01*
X109639030Y-154215671D01*
X109630765Y-154192572D01*
X109624804Y-154168773D01*
X109621204Y-154144505D01*
X109620000Y-154120001D01*
X109620000Y-153219999D01*
X109621204Y-153195495D01*
X109624804Y-153171227D01*
X109630765Y-153147428D01*
X109639030Y-153124329D01*
X109649520Y-153102150D01*
X109662132Y-153081107D01*
X109676747Y-153061401D01*
X109693223Y-153043223D01*
X109711401Y-153026747D01*
X109731107Y-153012132D01*
X109752150Y-152999520D01*
X109774329Y-152989030D01*
X109797428Y-152980765D01*
X109821227Y-152974804D01*
X109845495Y-152971204D01*
X109869999Y-152970000D01*
X110570001Y-152970000D01*
X110594505Y-152971204D01*
X110594505Y-152971204D01*
G37*
D13*
X110220000Y-153670000D03*
%TD*%
D12*
%TO.C,R6*%
G36*
X110345585Y-147886124D02*
G01*
X110369853Y-147889724D01*
X110393652Y-147895685D01*
X110416751Y-147903950D01*
X110438930Y-147914440D01*
X110459973Y-147927052D01*
X110479679Y-147941667D01*
X110497857Y-147958143D01*
X110514333Y-147976321D01*
X110528948Y-147996027D01*
X110541560Y-148017070D01*
X110552050Y-148039249D01*
X110560315Y-148062348D01*
X110566276Y-148086147D01*
X110569876Y-148110415D01*
X110571080Y-148134919D01*
X110571080Y-149034921D01*
X110569876Y-149059425D01*
X110566276Y-149083693D01*
X110560315Y-149107492D01*
X110552050Y-149130591D01*
X110541560Y-149152770D01*
X110528948Y-149173813D01*
X110514333Y-149193519D01*
X110497857Y-149211697D01*
X110479679Y-149228173D01*
X110459973Y-149242788D01*
X110438930Y-149255400D01*
X110416751Y-149265890D01*
X110393652Y-149274155D01*
X110369853Y-149280116D01*
X110345585Y-149283716D01*
X110321081Y-149284920D01*
X109621079Y-149284920D01*
X109596575Y-149283716D01*
X109572307Y-149280116D01*
X109548508Y-149274155D01*
X109525409Y-149265890D01*
X109503230Y-149255400D01*
X109482187Y-149242788D01*
X109462481Y-149228173D01*
X109444303Y-149211697D01*
X109427827Y-149193519D01*
X109413212Y-149173813D01*
X109400600Y-149152770D01*
X109390110Y-149130591D01*
X109381845Y-149107492D01*
X109375884Y-149083693D01*
X109372284Y-149059425D01*
X109371080Y-149034921D01*
X109371080Y-148134919D01*
X109372284Y-148110415D01*
X109375884Y-148086147D01*
X109381845Y-148062348D01*
X109390110Y-148039249D01*
X109400600Y-148017070D01*
X109413212Y-147996027D01*
X109427827Y-147976321D01*
X109444303Y-147958143D01*
X109462481Y-147941667D01*
X109482187Y-147927052D01*
X109503230Y-147914440D01*
X109525409Y-147903950D01*
X109548508Y-147895685D01*
X109572307Y-147889724D01*
X109596575Y-147886124D01*
X109621079Y-147884920D01*
X110321081Y-147884920D01*
X110345585Y-147886124D01*
X110345585Y-147886124D01*
G37*
D13*
X109971080Y-148584920D03*
D12*
G36*
X108345585Y-147886124D02*
G01*
X108369853Y-147889724D01*
X108393652Y-147895685D01*
X108416751Y-147903950D01*
X108438930Y-147914440D01*
X108459973Y-147927052D01*
X108479679Y-147941667D01*
X108497857Y-147958143D01*
X108514333Y-147976321D01*
X108528948Y-147996027D01*
X108541560Y-148017070D01*
X108552050Y-148039249D01*
X108560315Y-148062348D01*
X108566276Y-148086147D01*
X108569876Y-148110415D01*
X108571080Y-148134919D01*
X108571080Y-149034921D01*
X108569876Y-149059425D01*
X108566276Y-149083693D01*
X108560315Y-149107492D01*
X108552050Y-149130591D01*
X108541560Y-149152770D01*
X108528948Y-149173813D01*
X108514333Y-149193519D01*
X108497857Y-149211697D01*
X108479679Y-149228173D01*
X108459973Y-149242788D01*
X108438930Y-149255400D01*
X108416751Y-149265890D01*
X108393652Y-149274155D01*
X108369853Y-149280116D01*
X108345585Y-149283716D01*
X108321081Y-149284920D01*
X107621079Y-149284920D01*
X107596575Y-149283716D01*
X107572307Y-149280116D01*
X107548508Y-149274155D01*
X107525409Y-149265890D01*
X107503230Y-149255400D01*
X107482187Y-149242788D01*
X107462481Y-149228173D01*
X107444303Y-149211697D01*
X107427827Y-149193519D01*
X107413212Y-149173813D01*
X107400600Y-149152770D01*
X107390110Y-149130591D01*
X107381845Y-149107492D01*
X107375884Y-149083693D01*
X107372284Y-149059425D01*
X107371080Y-149034921D01*
X107371080Y-148134919D01*
X107372284Y-148110415D01*
X107375884Y-148086147D01*
X107381845Y-148062348D01*
X107390110Y-148039249D01*
X107400600Y-148017070D01*
X107413212Y-147996027D01*
X107427827Y-147976321D01*
X107444303Y-147958143D01*
X107462481Y-147941667D01*
X107482187Y-147927052D01*
X107503230Y-147914440D01*
X107525409Y-147903950D01*
X107548508Y-147895685D01*
X107572307Y-147889724D01*
X107596575Y-147886124D01*
X107621079Y-147884920D01*
X108321081Y-147884920D01*
X108345585Y-147886124D01*
X108345585Y-147886124D01*
G37*
D13*
X107971080Y-148584920D03*
%TD*%
D12*
%TO.C,R7*%
G36*
X110355745Y-150431204D02*
G01*
X110380013Y-150434804D01*
X110403812Y-150440765D01*
X110426911Y-150449030D01*
X110449090Y-150459520D01*
X110470133Y-150472132D01*
X110489839Y-150486747D01*
X110508017Y-150503223D01*
X110524493Y-150521401D01*
X110539108Y-150541107D01*
X110551720Y-150562150D01*
X110562210Y-150584329D01*
X110570475Y-150607428D01*
X110576436Y-150631227D01*
X110580036Y-150655495D01*
X110581240Y-150679999D01*
X110581240Y-151580001D01*
X110580036Y-151604505D01*
X110576436Y-151628773D01*
X110570475Y-151652572D01*
X110562210Y-151675671D01*
X110551720Y-151697850D01*
X110539108Y-151718893D01*
X110524493Y-151738599D01*
X110508017Y-151756777D01*
X110489839Y-151773253D01*
X110470133Y-151787868D01*
X110449090Y-151800480D01*
X110426911Y-151810970D01*
X110403812Y-151819235D01*
X110380013Y-151825196D01*
X110355745Y-151828796D01*
X110331241Y-151830000D01*
X109631239Y-151830000D01*
X109606735Y-151828796D01*
X109582467Y-151825196D01*
X109558668Y-151819235D01*
X109535569Y-151810970D01*
X109513390Y-151800480D01*
X109492347Y-151787868D01*
X109472641Y-151773253D01*
X109454463Y-151756777D01*
X109437987Y-151738599D01*
X109423372Y-151718893D01*
X109410760Y-151697850D01*
X109400270Y-151675671D01*
X109392005Y-151652572D01*
X109386044Y-151628773D01*
X109382444Y-151604505D01*
X109381240Y-151580001D01*
X109381240Y-150679999D01*
X109382444Y-150655495D01*
X109386044Y-150631227D01*
X109392005Y-150607428D01*
X109400270Y-150584329D01*
X109410760Y-150562150D01*
X109423372Y-150541107D01*
X109437987Y-150521401D01*
X109454463Y-150503223D01*
X109472641Y-150486747D01*
X109492347Y-150472132D01*
X109513390Y-150459520D01*
X109535569Y-150449030D01*
X109558668Y-150440765D01*
X109582467Y-150434804D01*
X109606735Y-150431204D01*
X109631239Y-150430000D01*
X110331241Y-150430000D01*
X110355745Y-150431204D01*
X110355745Y-150431204D01*
G37*
D13*
X109981240Y-151130000D03*
D12*
G36*
X108355745Y-150431204D02*
G01*
X108380013Y-150434804D01*
X108403812Y-150440765D01*
X108426911Y-150449030D01*
X108449090Y-150459520D01*
X108470133Y-150472132D01*
X108489839Y-150486747D01*
X108508017Y-150503223D01*
X108524493Y-150521401D01*
X108539108Y-150541107D01*
X108551720Y-150562150D01*
X108562210Y-150584329D01*
X108570475Y-150607428D01*
X108576436Y-150631227D01*
X108580036Y-150655495D01*
X108581240Y-150679999D01*
X108581240Y-151580001D01*
X108580036Y-151604505D01*
X108576436Y-151628773D01*
X108570475Y-151652572D01*
X108562210Y-151675671D01*
X108551720Y-151697850D01*
X108539108Y-151718893D01*
X108524493Y-151738599D01*
X108508017Y-151756777D01*
X108489839Y-151773253D01*
X108470133Y-151787868D01*
X108449090Y-151800480D01*
X108426911Y-151810970D01*
X108403812Y-151819235D01*
X108380013Y-151825196D01*
X108355745Y-151828796D01*
X108331241Y-151830000D01*
X107631239Y-151830000D01*
X107606735Y-151828796D01*
X107582467Y-151825196D01*
X107558668Y-151819235D01*
X107535569Y-151810970D01*
X107513390Y-151800480D01*
X107492347Y-151787868D01*
X107472641Y-151773253D01*
X107454463Y-151756777D01*
X107437987Y-151738599D01*
X107423372Y-151718893D01*
X107410760Y-151697850D01*
X107400270Y-151675671D01*
X107392005Y-151652572D01*
X107386044Y-151628773D01*
X107382444Y-151604505D01*
X107381240Y-151580001D01*
X107381240Y-150679999D01*
X107382444Y-150655495D01*
X107386044Y-150631227D01*
X107392005Y-150607428D01*
X107400270Y-150584329D01*
X107410760Y-150562150D01*
X107423372Y-150541107D01*
X107437987Y-150521401D01*
X107454463Y-150503223D01*
X107472641Y-150486747D01*
X107492347Y-150472132D01*
X107513390Y-150459520D01*
X107535569Y-150449030D01*
X107558668Y-150440765D01*
X107582467Y-150434804D01*
X107606735Y-150431204D01*
X107631239Y-150430000D01*
X108331241Y-150430000D01*
X108355745Y-150431204D01*
X108355745Y-150431204D01*
G37*
D13*
X107981240Y-151130000D03*
%TD*%
D14*
%TO.C,SW1*%
X96177000Y-124877000D03*
X96177000Y-129377000D03*
X88227000Y-129377000D03*
X88227000Y-124877000D03*
%TD*%
%TO.C,SW2*%
X142151000Y-157190000D03*
X142151000Y-152690000D03*
X134201000Y-152690000D03*
X134201000Y-157190000D03*
%TD*%
D15*
%TO.C,U1*%
X96876000Y-115316000D03*
D16*
X90576000Y-115316000D03*
X90576000Y-117616000D03*
X90576000Y-113016000D03*
%TD*%
D17*
%TO.C,Q1*%
X115840000Y-137480000D03*
X115840000Y-139380000D03*
X117840000Y-138430000D03*
%TD*%
D12*
%TO.C,R1*%
G36*
X110437506Y-137436205D02*
G01*
X110461774Y-137439805D01*
X110485573Y-137445766D01*
X110508672Y-137454031D01*
X110530851Y-137464521D01*
X110551894Y-137477133D01*
X110571600Y-137491748D01*
X110589778Y-137508224D01*
X110606254Y-137526402D01*
X110620869Y-137546108D01*
X110633481Y-137567151D01*
X110643971Y-137589330D01*
X110652236Y-137612429D01*
X110658197Y-137636228D01*
X110661797Y-137660496D01*
X110663001Y-137685000D01*
X110663001Y-138585002D01*
X110661797Y-138609506D01*
X110658197Y-138633774D01*
X110652236Y-138657573D01*
X110643971Y-138680672D01*
X110633481Y-138702851D01*
X110620869Y-138723894D01*
X110606254Y-138743600D01*
X110589778Y-138761778D01*
X110571600Y-138778254D01*
X110551894Y-138792869D01*
X110530851Y-138805481D01*
X110508672Y-138815971D01*
X110485573Y-138824236D01*
X110461774Y-138830197D01*
X110437506Y-138833797D01*
X110413002Y-138835001D01*
X109713000Y-138835001D01*
X109688496Y-138833797D01*
X109664228Y-138830197D01*
X109640429Y-138824236D01*
X109617330Y-138815971D01*
X109595151Y-138805481D01*
X109574108Y-138792869D01*
X109554402Y-138778254D01*
X109536224Y-138761778D01*
X109519748Y-138743600D01*
X109505133Y-138723894D01*
X109492521Y-138702851D01*
X109482031Y-138680672D01*
X109473766Y-138657573D01*
X109467805Y-138633774D01*
X109464205Y-138609506D01*
X109463001Y-138585002D01*
X109463001Y-137685000D01*
X109464205Y-137660496D01*
X109467805Y-137636228D01*
X109473766Y-137612429D01*
X109482031Y-137589330D01*
X109492521Y-137567151D01*
X109505133Y-137546108D01*
X109519748Y-137526402D01*
X109536224Y-137508224D01*
X109554402Y-137491748D01*
X109574108Y-137477133D01*
X109595151Y-137464521D01*
X109617330Y-137454031D01*
X109640429Y-137445766D01*
X109664228Y-137439805D01*
X109688496Y-137436205D01*
X109713000Y-137435001D01*
X110413002Y-137435001D01*
X110437506Y-137436205D01*
X110437506Y-137436205D01*
G37*
D13*
X110063001Y-138135001D03*
D12*
G36*
X108437506Y-137436205D02*
G01*
X108461774Y-137439805D01*
X108485573Y-137445766D01*
X108508672Y-137454031D01*
X108530851Y-137464521D01*
X108551894Y-137477133D01*
X108571600Y-137491748D01*
X108589778Y-137508224D01*
X108606254Y-137526402D01*
X108620869Y-137546108D01*
X108633481Y-137567151D01*
X108643971Y-137589330D01*
X108652236Y-137612429D01*
X108658197Y-137636228D01*
X108661797Y-137660496D01*
X108663001Y-137685000D01*
X108663001Y-138585002D01*
X108661797Y-138609506D01*
X108658197Y-138633774D01*
X108652236Y-138657573D01*
X108643971Y-138680672D01*
X108633481Y-138702851D01*
X108620869Y-138723894D01*
X108606254Y-138743600D01*
X108589778Y-138761778D01*
X108571600Y-138778254D01*
X108551894Y-138792869D01*
X108530851Y-138805481D01*
X108508672Y-138815971D01*
X108485573Y-138824236D01*
X108461774Y-138830197D01*
X108437506Y-138833797D01*
X108413002Y-138835001D01*
X107713000Y-138835001D01*
X107688496Y-138833797D01*
X107664228Y-138830197D01*
X107640429Y-138824236D01*
X107617330Y-138815971D01*
X107595151Y-138805481D01*
X107574108Y-138792869D01*
X107554402Y-138778254D01*
X107536224Y-138761778D01*
X107519748Y-138743600D01*
X107505133Y-138723894D01*
X107492521Y-138702851D01*
X107482031Y-138680672D01*
X107473766Y-138657573D01*
X107467805Y-138633774D01*
X107464205Y-138609506D01*
X107463001Y-138585002D01*
X107463001Y-137685000D01*
X107464205Y-137660496D01*
X107467805Y-137636228D01*
X107473766Y-137612429D01*
X107482031Y-137589330D01*
X107492521Y-137567151D01*
X107505133Y-137546108D01*
X107519748Y-137526402D01*
X107536224Y-137508224D01*
X107554402Y-137491748D01*
X107574108Y-137477133D01*
X107595151Y-137464521D01*
X107617330Y-137454031D01*
X107640429Y-137445766D01*
X107664228Y-137439805D01*
X107688496Y-137436205D01*
X107713000Y-137435001D01*
X108413002Y-137435001D01*
X108437506Y-137436205D01*
X108437506Y-137436205D01*
G37*
D13*
X108063001Y-138135001D03*
%TD*%
D12*
%TO.C,R2*%
G36*
X108437506Y-140386205D02*
G01*
X108461774Y-140389805D01*
X108485573Y-140395766D01*
X108508672Y-140404031D01*
X108530851Y-140414521D01*
X108551894Y-140427133D01*
X108571600Y-140441748D01*
X108589778Y-140458224D01*
X108606254Y-140476402D01*
X108620869Y-140496108D01*
X108633481Y-140517151D01*
X108643971Y-140539330D01*
X108652236Y-140562429D01*
X108658197Y-140586228D01*
X108661797Y-140610496D01*
X108663001Y-140635000D01*
X108663001Y-141535002D01*
X108661797Y-141559506D01*
X108658197Y-141583774D01*
X108652236Y-141607573D01*
X108643971Y-141630672D01*
X108633481Y-141652851D01*
X108620869Y-141673894D01*
X108606254Y-141693600D01*
X108589778Y-141711778D01*
X108571600Y-141728254D01*
X108551894Y-141742869D01*
X108530851Y-141755481D01*
X108508672Y-141765971D01*
X108485573Y-141774236D01*
X108461774Y-141780197D01*
X108437506Y-141783797D01*
X108413002Y-141785001D01*
X107713000Y-141785001D01*
X107688496Y-141783797D01*
X107664228Y-141780197D01*
X107640429Y-141774236D01*
X107617330Y-141765971D01*
X107595151Y-141755481D01*
X107574108Y-141742869D01*
X107554402Y-141728254D01*
X107536224Y-141711778D01*
X107519748Y-141693600D01*
X107505133Y-141673894D01*
X107492521Y-141652851D01*
X107482031Y-141630672D01*
X107473766Y-141607573D01*
X107467805Y-141583774D01*
X107464205Y-141559506D01*
X107463001Y-141535002D01*
X107463001Y-140635000D01*
X107464205Y-140610496D01*
X107467805Y-140586228D01*
X107473766Y-140562429D01*
X107482031Y-140539330D01*
X107492521Y-140517151D01*
X107505133Y-140496108D01*
X107519748Y-140476402D01*
X107536224Y-140458224D01*
X107554402Y-140441748D01*
X107574108Y-140427133D01*
X107595151Y-140414521D01*
X107617330Y-140404031D01*
X107640429Y-140395766D01*
X107664228Y-140389805D01*
X107688496Y-140386205D01*
X107713000Y-140385001D01*
X108413002Y-140385001D01*
X108437506Y-140386205D01*
X108437506Y-140386205D01*
G37*
D13*
X108063001Y-141085001D03*
D12*
G36*
X110437506Y-140386205D02*
G01*
X110461774Y-140389805D01*
X110485573Y-140395766D01*
X110508672Y-140404031D01*
X110530851Y-140414521D01*
X110551894Y-140427133D01*
X110571600Y-140441748D01*
X110589778Y-140458224D01*
X110606254Y-140476402D01*
X110620869Y-140496108D01*
X110633481Y-140517151D01*
X110643971Y-140539330D01*
X110652236Y-140562429D01*
X110658197Y-140586228D01*
X110661797Y-140610496D01*
X110663001Y-140635000D01*
X110663001Y-141535002D01*
X110661797Y-141559506D01*
X110658197Y-141583774D01*
X110652236Y-141607573D01*
X110643971Y-141630672D01*
X110633481Y-141652851D01*
X110620869Y-141673894D01*
X110606254Y-141693600D01*
X110589778Y-141711778D01*
X110571600Y-141728254D01*
X110551894Y-141742869D01*
X110530851Y-141755481D01*
X110508672Y-141765971D01*
X110485573Y-141774236D01*
X110461774Y-141780197D01*
X110437506Y-141783797D01*
X110413002Y-141785001D01*
X109713000Y-141785001D01*
X109688496Y-141783797D01*
X109664228Y-141780197D01*
X109640429Y-141774236D01*
X109617330Y-141765971D01*
X109595151Y-141755481D01*
X109574108Y-141742869D01*
X109554402Y-141728254D01*
X109536224Y-141711778D01*
X109519748Y-141693600D01*
X109505133Y-141673894D01*
X109492521Y-141652851D01*
X109482031Y-141630672D01*
X109473766Y-141607573D01*
X109467805Y-141583774D01*
X109464205Y-141559506D01*
X109463001Y-141535002D01*
X109463001Y-140635000D01*
X109464205Y-140610496D01*
X109467805Y-140586228D01*
X109473766Y-140562429D01*
X109482031Y-140539330D01*
X109492521Y-140517151D01*
X109505133Y-140496108D01*
X109519748Y-140476402D01*
X109536224Y-140458224D01*
X109554402Y-140441748D01*
X109574108Y-140427133D01*
X109595151Y-140414521D01*
X109617330Y-140404031D01*
X109640429Y-140395766D01*
X109664228Y-140389805D01*
X109688496Y-140386205D01*
X109713000Y-140385001D01*
X110413002Y-140385001D01*
X110437506Y-140386205D01*
X110437506Y-140386205D01*
G37*
D13*
X110063001Y-141085001D03*
%TD*%
D12*
%TO.C,R3*%
G36*
X108670705Y-144086284D02*
G01*
X108694973Y-144089884D01*
X108718772Y-144095845D01*
X108741871Y-144104110D01*
X108764050Y-144114600D01*
X108785093Y-144127212D01*
X108804799Y-144141827D01*
X108822977Y-144158303D01*
X108839453Y-144176481D01*
X108854068Y-144196187D01*
X108866680Y-144217230D01*
X108877170Y-144239409D01*
X108885435Y-144262508D01*
X108891396Y-144286307D01*
X108894996Y-144310575D01*
X108896200Y-144335079D01*
X108896200Y-145235081D01*
X108894996Y-145259585D01*
X108891396Y-145283853D01*
X108885435Y-145307652D01*
X108877170Y-145330751D01*
X108866680Y-145352930D01*
X108854068Y-145373973D01*
X108839453Y-145393679D01*
X108822977Y-145411857D01*
X108804799Y-145428333D01*
X108785093Y-145442948D01*
X108764050Y-145455560D01*
X108741871Y-145466050D01*
X108718772Y-145474315D01*
X108694973Y-145480276D01*
X108670705Y-145483876D01*
X108646201Y-145485080D01*
X107946199Y-145485080D01*
X107921695Y-145483876D01*
X107897427Y-145480276D01*
X107873628Y-145474315D01*
X107850529Y-145466050D01*
X107828350Y-145455560D01*
X107807307Y-145442948D01*
X107787601Y-145428333D01*
X107769423Y-145411857D01*
X107752947Y-145393679D01*
X107738332Y-145373973D01*
X107725720Y-145352930D01*
X107715230Y-145330751D01*
X107706965Y-145307652D01*
X107701004Y-145283853D01*
X107697404Y-145259585D01*
X107696200Y-145235081D01*
X107696200Y-144335079D01*
X107697404Y-144310575D01*
X107701004Y-144286307D01*
X107706965Y-144262508D01*
X107715230Y-144239409D01*
X107725720Y-144217230D01*
X107738332Y-144196187D01*
X107752947Y-144176481D01*
X107769423Y-144158303D01*
X107787601Y-144141827D01*
X107807307Y-144127212D01*
X107828350Y-144114600D01*
X107850529Y-144104110D01*
X107873628Y-144095845D01*
X107897427Y-144089884D01*
X107921695Y-144086284D01*
X107946199Y-144085080D01*
X108646201Y-144085080D01*
X108670705Y-144086284D01*
X108670705Y-144086284D01*
G37*
D13*
X108296200Y-144785080D03*
D12*
G36*
X110670705Y-144086284D02*
G01*
X110694973Y-144089884D01*
X110718772Y-144095845D01*
X110741871Y-144104110D01*
X110764050Y-144114600D01*
X110785093Y-144127212D01*
X110804799Y-144141827D01*
X110822977Y-144158303D01*
X110839453Y-144176481D01*
X110854068Y-144196187D01*
X110866680Y-144217230D01*
X110877170Y-144239409D01*
X110885435Y-144262508D01*
X110891396Y-144286307D01*
X110894996Y-144310575D01*
X110896200Y-144335079D01*
X110896200Y-145235081D01*
X110894996Y-145259585D01*
X110891396Y-145283853D01*
X110885435Y-145307652D01*
X110877170Y-145330751D01*
X110866680Y-145352930D01*
X110854068Y-145373973D01*
X110839453Y-145393679D01*
X110822977Y-145411857D01*
X110804799Y-145428333D01*
X110785093Y-145442948D01*
X110764050Y-145455560D01*
X110741871Y-145466050D01*
X110718772Y-145474315D01*
X110694973Y-145480276D01*
X110670705Y-145483876D01*
X110646201Y-145485080D01*
X109946199Y-145485080D01*
X109921695Y-145483876D01*
X109897427Y-145480276D01*
X109873628Y-145474315D01*
X109850529Y-145466050D01*
X109828350Y-145455560D01*
X109807307Y-145442948D01*
X109787601Y-145428333D01*
X109769423Y-145411857D01*
X109752947Y-145393679D01*
X109738332Y-145373973D01*
X109725720Y-145352930D01*
X109715230Y-145330751D01*
X109706965Y-145307652D01*
X109701004Y-145283853D01*
X109697404Y-145259585D01*
X109696200Y-145235081D01*
X109696200Y-144335079D01*
X109697404Y-144310575D01*
X109701004Y-144286307D01*
X109706965Y-144262508D01*
X109715230Y-144239409D01*
X109725720Y-144217230D01*
X109738332Y-144196187D01*
X109752947Y-144176481D01*
X109769423Y-144158303D01*
X109787601Y-144141827D01*
X109807307Y-144127212D01*
X109828350Y-144114600D01*
X109850529Y-144104110D01*
X109873628Y-144095845D01*
X109897427Y-144089884D01*
X109921695Y-144086284D01*
X109946199Y-144085080D01*
X110646201Y-144085080D01*
X110670705Y-144086284D01*
X110670705Y-144086284D01*
G37*
D13*
X110296200Y-144785080D03*
%TD*%
D12*
%TO.C,R4*%
G36*
X134724505Y-143573204D02*
G01*
X134748773Y-143576804D01*
X134772572Y-143582765D01*
X134795671Y-143591030D01*
X134817850Y-143601520D01*
X134838893Y-143614132D01*
X134858599Y-143628747D01*
X134876777Y-143645223D01*
X134893253Y-143663401D01*
X134907868Y-143683107D01*
X134920480Y-143704150D01*
X134930970Y-143726329D01*
X134939235Y-143749428D01*
X134945196Y-143773227D01*
X134948796Y-143797495D01*
X134950000Y-143821999D01*
X134950000Y-144722001D01*
X134948796Y-144746505D01*
X134945196Y-144770773D01*
X134939235Y-144794572D01*
X134930970Y-144817671D01*
X134920480Y-144839850D01*
X134907868Y-144860893D01*
X134893253Y-144880599D01*
X134876777Y-144898777D01*
X134858599Y-144915253D01*
X134838893Y-144929868D01*
X134817850Y-144942480D01*
X134795671Y-144952970D01*
X134772572Y-144961235D01*
X134748773Y-144967196D01*
X134724505Y-144970796D01*
X134700001Y-144972000D01*
X133999999Y-144972000D01*
X133975495Y-144970796D01*
X133951227Y-144967196D01*
X133927428Y-144961235D01*
X133904329Y-144952970D01*
X133882150Y-144942480D01*
X133861107Y-144929868D01*
X133841401Y-144915253D01*
X133823223Y-144898777D01*
X133806747Y-144880599D01*
X133792132Y-144860893D01*
X133779520Y-144839850D01*
X133769030Y-144817671D01*
X133760765Y-144794572D01*
X133754804Y-144770773D01*
X133751204Y-144746505D01*
X133750000Y-144722001D01*
X133750000Y-143821999D01*
X133751204Y-143797495D01*
X133754804Y-143773227D01*
X133760765Y-143749428D01*
X133769030Y-143726329D01*
X133779520Y-143704150D01*
X133792132Y-143683107D01*
X133806747Y-143663401D01*
X133823223Y-143645223D01*
X133841401Y-143628747D01*
X133861107Y-143614132D01*
X133882150Y-143601520D01*
X133904329Y-143591030D01*
X133927428Y-143582765D01*
X133951227Y-143576804D01*
X133975495Y-143573204D01*
X133999999Y-143572000D01*
X134700001Y-143572000D01*
X134724505Y-143573204D01*
X134724505Y-143573204D01*
G37*
D13*
X134350000Y-144272000D03*
D12*
G36*
X132724505Y-143573204D02*
G01*
X132748773Y-143576804D01*
X132772572Y-143582765D01*
X132795671Y-143591030D01*
X132817850Y-143601520D01*
X132838893Y-143614132D01*
X132858599Y-143628747D01*
X132876777Y-143645223D01*
X132893253Y-143663401D01*
X132907868Y-143683107D01*
X132920480Y-143704150D01*
X132930970Y-143726329D01*
X132939235Y-143749428D01*
X132945196Y-143773227D01*
X132948796Y-143797495D01*
X132950000Y-143821999D01*
X132950000Y-144722001D01*
X132948796Y-144746505D01*
X132945196Y-144770773D01*
X132939235Y-144794572D01*
X132930970Y-144817671D01*
X132920480Y-144839850D01*
X132907868Y-144860893D01*
X132893253Y-144880599D01*
X132876777Y-144898777D01*
X132858599Y-144915253D01*
X132838893Y-144929868D01*
X132817850Y-144942480D01*
X132795671Y-144952970D01*
X132772572Y-144961235D01*
X132748773Y-144967196D01*
X132724505Y-144970796D01*
X132700001Y-144972000D01*
X131999999Y-144972000D01*
X131975495Y-144970796D01*
X131951227Y-144967196D01*
X131927428Y-144961235D01*
X131904329Y-144952970D01*
X131882150Y-144942480D01*
X131861107Y-144929868D01*
X131841401Y-144915253D01*
X131823223Y-144898777D01*
X131806747Y-144880599D01*
X131792132Y-144860893D01*
X131779520Y-144839850D01*
X131769030Y-144817671D01*
X131760765Y-144794572D01*
X131754804Y-144770773D01*
X131751204Y-144746505D01*
X131750000Y-144722001D01*
X131750000Y-143821999D01*
X131751204Y-143797495D01*
X131754804Y-143773227D01*
X131760765Y-143749428D01*
X131769030Y-143726329D01*
X131779520Y-143704150D01*
X131792132Y-143683107D01*
X131806747Y-143663401D01*
X131823223Y-143645223D01*
X131841401Y-143628747D01*
X131861107Y-143614132D01*
X131882150Y-143601520D01*
X131904329Y-143591030D01*
X131927428Y-143582765D01*
X131951227Y-143576804D01*
X131975495Y-143573204D01*
X131999999Y-143572000D01*
X132700001Y-143572000D01*
X132724505Y-143573204D01*
X132724505Y-143573204D01*
G37*
D13*
X132350000Y-144272000D03*
%TD*%
D12*
%TO.C,C2*%
G36*
X107463984Y-111599244D02*
G01*
X107488253Y-111602844D01*
X107512051Y-111608805D01*
X107535151Y-111617070D01*
X107557329Y-111627560D01*
X107578373Y-111640173D01*
X107598078Y-111654787D01*
X107616257Y-111671263D01*
X107632733Y-111689442D01*
X107647347Y-111709147D01*
X107659960Y-111730191D01*
X107670450Y-111752369D01*
X107678715Y-111775469D01*
X107684676Y-111799267D01*
X107688276Y-111823536D01*
X107689480Y-111848040D01*
X107689480Y-112523040D01*
X107688276Y-112547544D01*
X107684676Y-112571813D01*
X107678715Y-112595611D01*
X107670450Y-112618711D01*
X107659960Y-112640889D01*
X107647347Y-112661933D01*
X107632733Y-112681638D01*
X107616257Y-112699817D01*
X107598078Y-112716293D01*
X107578373Y-112730907D01*
X107557329Y-112743520D01*
X107535151Y-112754010D01*
X107512051Y-112762275D01*
X107488253Y-112768236D01*
X107463984Y-112771836D01*
X107439480Y-112773040D01*
X106489480Y-112773040D01*
X106464976Y-112771836D01*
X106440707Y-112768236D01*
X106416909Y-112762275D01*
X106393809Y-112754010D01*
X106371631Y-112743520D01*
X106350587Y-112730907D01*
X106330882Y-112716293D01*
X106312703Y-112699817D01*
X106296227Y-112681638D01*
X106281613Y-112661933D01*
X106269000Y-112640889D01*
X106258510Y-112618711D01*
X106250245Y-112595611D01*
X106244284Y-112571813D01*
X106240684Y-112547544D01*
X106239480Y-112523040D01*
X106239480Y-111848040D01*
X106240684Y-111823536D01*
X106244284Y-111799267D01*
X106250245Y-111775469D01*
X106258510Y-111752369D01*
X106269000Y-111730191D01*
X106281613Y-111709147D01*
X106296227Y-111689442D01*
X106312703Y-111671263D01*
X106330882Y-111654787D01*
X106350587Y-111640173D01*
X106371631Y-111627560D01*
X106393809Y-111617070D01*
X106416909Y-111608805D01*
X106440707Y-111602844D01*
X106464976Y-111599244D01*
X106489480Y-111598040D01*
X107439480Y-111598040D01*
X107463984Y-111599244D01*
X107463984Y-111599244D01*
G37*
D18*
X106964480Y-112185540D03*
D12*
G36*
X107463984Y-113674244D02*
G01*
X107488253Y-113677844D01*
X107512051Y-113683805D01*
X107535151Y-113692070D01*
X107557329Y-113702560D01*
X107578373Y-113715173D01*
X107598078Y-113729787D01*
X107616257Y-113746263D01*
X107632733Y-113764442D01*
X107647347Y-113784147D01*
X107659960Y-113805191D01*
X107670450Y-113827369D01*
X107678715Y-113850469D01*
X107684676Y-113874267D01*
X107688276Y-113898536D01*
X107689480Y-113923040D01*
X107689480Y-114598040D01*
X107688276Y-114622544D01*
X107684676Y-114646813D01*
X107678715Y-114670611D01*
X107670450Y-114693711D01*
X107659960Y-114715889D01*
X107647347Y-114736933D01*
X107632733Y-114756638D01*
X107616257Y-114774817D01*
X107598078Y-114791293D01*
X107578373Y-114805907D01*
X107557329Y-114818520D01*
X107535151Y-114829010D01*
X107512051Y-114837275D01*
X107488253Y-114843236D01*
X107463984Y-114846836D01*
X107439480Y-114848040D01*
X106489480Y-114848040D01*
X106464976Y-114846836D01*
X106440707Y-114843236D01*
X106416909Y-114837275D01*
X106393809Y-114829010D01*
X106371631Y-114818520D01*
X106350587Y-114805907D01*
X106330882Y-114791293D01*
X106312703Y-114774817D01*
X106296227Y-114756638D01*
X106281613Y-114736933D01*
X106269000Y-114715889D01*
X106258510Y-114693711D01*
X106250245Y-114670611D01*
X106244284Y-114646813D01*
X106240684Y-114622544D01*
X106239480Y-114598040D01*
X106239480Y-113923040D01*
X106240684Y-113898536D01*
X106244284Y-113874267D01*
X106250245Y-113850469D01*
X106258510Y-113827369D01*
X106269000Y-113805191D01*
X106281613Y-113784147D01*
X106296227Y-113764442D01*
X106312703Y-113746263D01*
X106330882Y-113729787D01*
X106350587Y-113715173D01*
X106371631Y-113702560D01*
X106393809Y-113692070D01*
X106416909Y-113683805D01*
X106440707Y-113677844D01*
X106464976Y-113674244D01*
X106489480Y-113673040D01*
X107439480Y-113673040D01*
X107463984Y-113674244D01*
X107463984Y-113674244D01*
G37*
D18*
X106964480Y-114260540D03*
%TD*%
D12*
%TO.C,D2*%
G36*
X106004505Y-159321204D02*
G01*
X106028773Y-159324804D01*
X106052572Y-159330765D01*
X106075671Y-159339030D01*
X106097850Y-159349520D01*
X106118893Y-159362132D01*
X106138599Y-159376747D01*
X106156777Y-159393223D01*
X106173253Y-159411401D01*
X106187868Y-159431107D01*
X106200480Y-159452150D01*
X106210970Y-159474329D01*
X106219235Y-159497428D01*
X106225196Y-159521227D01*
X106228796Y-159545495D01*
X106230000Y-159569999D01*
X106230000Y-160470001D01*
X106228796Y-160494505D01*
X106225196Y-160518773D01*
X106219235Y-160542572D01*
X106210970Y-160565671D01*
X106200480Y-160587850D01*
X106187868Y-160608893D01*
X106173253Y-160628599D01*
X106156777Y-160646777D01*
X106138599Y-160663253D01*
X106118893Y-160677868D01*
X106097850Y-160690480D01*
X106075671Y-160700970D01*
X106052572Y-160709235D01*
X106028773Y-160715196D01*
X106004505Y-160718796D01*
X105980001Y-160720000D01*
X105329999Y-160720000D01*
X105305495Y-160718796D01*
X105281227Y-160715196D01*
X105257428Y-160709235D01*
X105234329Y-160700970D01*
X105212150Y-160690480D01*
X105191107Y-160677868D01*
X105171401Y-160663253D01*
X105153223Y-160646777D01*
X105136747Y-160628599D01*
X105122132Y-160608893D01*
X105109520Y-160587850D01*
X105099030Y-160565671D01*
X105090765Y-160542572D01*
X105084804Y-160518773D01*
X105081204Y-160494505D01*
X105080000Y-160470001D01*
X105080000Y-159569999D01*
X105081204Y-159545495D01*
X105084804Y-159521227D01*
X105090765Y-159497428D01*
X105099030Y-159474329D01*
X105109520Y-159452150D01*
X105122132Y-159431107D01*
X105136747Y-159411401D01*
X105153223Y-159393223D01*
X105171401Y-159376747D01*
X105191107Y-159362132D01*
X105212150Y-159349520D01*
X105234329Y-159339030D01*
X105257428Y-159330765D01*
X105281227Y-159324804D01*
X105305495Y-159321204D01*
X105329999Y-159320000D01*
X105980001Y-159320000D01*
X106004505Y-159321204D01*
X106004505Y-159321204D01*
G37*
D19*
X105655000Y-160020000D03*
D12*
G36*
X108054505Y-159321204D02*
G01*
X108078773Y-159324804D01*
X108102572Y-159330765D01*
X108125671Y-159339030D01*
X108147850Y-159349520D01*
X108168893Y-159362132D01*
X108188599Y-159376747D01*
X108206777Y-159393223D01*
X108223253Y-159411401D01*
X108237868Y-159431107D01*
X108250480Y-159452150D01*
X108260970Y-159474329D01*
X108269235Y-159497428D01*
X108275196Y-159521227D01*
X108278796Y-159545495D01*
X108280000Y-159569999D01*
X108280000Y-160470001D01*
X108278796Y-160494505D01*
X108275196Y-160518773D01*
X108269235Y-160542572D01*
X108260970Y-160565671D01*
X108250480Y-160587850D01*
X108237868Y-160608893D01*
X108223253Y-160628599D01*
X108206777Y-160646777D01*
X108188599Y-160663253D01*
X108168893Y-160677868D01*
X108147850Y-160690480D01*
X108125671Y-160700970D01*
X108102572Y-160709235D01*
X108078773Y-160715196D01*
X108054505Y-160718796D01*
X108030001Y-160720000D01*
X107379999Y-160720000D01*
X107355495Y-160718796D01*
X107331227Y-160715196D01*
X107307428Y-160709235D01*
X107284329Y-160700970D01*
X107262150Y-160690480D01*
X107241107Y-160677868D01*
X107221401Y-160663253D01*
X107203223Y-160646777D01*
X107186747Y-160628599D01*
X107172132Y-160608893D01*
X107159520Y-160587850D01*
X107149030Y-160565671D01*
X107140765Y-160542572D01*
X107134804Y-160518773D01*
X107131204Y-160494505D01*
X107130000Y-160470001D01*
X107130000Y-159569999D01*
X107131204Y-159545495D01*
X107134804Y-159521227D01*
X107140765Y-159497428D01*
X107149030Y-159474329D01*
X107159520Y-159452150D01*
X107172132Y-159431107D01*
X107186747Y-159411401D01*
X107203223Y-159393223D01*
X107221401Y-159376747D01*
X107241107Y-159362132D01*
X107262150Y-159349520D01*
X107284329Y-159339030D01*
X107307428Y-159330765D01*
X107331227Y-159324804D01*
X107355495Y-159321204D01*
X107379999Y-159320000D01*
X108030001Y-159320000D01*
X108054505Y-159321204D01*
X108054505Y-159321204D01*
G37*
D19*
X107705000Y-160020000D03*
%TD*%
D12*
%TO.C,C3*%
G36*
X102861504Y-125524704D02*
G01*
X102885773Y-125528304D01*
X102909571Y-125534265D01*
X102932671Y-125542530D01*
X102954849Y-125553020D01*
X102975893Y-125565633D01*
X102995598Y-125580247D01*
X103013777Y-125596723D01*
X103030253Y-125614902D01*
X103044867Y-125634607D01*
X103057480Y-125655651D01*
X103067970Y-125677829D01*
X103076235Y-125700929D01*
X103082196Y-125724727D01*
X103085796Y-125748996D01*
X103087000Y-125773500D01*
X103087000Y-126448500D01*
X103085796Y-126473004D01*
X103082196Y-126497273D01*
X103076235Y-126521071D01*
X103067970Y-126544171D01*
X103057480Y-126566349D01*
X103044867Y-126587393D01*
X103030253Y-126607098D01*
X103013777Y-126625277D01*
X102995598Y-126641753D01*
X102975893Y-126656367D01*
X102954849Y-126668980D01*
X102932671Y-126679470D01*
X102909571Y-126687735D01*
X102885773Y-126693696D01*
X102861504Y-126697296D01*
X102837000Y-126698500D01*
X101887000Y-126698500D01*
X101862496Y-126697296D01*
X101838227Y-126693696D01*
X101814429Y-126687735D01*
X101791329Y-126679470D01*
X101769151Y-126668980D01*
X101748107Y-126656367D01*
X101728402Y-126641753D01*
X101710223Y-126625277D01*
X101693747Y-126607098D01*
X101679133Y-126587393D01*
X101666520Y-126566349D01*
X101656030Y-126544171D01*
X101647765Y-126521071D01*
X101641804Y-126497273D01*
X101638204Y-126473004D01*
X101637000Y-126448500D01*
X101637000Y-125773500D01*
X101638204Y-125748996D01*
X101641804Y-125724727D01*
X101647765Y-125700929D01*
X101656030Y-125677829D01*
X101666520Y-125655651D01*
X101679133Y-125634607D01*
X101693747Y-125614902D01*
X101710223Y-125596723D01*
X101728402Y-125580247D01*
X101748107Y-125565633D01*
X101769151Y-125553020D01*
X101791329Y-125542530D01*
X101814429Y-125534265D01*
X101838227Y-125528304D01*
X101862496Y-125524704D01*
X101887000Y-125523500D01*
X102837000Y-125523500D01*
X102861504Y-125524704D01*
X102861504Y-125524704D01*
G37*
D18*
X102362000Y-126111000D03*
D12*
G36*
X102861504Y-127599704D02*
G01*
X102885773Y-127603304D01*
X102909571Y-127609265D01*
X102932671Y-127617530D01*
X102954849Y-127628020D01*
X102975893Y-127640633D01*
X102995598Y-127655247D01*
X103013777Y-127671723D01*
X103030253Y-127689902D01*
X103044867Y-127709607D01*
X103057480Y-127730651D01*
X103067970Y-127752829D01*
X103076235Y-127775929D01*
X103082196Y-127799727D01*
X103085796Y-127823996D01*
X103087000Y-127848500D01*
X103087000Y-128523500D01*
X103085796Y-128548004D01*
X103082196Y-128572273D01*
X103076235Y-128596071D01*
X103067970Y-128619171D01*
X103057480Y-128641349D01*
X103044867Y-128662393D01*
X103030253Y-128682098D01*
X103013777Y-128700277D01*
X102995598Y-128716753D01*
X102975893Y-128731367D01*
X102954849Y-128743980D01*
X102932671Y-128754470D01*
X102909571Y-128762735D01*
X102885773Y-128768696D01*
X102861504Y-128772296D01*
X102837000Y-128773500D01*
X101887000Y-128773500D01*
X101862496Y-128772296D01*
X101838227Y-128768696D01*
X101814429Y-128762735D01*
X101791329Y-128754470D01*
X101769151Y-128743980D01*
X101748107Y-128731367D01*
X101728402Y-128716753D01*
X101710223Y-128700277D01*
X101693747Y-128682098D01*
X101679133Y-128662393D01*
X101666520Y-128641349D01*
X101656030Y-128619171D01*
X101647765Y-128596071D01*
X101641804Y-128572273D01*
X101638204Y-128548004D01*
X101637000Y-128523500D01*
X101637000Y-127848500D01*
X101638204Y-127823996D01*
X101641804Y-127799727D01*
X101647765Y-127775929D01*
X101656030Y-127752829D01*
X101666520Y-127730651D01*
X101679133Y-127709607D01*
X101693747Y-127689902D01*
X101710223Y-127671723D01*
X101728402Y-127655247D01*
X101748107Y-127640633D01*
X101769151Y-127628020D01*
X101791329Y-127617530D01*
X101814429Y-127609265D01*
X101838227Y-127603304D01*
X101862496Y-127599704D01*
X101887000Y-127598500D01*
X102837000Y-127598500D01*
X102861504Y-127599704D01*
X102861504Y-127599704D01*
G37*
D18*
X102362000Y-128186000D03*
%TD*%
D12*
%TO.C,C1*%
G36*
X86605504Y-113670704D02*
G01*
X86629773Y-113674304D01*
X86653571Y-113680265D01*
X86676671Y-113688530D01*
X86698849Y-113699020D01*
X86719893Y-113711633D01*
X86739598Y-113726247D01*
X86757777Y-113742723D01*
X86774253Y-113760902D01*
X86788867Y-113780607D01*
X86801480Y-113801651D01*
X86811970Y-113823829D01*
X86820235Y-113846929D01*
X86826196Y-113870727D01*
X86829796Y-113894996D01*
X86831000Y-113919500D01*
X86831000Y-114594500D01*
X86829796Y-114619004D01*
X86826196Y-114643273D01*
X86820235Y-114667071D01*
X86811970Y-114690171D01*
X86801480Y-114712349D01*
X86788867Y-114733393D01*
X86774253Y-114753098D01*
X86757777Y-114771277D01*
X86739598Y-114787753D01*
X86719893Y-114802367D01*
X86698849Y-114814980D01*
X86676671Y-114825470D01*
X86653571Y-114833735D01*
X86629773Y-114839696D01*
X86605504Y-114843296D01*
X86581000Y-114844500D01*
X85631000Y-114844500D01*
X85606496Y-114843296D01*
X85582227Y-114839696D01*
X85558429Y-114833735D01*
X85535329Y-114825470D01*
X85513151Y-114814980D01*
X85492107Y-114802367D01*
X85472402Y-114787753D01*
X85454223Y-114771277D01*
X85437747Y-114753098D01*
X85423133Y-114733393D01*
X85410520Y-114712349D01*
X85400030Y-114690171D01*
X85391765Y-114667071D01*
X85385804Y-114643273D01*
X85382204Y-114619004D01*
X85381000Y-114594500D01*
X85381000Y-113919500D01*
X85382204Y-113894996D01*
X85385804Y-113870727D01*
X85391765Y-113846929D01*
X85400030Y-113823829D01*
X85410520Y-113801651D01*
X85423133Y-113780607D01*
X85437747Y-113760902D01*
X85454223Y-113742723D01*
X85472402Y-113726247D01*
X85492107Y-113711633D01*
X85513151Y-113699020D01*
X85535329Y-113688530D01*
X85558429Y-113680265D01*
X85582227Y-113674304D01*
X85606496Y-113670704D01*
X85631000Y-113669500D01*
X86581000Y-113669500D01*
X86605504Y-113670704D01*
X86605504Y-113670704D01*
G37*
D18*
X86106000Y-114257000D03*
D12*
G36*
X86605504Y-115745704D02*
G01*
X86629773Y-115749304D01*
X86653571Y-115755265D01*
X86676671Y-115763530D01*
X86698849Y-115774020D01*
X86719893Y-115786633D01*
X86739598Y-115801247D01*
X86757777Y-115817723D01*
X86774253Y-115835902D01*
X86788867Y-115855607D01*
X86801480Y-115876651D01*
X86811970Y-115898829D01*
X86820235Y-115921929D01*
X86826196Y-115945727D01*
X86829796Y-115969996D01*
X86831000Y-115994500D01*
X86831000Y-116669500D01*
X86829796Y-116694004D01*
X86826196Y-116718273D01*
X86820235Y-116742071D01*
X86811970Y-116765171D01*
X86801480Y-116787349D01*
X86788867Y-116808393D01*
X86774253Y-116828098D01*
X86757777Y-116846277D01*
X86739598Y-116862753D01*
X86719893Y-116877367D01*
X86698849Y-116889980D01*
X86676671Y-116900470D01*
X86653571Y-116908735D01*
X86629773Y-116914696D01*
X86605504Y-116918296D01*
X86581000Y-116919500D01*
X85631000Y-116919500D01*
X85606496Y-116918296D01*
X85582227Y-116914696D01*
X85558429Y-116908735D01*
X85535329Y-116900470D01*
X85513151Y-116889980D01*
X85492107Y-116877367D01*
X85472402Y-116862753D01*
X85454223Y-116846277D01*
X85437747Y-116828098D01*
X85423133Y-116808393D01*
X85410520Y-116787349D01*
X85400030Y-116765171D01*
X85391765Y-116742071D01*
X85385804Y-116718273D01*
X85382204Y-116694004D01*
X85381000Y-116669500D01*
X85381000Y-115994500D01*
X85382204Y-115969996D01*
X85385804Y-115945727D01*
X85391765Y-115921929D01*
X85400030Y-115898829D01*
X85410520Y-115876651D01*
X85423133Y-115855607D01*
X85437747Y-115835902D01*
X85454223Y-115817723D01*
X85472402Y-115801247D01*
X85492107Y-115786633D01*
X85513151Y-115774020D01*
X85535329Y-115763530D01*
X85558429Y-115755265D01*
X85582227Y-115749304D01*
X85606496Y-115745704D01*
X85631000Y-115744500D01*
X86581000Y-115744500D01*
X86605504Y-115745704D01*
X86605504Y-115745704D01*
G37*
D18*
X86106000Y-116332000D03*
%TD*%
D20*
%TO.C,U2*%
X111346001Y-129516001D03*
X111346001Y-128246001D03*
X111346001Y-126976001D03*
X111346001Y-125706001D03*
X111346001Y-124436001D03*
X111346001Y-123166001D03*
X111346001Y-121896001D03*
X111346001Y-120626001D03*
X111346001Y-119356001D03*
X111346001Y-118086001D03*
X111346001Y-116816001D03*
X111346001Y-115546001D03*
X111346001Y-114276001D03*
X111346001Y-113006001D03*
D21*
X114376001Y-130766001D03*
X115646001Y-130766001D03*
X116916001Y-130766001D03*
X118186001Y-130766001D03*
X119456001Y-130766001D03*
X120726001Y-130766001D03*
X121996001Y-130766001D03*
X123266001Y-130766001D03*
X124536001Y-130766001D03*
X125806001Y-130766001D03*
D20*
X128846001Y-129516001D03*
X128846001Y-128246001D03*
X128846001Y-126976001D03*
X128846001Y-125706001D03*
X128846001Y-124436001D03*
X128846001Y-123166001D03*
X128846001Y-121896001D03*
X128846001Y-120626001D03*
X128846001Y-119356001D03*
X128846001Y-118086001D03*
X128846001Y-116816001D03*
X128846001Y-115546001D03*
X128846001Y-114276001D03*
X128846001Y-113006001D03*
D22*
X119416001Y-120346001D03*
X120941001Y-120346001D03*
X117891001Y-120346001D03*
X117891001Y-121871001D03*
X119416001Y-121871001D03*
X120941001Y-121871001D03*
X120941001Y-118821001D03*
X119416001Y-118821001D03*
X117891001Y-118821001D03*
%TD*%
D12*
%TO.C,D1*%
G36*
X113379505Y-159321204D02*
G01*
X113403773Y-159324804D01*
X113427572Y-159330765D01*
X113450671Y-159339030D01*
X113472850Y-159349520D01*
X113493893Y-159362132D01*
X113513599Y-159376747D01*
X113531777Y-159393223D01*
X113548253Y-159411401D01*
X113562868Y-159431107D01*
X113575480Y-159452150D01*
X113585970Y-159474329D01*
X113594235Y-159497428D01*
X113600196Y-159521227D01*
X113603796Y-159545495D01*
X113605000Y-159569999D01*
X113605000Y-160470001D01*
X113603796Y-160494505D01*
X113600196Y-160518773D01*
X113594235Y-160542572D01*
X113585970Y-160565671D01*
X113575480Y-160587850D01*
X113562868Y-160608893D01*
X113548253Y-160628599D01*
X113531777Y-160646777D01*
X113513599Y-160663253D01*
X113493893Y-160677868D01*
X113472850Y-160690480D01*
X113450671Y-160700970D01*
X113427572Y-160709235D01*
X113403773Y-160715196D01*
X113379505Y-160718796D01*
X113355001Y-160720000D01*
X112704999Y-160720000D01*
X112680495Y-160718796D01*
X112656227Y-160715196D01*
X112632428Y-160709235D01*
X112609329Y-160700970D01*
X112587150Y-160690480D01*
X112566107Y-160677868D01*
X112546401Y-160663253D01*
X112528223Y-160646777D01*
X112511747Y-160628599D01*
X112497132Y-160608893D01*
X112484520Y-160587850D01*
X112474030Y-160565671D01*
X112465765Y-160542572D01*
X112459804Y-160518773D01*
X112456204Y-160494505D01*
X112455000Y-160470001D01*
X112455000Y-159569999D01*
X112456204Y-159545495D01*
X112459804Y-159521227D01*
X112465765Y-159497428D01*
X112474030Y-159474329D01*
X112484520Y-159452150D01*
X112497132Y-159431107D01*
X112511747Y-159411401D01*
X112528223Y-159393223D01*
X112546401Y-159376747D01*
X112566107Y-159362132D01*
X112587150Y-159349520D01*
X112609329Y-159339030D01*
X112632428Y-159330765D01*
X112656227Y-159324804D01*
X112680495Y-159321204D01*
X112704999Y-159320000D01*
X113355001Y-159320000D01*
X113379505Y-159321204D01*
X113379505Y-159321204D01*
G37*
D19*
X113030000Y-160020000D03*
D12*
G36*
X111329505Y-159321204D02*
G01*
X111353773Y-159324804D01*
X111377572Y-159330765D01*
X111400671Y-159339030D01*
X111422850Y-159349520D01*
X111443893Y-159362132D01*
X111463599Y-159376747D01*
X111481777Y-159393223D01*
X111498253Y-159411401D01*
X111512868Y-159431107D01*
X111525480Y-159452150D01*
X111535970Y-159474329D01*
X111544235Y-159497428D01*
X111550196Y-159521227D01*
X111553796Y-159545495D01*
X111555000Y-159569999D01*
X111555000Y-160470001D01*
X111553796Y-160494505D01*
X111550196Y-160518773D01*
X111544235Y-160542572D01*
X111535970Y-160565671D01*
X111525480Y-160587850D01*
X111512868Y-160608893D01*
X111498253Y-160628599D01*
X111481777Y-160646777D01*
X111463599Y-160663253D01*
X111443893Y-160677868D01*
X111422850Y-160690480D01*
X111400671Y-160700970D01*
X111377572Y-160709235D01*
X111353773Y-160715196D01*
X111329505Y-160718796D01*
X111305001Y-160720000D01*
X110654999Y-160720000D01*
X110630495Y-160718796D01*
X110606227Y-160715196D01*
X110582428Y-160709235D01*
X110559329Y-160700970D01*
X110537150Y-160690480D01*
X110516107Y-160677868D01*
X110496401Y-160663253D01*
X110478223Y-160646777D01*
X110461747Y-160628599D01*
X110447132Y-160608893D01*
X110434520Y-160587850D01*
X110424030Y-160565671D01*
X110415765Y-160542572D01*
X110409804Y-160518773D01*
X110406204Y-160494505D01*
X110405000Y-160470001D01*
X110405000Y-159569999D01*
X110406204Y-159545495D01*
X110409804Y-159521227D01*
X110415765Y-159497428D01*
X110424030Y-159474329D01*
X110434520Y-159452150D01*
X110447132Y-159431107D01*
X110461747Y-159411401D01*
X110478223Y-159393223D01*
X110496401Y-159376747D01*
X110516107Y-159362132D01*
X110537150Y-159349520D01*
X110559329Y-159339030D01*
X110582428Y-159330765D01*
X110606227Y-159324804D01*
X110630495Y-159321204D01*
X110654999Y-159320000D01*
X111305001Y-159320000D01*
X111329505Y-159321204D01*
X111329505Y-159321204D01*
G37*
D19*
X110980000Y-160020000D03*
%TD*%
M02*
