%TF.GenerationSoftware,KiCad,Pcbnew,(5.1.2-1)-1*%
%TF.CreationDate,2022-01-27T07:40:46-05:00*%
%TF.ProjectId,project1-Juan,70726f6a-6563-4743-912d-4a75616e2e6b,rev?*%
%TF.SameCoordinates,Original*%
%TF.FileFunction,Copper,L1,Top*%
%TF.FilePolarity,Positive*%
%FSLAX46Y46*%
G04 Gerber Fmt 4.6, Leading zero omitted, Abs format (unit mm)*
G04 Created by KiCad (PCBNEW (5.1.2-1)-1) date 2022-01-27 07:40:46*
%MOMM*%
%LPD*%
G04 APERTURE LIST*
%TA.AperFunction,SMDPad,CuDef*%
%ADD10R,3.800000X2.000000*%
%TD*%
%TA.AperFunction,SMDPad,CuDef*%
%ADD11R,1.500000X2.000000*%
%TD*%
%TA.AperFunction,WasherPad*%
%ADD12C,3.000000*%
%TD*%
%TA.AperFunction,Conductor*%
%ADD13C,0.100000*%
%TD*%
%TA.AperFunction,SMDPad,CuDef*%
%ADD14C,1.200000*%
%TD*%
%TA.AperFunction,SMDPad,CuDef*%
%ADD15R,1.550000X1.300000*%
%TD*%
%TA.AperFunction,SMDPad,CuDef*%
%ADD16R,2.000000X3.800000*%
%TD*%
%TA.AperFunction,SMDPad,CuDef*%
%ADD17R,2.000000X1.500000*%
%TD*%
%TA.AperFunction,ComponentPad*%
%ADD18R,1.700000X1.700000*%
%TD*%
%TA.AperFunction,ComponentPad*%
%ADD19O,1.700000X1.700000*%
%TD*%
%TA.AperFunction,SMDPad,CuDef*%
%ADD20R,0.900000X0.800000*%
%TD*%
%TA.AperFunction,SMDPad,CuDef*%
%ADD21C,1.175000*%
%TD*%
%TA.AperFunction,SMDPad,CuDef*%
%ADD22C,1.150000*%
%TD*%
%TA.AperFunction,SMDPad,CuDef*%
%ADD23R,1.500000X0.900000*%
%TD*%
%TA.AperFunction,SMDPad,CuDef*%
%ADD24R,0.900000X1.500000*%
%TD*%
%TA.AperFunction,SMDPad,CuDef*%
%ADD25R,1.050000X1.050000*%
%TD*%
%TA.AperFunction,ViaPad*%
%ADD26C,1.100000*%
%TD*%
%TA.AperFunction,ViaPad*%
%ADD27C,0.700000*%
%TD*%
%TA.AperFunction,Conductor*%
%ADD28C,1.000000*%
%TD*%
%TA.AperFunction,Conductor*%
%ADD29C,0.600000*%
%TD*%
%TA.AperFunction,Conductor*%
%ADD30C,0.250000*%
%TD*%
%TA.AperFunction,Conductor*%
%ADD31C,0.254000*%
%TD*%
G04 APERTURE END LIST*
D10*
%TO.P,Q2,2*%
%TO.N,/Vin*%
X117348000Y-148946000D03*
D11*
X117348000Y-142646000D03*
%TO.P,Q2,3*%
%TO.N,Net-(Q2-Pad3)*%
X115048000Y-142646000D03*
%TO.P,Q2,1*%
%TO.N,Net-(Q1-Pad3)*%
X119648000Y-142646000D03*
%TD*%
D12*
%TO.P,REF\002A\002A,*%
%TO.N,*%
X150000000Y-160000000D03*
%TD*%
%TO.P,REF\002A\002A,*%
%TO.N,*%
X150000000Y-108000000D03*
%TD*%
%TO.P,REF\002A\002A,*%
%TO.N,*%
X75000000Y-108000000D03*
%TD*%
%TO.P,REF\002A\002A,*%
%TO.N,*%
X75000000Y-160000000D03*
%TD*%
D13*
%TO.N,/Vin*%
%TO.C,R5*%
G36*
X108594505Y-152971204D02*
G01*
X108618773Y-152974804D01*
X108642572Y-152980765D01*
X108665671Y-152989030D01*
X108687850Y-152999520D01*
X108708893Y-153012132D01*
X108728599Y-153026747D01*
X108746777Y-153043223D01*
X108763253Y-153061401D01*
X108777868Y-153081107D01*
X108790480Y-153102150D01*
X108800970Y-153124329D01*
X108809235Y-153147428D01*
X108815196Y-153171227D01*
X108818796Y-153195495D01*
X108820000Y-153219999D01*
X108820000Y-154120001D01*
X108818796Y-154144505D01*
X108815196Y-154168773D01*
X108809235Y-154192572D01*
X108800970Y-154215671D01*
X108790480Y-154237850D01*
X108777868Y-154258893D01*
X108763253Y-154278599D01*
X108746777Y-154296777D01*
X108728599Y-154313253D01*
X108708893Y-154327868D01*
X108687850Y-154340480D01*
X108665671Y-154350970D01*
X108642572Y-154359235D01*
X108618773Y-154365196D01*
X108594505Y-154368796D01*
X108570001Y-154370000D01*
X107869999Y-154370000D01*
X107845495Y-154368796D01*
X107821227Y-154365196D01*
X107797428Y-154359235D01*
X107774329Y-154350970D01*
X107752150Y-154340480D01*
X107731107Y-154327868D01*
X107711401Y-154313253D01*
X107693223Y-154296777D01*
X107676747Y-154278599D01*
X107662132Y-154258893D01*
X107649520Y-154237850D01*
X107639030Y-154215671D01*
X107630765Y-154192572D01*
X107624804Y-154168773D01*
X107621204Y-154144505D01*
X107620000Y-154120001D01*
X107620000Y-153219999D01*
X107621204Y-153195495D01*
X107624804Y-153171227D01*
X107630765Y-153147428D01*
X107639030Y-153124329D01*
X107649520Y-153102150D01*
X107662132Y-153081107D01*
X107676747Y-153061401D01*
X107693223Y-153043223D01*
X107711401Y-153026747D01*
X107731107Y-153012132D01*
X107752150Y-152999520D01*
X107774329Y-152989030D01*
X107797428Y-152980765D01*
X107821227Y-152974804D01*
X107845495Y-152971204D01*
X107869999Y-152970000D01*
X108570001Y-152970000D01*
X108594505Y-152971204D01*
X108594505Y-152971204D01*
G37*
D14*
%TD*%
%TO.P,R5,1*%
%TO.N,/Vin*%
X108220000Y-153670000D03*
D13*
%TO.N,Net-(Q1-Pad3)*%
%TO.C,R5*%
G36*
X110594505Y-152971204D02*
G01*
X110618773Y-152974804D01*
X110642572Y-152980765D01*
X110665671Y-152989030D01*
X110687850Y-152999520D01*
X110708893Y-153012132D01*
X110728599Y-153026747D01*
X110746777Y-153043223D01*
X110763253Y-153061401D01*
X110777868Y-153081107D01*
X110790480Y-153102150D01*
X110800970Y-153124329D01*
X110809235Y-153147428D01*
X110815196Y-153171227D01*
X110818796Y-153195495D01*
X110820000Y-153219999D01*
X110820000Y-154120001D01*
X110818796Y-154144505D01*
X110815196Y-154168773D01*
X110809235Y-154192572D01*
X110800970Y-154215671D01*
X110790480Y-154237850D01*
X110777868Y-154258893D01*
X110763253Y-154278599D01*
X110746777Y-154296777D01*
X110728599Y-154313253D01*
X110708893Y-154327868D01*
X110687850Y-154340480D01*
X110665671Y-154350970D01*
X110642572Y-154359235D01*
X110618773Y-154365196D01*
X110594505Y-154368796D01*
X110570001Y-154370000D01*
X109869999Y-154370000D01*
X109845495Y-154368796D01*
X109821227Y-154365196D01*
X109797428Y-154359235D01*
X109774329Y-154350970D01*
X109752150Y-154340480D01*
X109731107Y-154327868D01*
X109711401Y-154313253D01*
X109693223Y-154296777D01*
X109676747Y-154278599D01*
X109662132Y-154258893D01*
X109649520Y-154237850D01*
X109639030Y-154215671D01*
X109630765Y-154192572D01*
X109624804Y-154168773D01*
X109621204Y-154144505D01*
X109620000Y-154120001D01*
X109620000Y-153219999D01*
X109621204Y-153195495D01*
X109624804Y-153171227D01*
X109630765Y-153147428D01*
X109639030Y-153124329D01*
X109649520Y-153102150D01*
X109662132Y-153081107D01*
X109676747Y-153061401D01*
X109693223Y-153043223D01*
X109711401Y-153026747D01*
X109731107Y-153012132D01*
X109752150Y-152999520D01*
X109774329Y-152989030D01*
X109797428Y-152980765D01*
X109821227Y-152974804D01*
X109845495Y-152971204D01*
X109869999Y-152970000D01*
X110570001Y-152970000D01*
X110594505Y-152971204D01*
X110594505Y-152971204D01*
G37*
D14*
%TD*%
%TO.P,R5,2*%
%TO.N,Net-(Q1-Pad3)*%
X110220000Y-153670000D03*
D13*
%TO.N,Net-(Q2-Pad3)*%
%TO.C,R6*%
G36*
X110345585Y-147886124D02*
G01*
X110369853Y-147889724D01*
X110393652Y-147895685D01*
X110416751Y-147903950D01*
X110438930Y-147914440D01*
X110459973Y-147927052D01*
X110479679Y-147941667D01*
X110497857Y-147958143D01*
X110514333Y-147976321D01*
X110528948Y-147996027D01*
X110541560Y-148017070D01*
X110552050Y-148039249D01*
X110560315Y-148062348D01*
X110566276Y-148086147D01*
X110569876Y-148110415D01*
X110571080Y-148134919D01*
X110571080Y-149034921D01*
X110569876Y-149059425D01*
X110566276Y-149083693D01*
X110560315Y-149107492D01*
X110552050Y-149130591D01*
X110541560Y-149152770D01*
X110528948Y-149173813D01*
X110514333Y-149193519D01*
X110497857Y-149211697D01*
X110479679Y-149228173D01*
X110459973Y-149242788D01*
X110438930Y-149255400D01*
X110416751Y-149265890D01*
X110393652Y-149274155D01*
X110369853Y-149280116D01*
X110345585Y-149283716D01*
X110321081Y-149284920D01*
X109621079Y-149284920D01*
X109596575Y-149283716D01*
X109572307Y-149280116D01*
X109548508Y-149274155D01*
X109525409Y-149265890D01*
X109503230Y-149255400D01*
X109482187Y-149242788D01*
X109462481Y-149228173D01*
X109444303Y-149211697D01*
X109427827Y-149193519D01*
X109413212Y-149173813D01*
X109400600Y-149152770D01*
X109390110Y-149130591D01*
X109381845Y-149107492D01*
X109375884Y-149083693D01*
X109372284Y-149059425D01*
X109371080Y-149034921D01*
X109371080Y-148134919D01*
X109372284Y-148110415D01*
X109375884Y-148086147D01*
X109381845Y-148062348D01*
X109390110Y-148039249D01*
X109400600Y-148017070D01*
X109413212Y-147996027D01*
X109427827Y-147976321D01*
X109444303Y-147958143D01*
X109462481Y-147941667D01*
X109482187Y-147927052D01*
X109503230Y-147914440D01*
X109525409Y-147903950D01*
X109548508Y-147895685D01*
X109572307Y-147889724D01*
X109596575Y-147886124D01*
X109621079Y-147884920D01*
X110321081Y-147884920D01*
X110345585Y-147886124D01*
X110345585Y-147886124D01*
G37*
D14*
%TD*%
%TO.P,R6,1*%
%TO.N,Net-(Q2-Pad3)*%
X109971080Y-148584920D03*
D13*
%TO.N,/esp32/BATT_V*%
%TO.C,R6*%
G36*
X108345585Y-147886124D02*
G01*
X108369853Y-147889724D01*
X108393652Y-147895685D01*
X108416751Y-147903950D01*
X108438930Y-147914440D01*
X108459973Y-147927052D01*
X108479679Y-147941667D01*
X108497857Y-147958143D01*
X108514333Y-147976321D01*
X108528948Y-147996027D01*
X108541560Y-148017070D01*
X108552050Y-148039249D01*
X108560315Y-148062348D01*
X108566276Y-148086147D01*
X108569876Y-148110415D01*
X108571080Y-148134919D01*
X108571080Y-149034921D01*
X108569876Y-149059425D01*
X108566276Y-149083693D01*
X108560315Y-149107492D01*
X108552050Y-149130591D01*
X108541560Y-149152770D01*
X108528948Y-149173813D01*
X108514333Y-149193519D01*
X108497857Y-149211697D01*
X108479679Y-149228173D01*
X108459973Y-149242788D01*
X108438930Y-149255400D01*
X108416751Y-149265890D01*
X108393652Y-149274155D01*
X108369853Y-149280116D01*
X108345585Y-149283716D01*
X108321081Y-149284920D01*
X107621079Y-149284920D01*
X107596575Y-149283716D01*
X107572307Y-149280116D01*
X107548508Y-149274155D01*
X107525409Y-149265890D01*
X107503230Y-149255400D01*
X107482187Y-149242788D01*
X107462481Y-149228173D01*
X107444303Y-149211697D01*
X107427827Y-149193519D01*
X107413212Y-149173813D01*
X107400600Y-149152770D01*
X107390110Y-149130591D01*
X107381845Y-149107492D01*
X107375884Y-149083693D01*
X107372284Y-149059425D01*
X107371080Y-149034921D01*
X107371080Y-148134919D01*
X107372284Y-148110415D01*
X107375884Y-148086147D01*
X107381845Y-148062348D01*
X107390110Y-148039249D01*
X107400600Y-148017070D01*
X107413212Y-147996027D01*
X107427827Y-147976321D01*
X107444303Y-147958143D01*
X107462481Y-147941667D01*
X107482187Y-147927052D01*
X107503230Y-147914440D01*
X107525409Y-147903950D01*
X107548508Y-147895685D01*
X107572307Y-147889724D01*
X107596575Y-147886124D01*
X107621079Y-147884920D01*
X108321081Y-147884920D01*
X108345585Y-147886124D01*
X108345585Y-147886124D01*
G37*
D14*
%TD*%
%TO.P,R6,2*%
%TO.N,/esp32/BATT_V*%
X107971080Y-148584920D03*
D13*
%TO.N,/GND*%
%TO.C,R7*%
G36*
X110355745Y-150431204D02*
G01*
X110380013Y-150434804D01*
X110403812Y-150440765D01*
X110426911Y-150449030D01*
X110449090Y-150459520D01*
X110470133Y-150472132D01*
X110489839Y-150486747D01*
X110508017Y-150503223D01*
X110524493Y-150521401D01*
X110539108Y-150541107D01*
X110551720Y-150562150D01*
X110562210Y-150584329D01*
X110570475Y-150607428D01*
X110576436Y-150631227D01*
X110580036Y-150655495D01*
X110581240Y-150679999D01*
X110581240Y-151580001D01*
X110580036Y-151604505D01*
X110576436Y-151628773D01*
X110570475Y-151652572D01*
X110562210Y-151675671D01*
X110551720Y-151697850D01*
X110539108Y-151718893D01*
X110524493Y-151738599D01*
X110508017Y-151756777D01*
X110489839Y-151773253D01*
X110470133Y-151787868D01*
X110449090Y-151800480D01*
X110426911Y-151810970D01*
X110403812Y-151819235D01*
X110380013Y-151825196D01*
X110355745Y-151828796D01*
X110331241Y-151830000D01*
X109631239Y-151830000D01*
X109606735Y-151828796D01*
X109582467Y-151825196D01*
X109558668Y-151819235D01*
X109535569Y-151810970D01*
X109513390Y-151800480D01*
X109492347Y-151787868D01*
X109472641Y-151773253D01*
X109454463Y-151756777D01*
X109437987Y-151738599D01*
X109423372Y-151718893D01*
X109410760Y-151697850D01*
X109400270Y-151675671D01*
X109392005Y-151652572D01*
X109386044Y-151628773D01*
X109382444Y-151604505D01*
X109381240Y-151580001D01*
X109381240Y-150679999D01*
X109382444Y-150655495D01*
X109386044Y-150631227D01*
X109392005Y-150607428D01*
X109400270Y-150584329D01*
X109410760Y-150562150D01*
X109423372Y-150541107D01*
X109437987Y-150521401D01*
X109454463Y-150503223D01*
X109472641Y-150486747D01*
X109492347Y-150472132D01*
X109513390Y-150459520D01*
X109535569Y-150449030D01*
X109558668Y-150440765D01*
X109582467Y-150434804D01*
X109606735Y-150431204D01*
X109631239Y-150430000D01*
X110331241Y-150430000D01*
X110355745Y-150431204D01*
X110355745Y-150431204D01*
G37*
D14*
%TD*%
%TO.P,R7,2*%
%TO.N,/GND*%
X109981240Y-151130000D03*
D13*
%TO.N,/esp32/BATT_V*%
%TO.C,R7*%
G36*
X108355745Y-150431204D02*
G01*
X108380013Y-150434804D01*
X108403812Y-150440765D01*
X108426911Y-150449030D01*
X108449090Y-150459520D01*
X108470133Y-150472132D01*
X108489839Y-150486747D01*
X108508017Y-150503223D01*
X108524493Y-150521401D01*
X108539108Y-150541107D01*
X108551720Y-150562150D01*
X108562210Y-150584329D01*
X108570475Y-150607428D01*
X108576436Y-150631227D01*
X108580036Y-150655495D01*
X108581240Y-150679999D01*
X108581240Y-151580001D01*
X108580036Y-151604505D01*
X108576436Y-151628773D01*
X108570475Y-151652572D01*
X108562210Y-151675671D01*
X108551720Y-151697850D01*
X108539108Y-151718893D01*
X108524493Y-151738599D01*
X108508017Y-151756777D01*
X108489839Y-151773253D01*
X108470133Y-151787868D01*
X108449090Y-151800480D01*
X108426911Y-151810970D01*
X108403812Y-151819235D01*
X108380013Y-151825196D01*
X108355745Y-151828796D01*
X108331241Y-151830000D01*
X107631239Y-151830000D01*
X107606735Y-151828796D01*
X107582467Y-151825196D01*
X107558668Y-151819235D01*
X107535569Y-151810970D01*
X107513390Y-151800480D01*
X107492347Y-151787868D01*
X107472641Y-151773253D01*
X107454463Y-151756777D01*
X107437987Y-151738599D01*
X107423372Y-151718893D01*
X107410760Y-151697850D01*
X107400270Y-151675671D01*
X107392005Y-151652572D01*
X107386044Y-151628773D01*
X107382444Y-151604505D01*
X107381240Y-151580001D01*
X107381240Y-150679999D01*
X107382444Y-150655495D01*
X107386044Y-150631227D01*
X107392005Y-150607428D01*
X107400270Y-150584329D01*
X107410760Y-150562150D01*
X107423372Y-150541107D01*
X107437987Y-150521401D01*
X107454463Y-150503223D01*
X107472641Y-150486747D01*
X107492347Y-150472132D01*
X107513390Y-150459520D01*
X107535569Y-150449030D01*
X107558668Y-150440765D01*
X107582467Y-150434804D01*
X107606735Y-150431204D01*
X107631239Y-150430000D01*
X108331241Y-150430000D01*
X108355745Y-150431204D01*
X108355745Y-150431204D01*
G37*
D14*
%TD*%
%TO.P,R7,1*%
%TO.N,/esp32/BATT_V*%
X107981240Y-151130000D03*
D15*
%TO.P,SW1,2*%
%TO.N,/esp32/EN*%
X96177000Y-124877000D03*
%TO.P,SW1,1*%
%TO.N,Net-(C3-Pad2)*%
X96177000Y-129377000D03*
X88227000Y-129377000D03*
%TO.P,SW1,2*%
%TO.N,/esp32/EN*%
X88227000Y-124877000D03*
%TD*%
%TO.P,SW2,2*%
%TO.N,/GND*%
X142151000Y-157190000D03*
%TO.P,SW2,1*%
%TO.N,/esp32/BOOT*%
X142151000Y-152690000D03*
X134201000Y-152690000D03*
%TO.P,SW2,2*%
%TO.N,/GND*%
X134201000Y-157190000D03*
%TD*%
D16*
%TO.P,U1,2*%
%TO.N,/Vin*%
X96876000Y-115316000D03*
D17*
X90576000Y-115316000D03*
%TO.P,U1,3*%
%TO.N,/Vbat*%
X90576000Y-117616000D03*
%TO.P,U1,1*%
%TO.N,/GND*%
X90576000Y-113016000D03*
%TD*%
D18*
%TO.P,J6,1*%
%TO.N,/Vin*%
X78740000Y-125222000D03*
D19*
%TO.P,J6,2*%
%TO.N,/esp32/GNRL_PURPOSE_1*%
X78740000Y-127762000D03*
%TO.P,J6,3*%
%TO.N,/GND*%
X78740000Y-130302000D03*
%TD*%
D20*
%TO.P,Q1,1*%
%TO.N,/esp32/READ_BATT_V*%
X115840000Y-137480000D03*
%TO.P,Q1,2*%
%TO.N,/GND*%
X115840000Y-139380000D03*
%TO.P,Q1,3*%
%TO.N,Net-(Q1-Pad3)*%
X117840000Y-138430000D03*
%TD*%
D13*
%TO.N,Net-(D1-Pad2)*%
%TO.C,R1*%
G36*
X110437506Y-137436205D02*
G01*
X110461774Y-137439805D01*
X110485573Y-137445766D01*
X110508672Y-137454031D01*
X110530851Y-137464521D01*
X110551894Y-137477133D01*
X110571600Y-137491748D01*
X110589778Y-137508224D01*
X110606254Y-137526402D01*
X110620869Y-137546108D01*
X110633481Y-137567151D01*
X110643971Y-137589330D01*
X110652236Y-137612429D01*
X110658197Y-137636228D01*
X110661797Y-137660496D01*
X110663001Y-137685000D01*
X110663001Y-138585002D01*
X110661797Y-138609506D01*
X110658197Y-138633774D01*
X110652236Y-138657573D01*
X110643971Y-138680672D01*
X110633481Y-138702851D01*
X110620869Y-138723894D01*
X110606254Y-138743600D01*
X110589778Y-138761778D01*
X110571600Y-138778254D01*
X110551894Y-138792869D01*
X110530851Y-138805481D01*
X110508672Y-138815971D01*
X110485573Y-138824236D01*
X110461774Y-138830197D01*
X110437506Y-138833797D01*
X110413002Y-138835001D01*
X109713000Y-138835001D01*
X109688496Y-138833797D01*
X109664228Y-138830197D01*
X109640429Y-138824236D01*
X109617330Y-138815971D01*
X109595151Y-138805481D01*
X109574108Y-138792869D01*
X109554402Y-138778254D01*
X109536224Y-138761778D01*
X109519748Y-138743600D01*
X109505133Y-138723894D01*
X109492521Y-138702851D01*
X109482031Y-138680672D01*
X109473766Y-138657573D01*
X109467805Y-138633774D01*
X109464205Y-138609506D01*
X109463001Y-138585002D01*
X109463001Y-137685000D01*
X109464205Y-137660496D01*
X109467805Y-137636228D01*
X109473766Y-137612429D01*
X109482031Y-137589330D01*
X109492521Y-137567151D01*
X109505133Y-137546108D01*
X109519748Y-137526402D01*
X109536224Y-137508224D01*
X109554402Y-137491748D01*
X109574108Y-137477133D01*
X109595151Y-137464521D01*
X109617330Y-137454031D01*
X109640429Y-137445766D01*
X109664228Y-137439805D01*
X109688496Y-137436205D01*
X109713000Y-137435001D01*
X110413002Y-137435001D01*
X110437506Y-137436205D01*
X110437506Y-137436205D01*
G37*
D14*
%TD*%
%TO.P,R1,2*%
%TO.N,Net-(D1-Pad2)*%
X110063001Y-138135001D03*
D13*
%TO.N,/esp32/WIFI_CONNECTION*%
%TO.C,R1*%
G36*
X108437506Y-137436205D02*
G01*
X108461774Y-137439805D01*
X108485573Y-137445766D01*
X108508672Y-137454031D01*
X108530851Y-137464521D01*
X108551894Y-137477133D01*
X108571600Y-137491748D01*
X108589778Y-137508224D01*
X108606254Y-137526402D01*
X108620869Y-137546108D01*
X108633481Y-137567151D01*
X108643971Y-137589330D01*
X108652236Y-137612429D01*
X108658197Y-137636228D01*
X108661797Y-137660496D01*
X108663001Y-137685000D01*
X108663001Y-138585002D01*
X108661797Y-138609506D01*
X108658197Y-138633774D01*
X108652236Y-138657573D01*
X108643971Y-138680672D01*
X108633481Y-138702851D01*
X108620869Y-138723894D01*
X108606254Y-138743600D01*
X108589778Y-138761778D01*
X108571600Y-138778254D01*
X108551894Y-138792869D01*
X108530851Y-138805481D01*
X108508672Y-138815971D01*
X108485573Y-138824236D01*
X108461774Y-138830197D01*
X108437506Y-138833797D01*
X108413002Y-138835001D01*
X107713000Y-138835001D01*
X107688496Y-138833797D01*
X107664228Y-138830197D01*
X107640429Y-138824236D01*
X107617330Y-138815971D01*
X107595151Y-138805481D01*
X107574108Y-138792869D01*
X107554402Y-138778254D01*
X107536224Y-138761778D01*
X107519748Y-138743600D01*
X107505133Y-138723894D01*
X107492521Y-138702851D01*
X107482031Y-138680672D01*
X107473766Y-138657573D01*
X107467805Y-138633774D01*
X107464205Y-138609506D01*
X107463001Y-138585002D01*
X107463001Y-137685000D01*
X107464205Y-137660496D01*
X107467805Y-137636228D01*
X107473766Y-137612429D01*
X107482031Y-137589330D01*
X107492521Y-137567151D01*
X107505133Y-137546108D01*
X107519748Y-137526402D01*
X107536224Y-137508224D01*
X107554402Y-137491748D01*
X107574108Y-137477133D01*
X107595151Y-137464521D01*
X107617330Y-137454031D01*
X107640429Y-137445766D01*
X107664228Y-137439805D01*
X107688496Y-137436205D01*
X107713000Y-137435001D01*
X108413002Y-137435001D01*
X108437506Y-137436205D01*
X108437506Y-137436205D01*
G37*
D14*
%TD*%
%TO.P,R1,1*%
%TO.N,/esp32/WIFI_CONNECTION*%
X108063001Y-138135001D03*
D13*
%TO.N,/Vin*%
%TO.C,R2*%
G36*
X108437506Y-140386205D02*
G01*
X108461774Y-140389805D01*
X108485573Y-140395766D01*
X108508672Y-140404031D01*
X108530851Y-140414521D01*
X108551894Y-140427133D01*
X108571600Y-140441748D01*
X108589778Y-140458224D01*
X108606254Y-140476402D01*
X108620869Y-140496108D01*
X108633481Y-140517151D01*
X108643971Y-140539330D01*
X108652236Y-140562429D01*
X108658197Y-140586228D01*
X108661797Y-140610496D01*
X108663001Y-140635000D01*
X108663001Y-141535002D01*
X108661797Y-141559506D01*
X108658197Y-141583774D01*
X108652236Y-141607573D01*
X108643971Y-141630672D01*
X108633481Y-141652851D01*
X108620869Y-141673894D01*
X108606254Y-141693600D01*
X108589778Y-141711778D01*
X108571600Y-141728254D01*
X108551894Y-141742869D01*
X108530851Y-141755481D01*
X108508672Y-141765971D01*
X108485573Y-141774236D01*
X108461774Y-141780197D01*
X108437506Y-141783797D01*
X108413002Y-141785001D01*
X107713000Y-141785001D01*
X107688496Y-141783797D01*
X107664228Y-141780197D01*
X107640429Y-141774236D01*
X107617330Y-141765971D01*
X107595151Y-141755481D01*
X107574108Y-141742869D01*
X107554402Y-141728254D01*
X107536224Y-141711778D01*
X107519748Y-141693600D01*
X107505133Y-141673894D01*
X107492521Y-141652851D01*
X107482031Y-141630672D01*
X107473766Y-141607573D01*
X107467805Y-141583774D01*
X107464205Y-141559506D01*
X107463001Y-141535002D01*
X107463001Y-140635000D01*
X107464205Y-140610496D01*
X107467805Y-140586228D01*
X107473766Y-140562429D01*
X107482031Y-140539330D01*
X107492521Y-140517151D01*
X107505133Y-140496108D01*
X107519748Y-140476402D01*
X107536224Y-140458224D01*
X107554402Y-140441748D01*
X107574108Y-140427133D01*
X107595151Y-140414521D01*
X107617330Y-140404031D01*
X107640429Y-140395766D01*
X107664228Y-140389805D01*
X107688496Y-140386205D01*
X107713000Y-140385001D01*
X108413002Y-140385001D01*
X108437506Y-140386205D01*
X108437506Y-140386205D01*
G37*
D14*
%TD*%
%TO.P,R2,1*%
%TO.N,/Vin*%
X108063001Y-141085001D03*
D13*
%TO.N,Net-(C3-Pad2)*%
%TO.C,R2*%
G36*
X110437506Y-140386205D02*
G01*
X110461774Y-140389805D01*
X110485573Y-140395766D01*
X110508672Y-140404031D01*
X110530851Y-140414521D01*
X110551894Y-140427133D01*
X110571600Y-140441748D01*
X110589778Y-140458224D01*
X110606254Y-140476402D01*
X110620869Y-140496108D01*
X110633481Y-140517151D01*
X110643971Y-140539330D01*
X110652236Y-140562429D01*
X110658197Y-140586228D01*
X110661797Y-140610496D01*
X110663001Y-140635000D01*
X110663001Y-141535002D01*
X110661797Y-141559506D01*
X110658197Y-141583774D01*
X110652236Y-141607573D01*
X110643971Y-141630672D01*
X110633481Y-141652851D01*
X110620869Y-141673894D01*
X110606254Y-141693600D01*
X110589778Y-141711778D01*
X110571600Y-141728254D01*
X110551894Y-141742869D01*
X110530851Y-141755481D01*
X110508672Y-141765971D01*
X110485573Y-141774236D01*
X110461774Y-141780197D01*
X110437506Y-141783797D01*
X110413002Y-141785001D01*
X109713000Y-141785001D01*
X109688496Y-141783797D01*
X109664228Y-141780197D01*
X109640429Y-141774236D01*
X109617330Y-141765971D01*
X109595151Y-141755481D01*
X109574108Y-141742869D01*
X109554402Y-141728254D01*
X109536224Y-141711778D01*
X109519748Y-141693600D01*
X109505133Y-141673894D01*
X109492521Y-141652851D01*
X109482031Y-141630672D01*
X109473766Y-141607573D01*
X109467805Y-141583774D01*
X109464205Y-141559506D01*
X109463001Y-141535002D01*
X109463001Y-140635000D01*
X109464205Y-140610496D01*
X109467805Y-140586228D01*
X109473766Y-140562429D01*
X109482031Y-140539330D01*
X109492521Y-140517151D01*
X109505133Y-140496108D01*
X109519748Y-140476402D01*
X109536224Y-140458224D01*
X109554402Y-140441748D01*
X109574108Y-140427133D01*
X109595151Y-140414521D01*
X109617330Y-140404031D01*
X109640429Y-140395766D01*
X109664228Y-140389805D01*
X109688496Y-140386205D01*
X109713000Y-140385001D01*
X110413002Y-140385001D01*
X110437506Y-140386205D01*
X110437506Y-140386205D01*
G37*
D14*
%TD*%
%TO.P,R2,2*%
%TO.N,Net-(C3-Pad2)*%
X110063001Y-141085001D03*
D13*
%TO.N,/esp32/NO_WIFI_CONNECTION*%
%TO.C,R3*%
G36*
X108670705Y-144086284D02*
G01*
X108694973Y-144089884D01*
X108718772Y-144095845D01*
X108741871Y-144104110D01*
X108764050Y-144114600D01*
X108785093Y-144127212D01*
X108804799Y-144141827D01*
X108822977Y-144158303D01*
X108839453Y-144176481D01*
X108854068Y-144196187D01*
X108866680Y-144217230D01*
X108877170Y-144239409D01*
X108885435Y-144262508D01*
X108891396Y-144286307D01*
X108894996Y-144310575D01*
X108896200Y-144335079D01*
X108896200Y-145235081D01*
X108894996Y-145259585D01*
X108891396Y-145283853D01*
X108885435Y-145307652D01*
X108877170Y-145330751D01*
X108866680Y-145352930D01*
X108854068Y-145373973D01*
X108839453Y-145393679D01*
X108822977Y-145411857D01*
X108804799Y-145428333D01*
X108785093Y-145442948D01*
X108764050Y-145455560D01*
X108741871Y-145466050D01*
X108718772Y-145474315D01*
X108694973Y-145480276D01*
X108670705Y-145483876D01*
X108646201Y-145485080D01*
X107946199Y-145485080D01*
X107921695Y-145483876D01*
X107897427Y-145480276D01*
X107873628Y-145474315D01*
X107850529Y-145466050D01*
X107828350Y-145455560D01*
X107807307Y-145442948D01*
X107787601Y-145428333D01*
X107769423Y-145411857D01*
X107752947Y-145393679D01*
X107738332Y-145373973D01*
X107725720Y-145352930D01*
X107715230Y-145330751D01*
X107706965Y-145307652D01*
X107701004Y-145283853D01*
X107697404Y-145259585D01*
X107696200Y-145235081D01*
X107696200Y-144335079D01*
X107697404Y-144310575D01*
X107701004Y-144286307D01*
X107706965Y-144262508D01*
X107715230Y-144239409D01*
X107725720Y-144217230D01*
X107738332Y-144196187D01*
X107752947Y-144176481D01*
X107769423Y-144158303D01*
X107787601Y-144141827D01*
X107807307Y-144127212D01*
X107828350Y-144114600D01*
X107850529Y-144104110D01*
X107873628Y-144095845D01*
X107897427Y-144089884D01*
X107921695Y-144086284D01*
X107946199Y-144085080D01*
X108646201Y-144085080D01*
X108670705Y-144086284D01*
X108670705Y-144086284D01*
G37*
D14*
%TD*%
%TO.P,R3,1*%
%TO.N,/esp32/NO_WIFI_CONNECTION*%
X108296200Y-144785080D03*
D13*
%TO.N,Net-(D2-Pad2)*%
%TO.C,R3*%
G36*
X110670705Y-144086284D02*
G01*
X110694973Y-144089884D01*
X110718772Y-144095845D01*
X110741871Y-144104110D01*
X110764050Y-144114600D01*
X110785093Y-144127212D01*
X110804799Y-144141827D01*
X110822977Y-144158303D01*
X110839453Y-144176481D01*
X110854068Y-144196187D01*
X110866680Y-144217230D01*
X110877170Y-144239409D01*
X110885435Y-144262508D01*
X110891396Y-144286307D01*
X110894996Y-144310575D01*
X110896200Y-144335079D01*
X110896200Y-145235081D01*
X110894996Y-145259585D01*
X110891396Y-145283853D01*
X110885435Y-145307652D01*
X110877170Y-145330751D01*
X110866680Y-145352930D01*
X110854068Y-145373973D01*
X110839453Y-145393679D01*
X110822977Y-145411857D01*
X110804799Y-145428333D01*
X110785093Y-145442948D01*
X110764050Y-145455560D01*
X110741871Y-145466050D01*
X110718772Y-145474315D01*
X110694973Y-145480276D01*
X110670705Y-145483876D01*
X110646201Y-145485080D01*
X109946199Y-145485080D01*
X109921695Y-145483876D01*
X109897427Y-145480276D01*
X109873628Y-145474315D01*
X109850529Y-145466050D01*
X109828350Y-145455560D01*
X109807307Y-145442948D01*
X109787601Y-145428333D01*
X109769423Y-145411857D01*
X109752947Y-145393679D01*
X109738332Y-145373973D01*
X109725720Y-145352930D01*
X109715230Y-145330751D01*
X109706965Y-145307652D01*
X109701004Y-145283853D01*
X109697404Y-145259585D01*
X109696200Y-145235081D01*
X109696200Y-144335079D01*
X109697404Y-144310575D01*
X109701004Y-144286307D01*
X109706965Y-144262508D01*
X109715230Y-144239409D01*
X109725720Y-144217230D01*
X109738332Y-144196187D01*
X109752947Y-144176481D01*
X109769423Y-144158303D01*
X109787601Y-144141827D01*
X109807307Y-144127212D01*
X109828350Y-144114600D01*
X109850529Y-144104110D01*
X109873628Y-144095845D01*
X109897427Y-144089884D01*
X109921695Y-144086284D01*
X109946199Y-144085080D01*
X110646201Y-144085080D01*
X110670705Y-144086284D01*
X110670705Y-144086284D01*
G37*
D14*
%TD*%
%TO.P,R3,2*%
%TO.N,Net-(D2-Pad2)*%
X110296200Y-144785080D03*
D13*
%TO.N,/esp32/BOOT*%
%TO.C,R4*%
G36*
X134724505Y-143573204D02*
G01*
X134748773Y-143576804D01*
X134772572Y-143582765D01*
X134795671Y-143591030D01*
X134817850Y-143601520D01*
X134838893Y-143614132D01*
X134858599Y-143628747D01*
X134876777Y-143645223D01*
X134893253Y-143663401D01*
X134907868Y-143683107D01*
X134920480Y-143704150D01*
X134930970Y-143726329D01*
X134939235Y-143749428D01*
X134945196Y-143773227D01*
X134948796Y-143797495D01*
X134950000Y-143821999D01*
X134950000Y-144722001D01*
X134948796Y-144746505D01*
X134945196Y-144770773D01*
X134939235Y-144794572D01*
X134930970Y-144817671D01*
X134920480Y-144839850D01*
X134907868Y-144860893D01*
X134893253Y-144880599D01*
X134876777Y-144898777D01*
X134858599Y-144915253D01*
X134838893Y-144929868D01*
X134817850Y-144942480D01*
X134795671Y-144952970D01*
X134772572Y-144961235D01*
X134748773Y-144967196D01*
X134724505Y-144970796D01*
X134700001Y-144972000D01*
X133999999Y-144972000D01*
X133975495Y-144970796D01*
X133951227Y-144967196D01*
X133927428Y-144961235D01*
X133904329Y-144952970D01*
X133882150Y-144942480D01*
X133861107Y-144929868D01*
X133841401Y-144915253D01*
X133823223Y-144898777D01*
X133806747Y-144880599D01*
X133792132Y-144860893D01*
X133779520Y-144839850D01*
X133769030Y-144817671D01*
X133760765Y-144794572D01*
X133754804Y-144770773D01*
X133751204Y-144746505D01*
X133750000Y-144722001D01*
X133750000Y-143821999D01*
X133751204Y-143797495D01*
X133754804Y-143773227D01*
X133760765Y-143749428D01*
X133769030Y-143726329D01*
X133779520Y-143704150D01*
X133792132Y-143683107D01*
X133806747Y-143663401D01*
X133823223Y-143645223D01*
X133841401Y-143628747D01*
X133861107Y-143614132D01*
X133882150Y-143601520D01*
X133904329Y-143591030D01*
X133927428Y-143582765D01*
X133951227Y-143576804D01*
X133975495Y-143573204D01*
X133999999Y-143572000D01*
X134700001Y-143572000D01*
X134724505Y-143573204D01*
X134724505Y-143573204D01*
G37*
D14*
%TD*%
%TO.P,R4,2*%
%TO.N,/esp32/BOOT*%
X134350000Y-144272000D03*
D13*
%TO.N,/Vin*%
%TO.C,R4*%
G36*
X132724505Y-143573204D02*
G01*
X132748773Y-143576804D01*
X132772572Y-143582765D01*
X132795671Y-143591030D01*
X132817850Y-143601520D01*
X132838893Y-143614132D01*
X132858599Y-143628747D01*
X132876777Y-143645223D01*
X132893253Y-143663401D01*
X132907868Y-143683107D01*
X132920480Y-143704150D01*
X132930970Y-143726329D01*
X132939235Y-143749428D01*
X132945196Y-143773227D01*
X132948796Y-143797495D01*
X132950000Y-143821999D01*
X132950000Y-144722001D01*
X132948796Y-144746505D01*
X132945196Y-144770773D01*
X132939235Y-144794572D01*
X132930970Y-144817671D01*
X132920480Y-144839850D01*
X132907868Y-144860893D01*
X132893253Y-144880599D01*
X132876777Y-144898777D01*
X132858599Y-144915253D01*
X132838893Y-144929868D01*
X132817850Y-144942480D01*
X132795671Y-144952970D01*
X132772572Y-144961235D01*
X132748773Y-144967196D01*
X132724505Y-144970796D01*
X132700001Y-144972000D01*
X131999999Y-144972000D01*
X131975495Y-144970796D01*
X131951227Y-144967196D01*
X131927428Y-144961235D01*
X131904329Y-144952970D01*
X131882150Y-144942480D01*
X131861107Y-144929868D01*
X131841401Y-144915253D01*
X131823223Y-144898777D01*
X131806747Y-144880599D01*
X131792132Y-144860893D01*
X131779520Y-144839850D01*
X131769030Y-144817671D01*
X131760765Y-144794572D01*
X131754804Y-144770773D01*
X131751204Y-144746505D01*
X131750000Y-144722001D01*
X131750000Y-143821999D01*
X131751204Y-143797495D01*
X131754804Y-143773227D01*
X131760765Y-143749428D01*
X131769030Y-143726329D01*
X131779520Y-143704150D01*
X131792132Y-143683107D01*
X131806747Y-143663401D01*
X131823223Y-143645223D01*
X131841401Y-143628747D01*
X131861107Y-143614132D01*
X131882150Y-143601520D01*
X131904329Y-143591030D01*
X131927428Y-143582765D01*
X131951227Y-143576804D01*
X131975495Y-143573204D01*
X131999999Y-143572000D01*
X132700001Y-143572000D01*
X132724505Y-143573204D01*
X132724505Y-143573204D01*
G37*
D14*
%TD*%
%TO.P,R4,1*%
%TO.N,/Vin*%
X132350000Y-144272000D03*
D13*
%TO.N,/GND*%
%TO.C,C2*%
G36*
X107463984Y-111599244D02*
G01*
X107488253Y-111602844D01*
X107512051Y-111608805D01*
X107535151Y-111617070D01*
X107557329Y-111627560D01*
X107578373Y-111640173D01*
X107598078Y-111654787D01*
X107616257Y-111671263D01*
X107632733Y-111689442D01*
X107647347Y-111709147D01*
X107659960Y-111730191D01*
X107670450Y-111752369D01*
X107678715Y-111775469D01*
X107684676Y-111799267D01*
X107688276Y-111823536D01*
X107689480Y-111848040D01*
X107689480Y-112523040D01*
X107688276Y-112547544D01*
X107684676Y-112571813D01*
X107678715Y-112595611D01*
X107670450Y-112618711D01*
X107659960Y-112640889D01*
X107647347Y-112661933D01*
X107632733Y-112681638D01*
X107616257Y-112699817D01*
X107598078Y-112716293D01*
X107578373Y-112730907D01*
X107557329Y-112743520D01*
X107535151Y-112754010D01*
X107512051Y-112762275D01*
X107488253Y-112768236D01*
X107463984Y-112771836D01*
X107439480Y-112773040D01*
X106489480Y-112773040D01*
X106464976Y-112771836D01*
X106440707Y-112768236D01*
X106416909Y-112762275D01*
X106393809Y-112754010D01*
X106371631Y-112743520D01*
X106350587Y-112730907D01*
X106330882Y-112716293D01*
X106312703Y-112699817D01*
X106296227Y-112681638D01*
X106281613Y-112661933D01*
X106269000Y-112640889D01*
X106258510Y-112618711D01*
X106250245Y-112595611D01*
X106244284Y-112571813D01*
X106240684Y-112547544D01*
X106239480Y-112523040D01*
X106239480Y-111848040D01*
X106240684Y-111823536D01*
X106244284Y-111799267D01*
X106250245Y-111775469D01*
X106258510Y-111752369D01*
X106269000Y-111730191D01*
X106281613Y-111709147D01*
X106296227Y-111689442D01*
X106312703Y-111671263D01*
X106330882Y-111654787D01*
X106350587Y-111640173D01*
X106371631Y-111627560D01*
X106393809Y-111617070D01*
X106416909Y-111608805D01*
X106440707Y-111602844D01*
X106464976Y-111599244D01*
X106489480Y-111598040D01*
X107439480Y-111598040D01*
X107463984Y-111599244D01*
X107463984Y-111599244D01*
G37*
D21*
%TD*%
%TO.P,C2,2*%
%TO.N,/GND*%
X106964480Y-112185540D03*
D13*
%TO.N,/Vin*%
%TO.C,C2*%
G36*
X107463984Y-113674244D02*
G01*
X107488253Y-113677844D01*
X107512051Y-113683805D01*
X107535151Y-113692070D01*
X107557329Y-113702560D01*
X107578373Y-113715173D01*
X107598078Y-113729787D01*
X107616257Y-113746263D01*
X107632733Y-113764442D01*
X107647347Y-113784147D01*
X107659960Y-113805191D01*
X107670450Y-113827369D01*
X107678715Y-113850469D01*
X107684676Y-113874267D01*
X107688276Y-113898536D01*
X107689480Y-113923040D01*
X107689480Y-114598040D01*
X107688276Y-114622544D01*
X107684676Y-114646813D01*
X107678715Y-114670611D01*
X107670450Y-114693711D01*
X107659960Y-114715889D01*
X107647347Y-114736933D01*
X107632733Y-114756638D01*
X107616257Y-114774817D01*
X107598078Y-114791293D01*
X107578373Y-114805907D01*
X107557329Y-114818520D01*
X107535151Y-114829010D01*
X107512051Y-114837275D01*
X107488253Y-114843236D01*
X107463984Y-114846836D01*
X107439480Y-114848040D01*
X106489480Y-114848040D01*
X106464976Y-114846836D01*
X106440707Y-114843236D01*
X106416909Y-114837275D01*
X106393809Y-114829010D01*
X106371631Y-114818520D01*
X106350587Y-114805907D01*
X106330882Y-114791293D01*
X106312703Y-114774817D01*
X106296227Y-114756638D01*
X106281613Y-114736933D01*
X106269000Y-114715889D01*
X106258510Y-114693711D01*
X106250245Y-114670611D01*
X106244284Y-114646813D01*
X106240684Y-114622544D01*
X106239480Y-114598040D01*
X106239480Y-113923040D01*
X106240684Y-113898536D01*
X106244284Y-113874267D01*
X106250245Y-113850469D01*
X106258510Y-113827369D01*
X106269000Y-113805191D01*
X106281613Y-113784147D01*
X106296227Y-113764442D01*
X106312703Y-113746263D01*
X106330882Y-113729787D01*
X106350587Y-113715173D01*
X106371631Y-113702560D01*
X106393809Y-113692070D01*
X106416909Y-113683805D01*
X106440707Y-113677844D01*
X106464976Y-113674244D01*
X106489480Y-113673040D01*
X107439480Y-113673040D01*
X107463984Y-113674244D01*
X107463984Y-113674244D01*
G37*
D21*
%TD*%
%TO.P,C2,1*%
%TO.N,/Vin*%
X106964480Y-114260540D03*
D18*
%TO.P,J3,1*%
%TO.N,/Vin*%
X145161000Y-122047000D03*
D19*
%TO.P,J3,2*%
%TO.N,/esp32/TX*%
X145161000Y-119507000D03*
%TO.P,J3,3*%
%TO.N,/esp32/RX*%
X145161000Y-116967000D03*
%TO.P,J3,4*%
%TO.N,/GND*%
X145161000Y-114427000D03*
%TD*%
D13*
%TO.N,/GND*%
%TO.C,D2*%
G36*
X106004505Y-159321204D02*
G01*
X106028773Y-159324804D01*
X106052572Y-159330765D01*
X106075671Y-159339030D01*
X106097850Y-159349520D01*
X106118893Y-159362132D01*
X106138599Y-159376747D01*
X106156777Y-159393223D01*
X106173253Y-159411401D01*
X106187868Y-159431107D01*
X106200480Y-159452150D01*
X106210970Y-159474329D01*
X106219235Y-159497428D01*
X106225196Y-159521227D01*
X106228796Y-159545495D01*
X106230000Y-159569999D01*
X106230000Y-160470001D01*
X106228796Y-160494505D01*
X106225196Y-160518773D01*
X106219235Y-160542572D01*
X106210970Y-160565671D01*
X106200480Y-160587850D01*
X106187868Y-160608893D01*
X106173253Y-160628599D01*
X106156777Y-160646777D01*
X106138599Y-160663253D01*
X106118893Y-160677868D01*
X106097850Y-160690480D01*
X106075671Y-160700970D01*
X106052572Y-160709235D01*
X106028773Y-160715196D01*
X106004505Y-160718796D01*
X105980001Y-160720000D01*
X105329999Y-160720000D01*
X105305495Y-160718796D01*
X105281227Y-160715196D01*
X105257428Y-160709235D01*
X105234329Y-160700970D01*
X105212150Y-160690480D01*
X105191107Y-160677868D01*
X105171401Y-160663253D01*
X105153223Y-160646777D01*
X105136747Y-160628599D01*
X105122132Y-160608893D01*
X105109520Y-160587850D01*
X105099030Y-160565671D01*
X105090765Y-160542572D01*
X105084804Y-160518773D01*
X105081204Y-160494505D01*
X105080000Y-160470001D01*
X105080000Y-159569999D01*
X105081204Y-159545495D01*
X105084804Y-159521227D01*
X105090765Y-159497428D01*
X105099030Y-159474329D01*
X105109520Y-159452150D01*
X105122132Y-159431107D01*
X105136747Y-159411401D01*
X105153223Y-159393223D01*
X105171401Y-159376747D01*
X105191107Y-159362132D01*
X105212150Y-159349520D01*
X105234329Y-159339030D01*
X105257428Y-159330765D01*
X105281227Y-159324804D01*
X105305495Y-159321204D01*
X105329999Y-159320000D01*
X105980001Y-159320000D01*
X106004505Y-159321204D01*
X106004505Y-159321204D01*
G37*
D22*
%TD*%
%TO.P,D2,1*%
%TO.N,/GND*%
X105655000Y-160020000D03*
D13*
%TO.N,Net-(D2-Pad2)*%
%TO.C,D2*%
G36*
X108054505Y-159321204D02*
G01*
X108078773Y-159324804D01*
X108102572Y-159330765D01*
X108125671Y-159339030D01*
X108147850Y-159349520D01*
X108168893Y-159362132D01*
X108188599Y-159376747D01*
X108206777Y-159393223D01*
X108223253Y-159411401D01*
X108237868Y-159431107D01*
X108250480Y-159452150D01*
X108260970Y-159474329D01*
X108269235Y-159497428D01*
X108275196Y-159521227D01*
X108278796Y-159545495D01*
X108280000Y-159569999D01*
X108280000Y-160470001D01*
X108278796Y-160494505D01*
X108275196Y-160518773D01*
X108269235Y-160542572D01*
X108260970Y-160565671D01*
X108250480Y-160587850D01*
X108237868Y-160608893D01*
X108223253Y-160628599D01*
X108206777Y-160646777D01*
X108188599Y-160663253D01*
X108168893Y-160677868D01*
X108147850Y-160690480D01*
X108125671Y-160700970D01*
X108102572Y-160709235D01*
X108078773Y-160715196D01*
X108054505Y-160718796D01*
X108030001Y-160720000D01*
X107379999Y-160720000D01*
X107355495Y-160718796D01*
X107331227Y-160715196D01*
X107307428Y-160709235D01*
X107284329Y-160700970D01*
X107262150Y-160690480D01*
X107241107Y-160677868D01*
X107221401Y-160663253D01*
X107203223Y-160646777D01*
X107186747Y-160628599D01*
X107172132Y-160608893D01*
X107159520Y-160587850D01*
X107149030Y-160565671D01*
X107140765Y-160542572D01*
X107134804Y-160518773D01*
X107131204Y-160494505D01*
X107130000Y-160470001D01*
X107130000Y-159569999D01*
X107131204Y-159545495D01*
X107134804Y-159521227D01*
X107140765Y-159497428D01*
X107149030Y-159474329D01*
X107159520Y-159452150D01*
X107172132Y-159431107D01*
X107186747Y-159411401D01*
X107203223Y-159393223D01*
X107221401Y-159376747D01*
X107241107Y-159362132D01*
X107262150Y-159349520D01*
X107284329Y-159339030D01*
X107307428Y-159330765D01*
X107331227Y-159324804D01*
X107355495Y-159321204D01*
X107379999Y-159320000D01*
X108030001Y-159320000D01*
X108054505Y-159321204D01*
X108054505Y-159321204D01*
G37*
D22*
%TD*%
%TO.P,D2,2*%
%TO.N,Net-(D2-Pad2)*%
X107705000Y-160020000D03*
D13*
%TO.N,/esp32/EN*%
%TO.C,C3*%
G36*
X102861504Y-125524704D02*
G01*
X102885773Y-125528304D01*
X102909571Y-125534265D01*
X102932671Y-125542530D01*
X102954849Y-125553020D01*
X102975893Y-125565633D01*
X102995598Y-125580247D01*
X103013777Y-125596723D01*
X103030253Y-125614902D01*
X103044867Y-125634607D01*
X103057480Y-125655651D01*
X103067970Y-125677829D01*
X103076235Y-125700929D01*
X103082196Y-125724727D01*
X103085796Y-125748996D01*
X103087000Y-125773500D01*
X103087000Y-126448500D01*
X103085796Y-126473004D01*
X103082196Y-126497273D01*
X103076235Y-126521071D01*
X103067970Y-126544171D01*
X103057480Y-126566349D01*
X103044867Y-126587393D01*
X103030253Y-126607098D01*
X103013777Y-126625277D01*
X102995598Y-126641753D01*
X102975893Y-126656367D01*
X102954849Y-126668980D01*
X102932671Y-126679470D01*
X102909571Y-126687735D01*
X102885773Y-126693696D01*
X102861504Y-126697296D01*
X102837000Y-126698500D01*
X101887000Y-126698500D01*
X101862496Y-126697296D01*
X101838227Y-126693696D01*
X101814429Y-126687735D01*
X101791329Y-126679470D01*
X101769151Y-126668980D01*
X101748107Y-126656367D01*
X101728402Y-126641753D01*
X101710223Y-126625277D01*
X101693747Y-126607098D01*
X101679133Y-126587393D01*
X101666520Y-126566349D01*
X101656030Y-126544171D01*
X101647765Y-126521071D01*
X101641804Y-126497273D01*
X101638204Y-126473004D01*
X101637000Y-126448500D01*
X101637000Y-125773500D01*
X101638204Y-125748996D01*
X101641804Y-125724727D01*
X101647765Y-125700929D01*
X101656030Y-125677829D01*
X101666520Y-125655651D01*
X101679133Y-125634607D01*
X101693747Y-125614902D01*
X101710223Y-125596723D01*
X101728402Y-125580247D01*
X101748107Y-125565633D01*
X101769151Y-125553020D01*
X101791329Y-125542530D01*
X101814429Y-125534265D01*
X101838227Y-125528304D01*
X101862496Y-125524704D01*
X101887000Y-125523500D01*
X102837000Y-125523500D01*
X102861504Y-125524704D01*
X102861504Y-125524704D01*
G37*
D21*
%TD*%
%TO.P,C3,1*%
%TO.N,/esp32/EN*%
X102362000Y-126111000D03*
D13*
%TO.N,Net-(C3-Pad2)*%
%TO.C,C3*%
G36*
X102861504Y-127599704D02*
G01*
X102885773Y-127603304D01*
X102909571Y-127609265D01*
X102932671Y-127617530D01*
X102954849Y-127628020D01*
X102975893Y-127640633D01*
X102995598Y-127655247D01*
X103013777Y-127671723D01*
X103030253Y-127689902D01*
X103044867Y-127709607D01*
X103057480Y-127730651D01*
X103067970Y-127752829D01*
X103076235Y-127775929D01*
X103082196Y-127799727D01*
X103085796Y-127823996D01*
X103087000Y-127848500D01*
X103087000Y-128523500D01*
X103085796Y-128548004D01*
X103082196Y-128572273D01*
X103076235Y-128596071D01*
X103067970Y-128619171D01*
X103057480Y-128641349D01*
X103044867Y-128662393D01*
X103030253Y-128682098D01*
X103013777Y-128700277D01*
X102995598Y-128716753D01*
X102975893Y-128731367D01*
X102954849Y-128743980D01*
X102932671Y-128754470D01*
X102909571Y-128762735D01*
X102885773Y-128768696D01*
X102861504Y-128772296D01*
X102837000Y-128773500D01*
X101887000Y-128773500D01*
X101862496Y-128772296D01*
X101838227Y-128768696D01*
X101814429Y-128762735D01*
X101791329Y-128754470D01*
X101769151Y-128743980D01*
X101748107Y-128731367D01*
X101728402Y-128716753D01*
X101710223Y-128700277D01*
X101693747Y-128682098D01*
X101679133Y-128662393D01*
X101666520Y-128641349D01*
X101656030Y-128619171D01*
X101647765Y-128596071D01*
X101641804Y-128572273D01*
X101638204Y-128548004D01*
X101637000Y-128523500D01*
X101637000Y-127848500D01*
X101638204Y-127823996D01*
X101641804Y-127799727D01*
X101647765Y-127775929D01*
X101656030Y-127752829D01*
X101666520Y-127730651D01*
X101679133Y-127709607D01*
X101693747Y-127689902D01*
X101710223Y-127671723D01*
X101728402Y-127655247D01*
X101748107Y-127640633D01*
X101769151Y-127628020D01*
X101791329Y-127617530D01*
X101814429Y-127609265D01*
X101838227Y-127603304D01*
X101862496Y-127599704D01*
X101887000Y-127598500D01*
X102837000Y-127598500D01*
X102861504Y-127599704D01*
X102861504Y-127599704D01*
G37*
D21*
%TD*%
%TO.P,C3,2*%
%TO.N,Net-(C3-Pad2)*%
X102362000Y-128186000D03*
D13*
%TO.N,/GND*%
%TO.C,C1*%
G36*
X86605504Y-113670704D02*
G01*
X86629773Y-113674304D01*
X86653571Y-113680265D01*
X86676671Y-113688530D01*
X86698849Y-113699020D01*
X86719893Y-113711633D01*
X86739598Y-113726247D01*
X86757777Y-113742723D01*
X86774253Y-113760902D01*
X86788867Y-113780607D01*
X86801480Y-113801651D01*
X86811970Y-113823829D01*
X86820235Y-113846929D01*
X86826196Y-113870727D01*
X86829796Y-113894996D01*
X86831000Y-113919500D01*
X86831000Y-114594500D01*
X86829796Y-114619004D01*
X86826196Y-114643273D01*
X86820235Y-114667071D01*
X86811970Y-114690171D01*
X86801480Y-114712349D01*
X86788867Y-114733393D01*
X86774253Y-114753098D01*
X86757777Y-114771277D01*
X86739598Y-114787753D01*
X86719893Y-114802367D01*
X86698849Y-114814980D01*
X86676671Y-114825470D01*
X86653571Y-114833735D01*
X86629773Y-114839696D01*
X86605504Y-114843296D01*
X86581000Y-114844500D01*
X85631000Y-114844500D01*
X85606496Y-114843296D01*
X85582227Y-114839696D01*
X85558429Y-114833735D01*
X85535329Y-114825470D01*
X85513151Y-114814980D01*
X85492107Y-114802367D01*
X85472402Y-114787753D01*
X85454223Y-114771277D01*
X85437747Y-114753098D01*
X85423133Y-114733393D01*
X85410520Y-114712349D01*
X85400030Y-114690171D01*
X85391765Y-114667071D01*
X85385804Y-114643273D01*
X85382204Y-114619004D01*
X85381000Y-114594500D01*
X85381000Y-113919500D01*
X85382204Y-113894996D01*
X85385804Y-113870727D01*
X85391765Y-113846929D01*
X85400030Y-113823829D01*
X85410520Y-113801651D01*
X85423133Y-113780607D01*
X85437747Y-113760902D01*
X85454223Y-113742723D01*
X85472402Y-113726247D01*
X85492107Y-113711633D01*
X85513151Y-113699020D01*
X85535329Y-113688530D01*
X85558429Y-113680265D01*
X85582227Y-113674304D01*
X85606496Y-113670704D01*
X85631000Y-113669500D01*
X86581000Y-113669500D01*
X86605504Y-113670704D01*
X86605504Y-113670704D01*
G37*
D21*
%TD*%
%TO.P,C1,2*%
%TO.N,/GND*%
X86106000Y-114257000D03*
D13*
%TO.N,/Vbat*%
%TO.C,C1*%
G36*
X86605504Y-115745704D02*
G01*
X86629773Y-115749304D01*
X86653571Y-115755265D01*
X86676671Y-115763530D01*
X86698849Y-115774020D01*
X86719893Y-115786633D01*
X86739598Y-115801247D01*
X86757777Y-115817723D01*
X86774253Y-115835902D01*
X86788867Y-115855607D01*
X86801480Y-115876651D01*
X86811970Y-115898829D01*
X86820235Y-115921929D01*
X86826196Y-115945727D01*
X86829796Y-115969996D01*
X86831000Y-115994500D01*
X86831000Y-116669500D01*
X86829796Y-116694004D01*
X86826196Y-116718273D01*
X86820235Y-116742071D01*
X86811970Y-116765171D01*
X86801480Y-116787349D01*
X86788867Y-116808393D01*
X86774253Y-116828098D01*
X86757777Y-116846277D01*
X86739598Y-116862753D01*
X86719893Y-116877367D01*
X86698849Y-116889980D01*
X86676671Y-116900470D01*
X86653571Y-116908735D01*
X86629773Y-116914696D01*
X86605504Y-116918296D01*
X86581000Y-116919500D01*
X85631000Y-116919500D01*
X85606496Y-116918296D01*
X85582227Y-116914696D01*
X85558429Y-116908735D01*
X85535329Y-116900470D01*
X85513151Y-116889980D01*
X85492107Y-116877367D01*
X85472402Y-116862753D01*
X85454223Y-116846277D01*
X85437747Y-116828098D01*
X85423133Y-116808393D01*
X85410520Y-116787349D01*
X85400030Y-116765171D01*
X85391765Y-116742071D01*
X85385804Y-116718273D01*
X85382204Y-116694004D01*
X85381000Y-116669500D01*
X85381000Y-115994500D01*
X85382204Y-115969996D01*
X85385804Y-115945727D01*
X85391765Y-115921929D01*
X85400030Y-115898829D01*
X85410520Y-115876651D01*
X85423133Y-115855607D01*
X85437747Y-115835902D01*
X85454223Y-115817723D01*
X85472402Y-115801247D01*
X85492107Y-115786633D01*
X85513151Y-115774020D01*
X85535329Y-115763530D01*
X85558429Y-115755265D01*
X85582227Y-115749304D01*
X85606496Y-115745704D01*
X85631000Y-115744500D01*
X86581000Y-115744500D01*
X86605504Y-115745704D01*
X86605504Y-115745704D01*
G37*
D21*
%TD*%
%TO.P,C1,1*%
%TO.N,/Vbat*%
X86106000Y-116332000D03*
D23*
%TO.P,U2,14*%
%TO.N,/esp32/READ_BATT_V*%
X111346001Y-129516001D03*
%TO.P,U2,13*%
%TO.N,Net-(U2-Pad13)*%
X111346001Y-128246001D03*
%TO.P,U2,12*%
%TO.N,/esp32/BATT_V*%
X111346001Y-126976001D03*
%TO.P,U2,11*%
%TO.N,/esp32/GNRL_PURPOSE_2*%
X111346001Y-125706001D03*
%TO.P,U2,10*%
%TO.N,/esp32/GNRL_PURPOSE_1*%
X111346001Y-124436001D03*
%TO.P,U2,9*%
%TO.N,Net-(U2-Pad9)*%
X111346001Y-123166001D03*
%TO.P,U2,8*%
%TO.N,Net-(U2-Pad8)*%
X111346001Y-121896001D03*
%TO.P,U2,7*%
%TO.N,/esp32/NO_WIFI_CONNECTION*%
X111346001Y-120626001D03*
%TO.P,U2,6*%
%TO.N,/esp32/WIFI_CONNECTION*%
X111346001Y-119356001D03*
%TO.P,U2,5*%
%TO.N,Net-(U2-Pad5)*%
X111346001Y-118086001D03*
%TO.P,U2,4*%
%TO.N,Net-(U2-Pad4)*%
X111346001Y-116816001D03*
%TO.P,U2,3*%
%TO.N,/esp32/EN*%
X111346001Y-115546001D03*
%TO.P,U2,2*%
%TO.N,/Vin*%
X111346001Y-114276001D03*
%TO.P,U2,1*%
%TO.N,/GND*%
X111346001Y-113006001D03*
D24*
%TO.P,U2,15*%
X114376001Y-130766001D03*
%TO.P,U2,16*%
%TO.N,Net-(U2-Pad16)*%
X115646001Y-130766001D03*
%TO.P,U2,17*%
%TO.N,Net-(U2-Pad17)*%
X116916001Y-130766001D03*
%TO.P,U2,18*%
%TO.N,Net-(U2-Pad18)*%
X118186001Y-130766001D03*
%TO.P,U2,19*%
%TO.N,Net-(U2-Pad19)*%
X119456001Y-130766001D03*
%TO.P,U2,20*%
%TO.N,Net-(U2-Pad20)*%
X120726001Y-130766001D03*
%TO.P,U2,21*%
%TO.N,Net-(U2-Pad21)*%
X121996001Y-130766001D03*
%TO.P,U2,22*%
%TO.N,Net-(U2-Pad22)*%
X123266001Y-130766001D03*
%TO.P,U2,23*%
%TO.N,/esp32/CLK_SENSOR*%
X124536001Y-130766001D03*
%TO.P,U2,24*%
%TO.N,/esp32/DATA_OUT_DTH22_SENSOR*%
X125806001Y-130766001D03*
D23*
%TO.P,U2,25*%
%TO.N,/esp32/BOOT*%
X128846001Y-129516001D03*
%TO.P,U2,26*%
%TO.N,Net-(U2-Pad26)*%
X128846001Y-128246001D03*
%TO.P,U2,27*%
%TO.N,Net-(U2-Pad27)*%
X128846001Y-126976001D03*
%TO.P,U2,28*%
%TO.N,Net-(U2-Pad28)*%
X128846001Y-125706001D03*
%TO.P,U2,29*%
%TO.N,/esp32/CS*%
X128846001Y-124436001D03*
%TO.P,U2,30*%
%TO.N,/esp32/CLK*%
X128846001Y-123166001D03*
%TO.P,U2,31*%
%TO.N,/esp32/MISO*%
X128846001Y-121896001D03*
%TO.P,U2,32*%
%TO.N,Net-(U2-Pad32)*%
X128846001Y-120626001D03*
%TO.P,U2,33*%
%TO.N,Net-(U2-Pad33)*%
X128846001Y-119356001D03*
%TO.P,U2,34*%
%TO.N,/esp32/TX*%
X128846001Y-118086001D03*
%TO.P,U2,35*%
%TO.N,/esp32/RX*%
X128846001Y-116816001D03*
%TO.P,U2,36*%
%TO.N,Net-(U2-Pad36)*%
X128846001Y-115546001D03*
%TO.P,U2,37*%
%TO.N,/esp32/MOSI*%
X128846001Y-114276001D03*
%TO.P,U2,38*%
%TO.N,/GND*%
X128846001Y-113006001D03*
D25*
%TO.P,U2,39*%
%TO.N,Net-(U2-Pad39)*%
X119416001Y-120346001D03*
X120941001Y-120346001D03*
X117891001Y-120346001D03*
X117891001Y-121871001D03*
X119416001Y-121871001D03*
X120941001Y-121871001D03*
X120941001Y-118821001D03*
X119416001Y-118821001D03*
X117891001Y-118821001D03*
%TD*%
D19*
%TO.P,J5,3*%
%TO.N,/GND*%
X78740000Y-141478000D03*
%TO.P,J5,2*%
%TO.N,/esp32/GNRL_PURPOSE_2*%
X78740000Y-138938000D03*
D18*
%TO.P,J5,1*%
%TO.N,/Vin*%
X78740000Y-136398000D03*
%TD*%
%TO.P,J4,1*%
%TO.N,/esp32/CS*%
X145034000Y-141097000D03*
D19*
%TO.P,J4,2*%
%TO.N,/esp32/CLK*%
X145034000Y-138557000D03*
%TO.P,J4,3*%
%TO.N,/esp32/MOSI*%
X145034000Y-136017000D03*
%TO.P,J4,4*%
%TO.N,/esp32/MISO*%
X145034000Y-133477000D03*
%TO.P,J4,5*%
%TO.N,/Vin*%
X145034000Y-130937000D03*
%TO.P,J4,6*%
%TO.N,/GND*%
X145034000Y-128397000D03*
%TD*%
D18*
%TO.P,J1,1*%
%TO.N,/GND*%
X78486000Y-113284000D03*
D19*
%TO.P,J1,2*%
%TO.N,/Vbat*%
X78486000Y-115824000D03*
%TD*%
%TO.P,J2,4*%
%TO.N,/GND*%
X120904000Y-156972000D03*
%TO.P,J2,3*%
%TO.N,/esp32/CLK_SENSOR*%
X123444000Y-156972000D03*
%TO.P,J2,2*%
%TO.N,/esp32/DATA_OUT_DTH22_SENSOR*%
X125984000Y-156972000D03*
D18*
%TO.P,J2,1*%
%TO.N,/Vin*%
X128524000Y-156972000D03*
%TD*%
D13*
%TO.N,Net-(D1-Pad2)*%
%TO.C,D1*%
G36*
X113379505Y-159321204D02*
G01*
X113403773Y-159324804D01*
X113427572Y-159330765D01*
X113450671Y-159339030D01*
X113472850Y-159349520D01*
X113493893Y-159362132D01*
X113513599Y-159376747D01*
X113531777Y-159393223D01*
X113548253Y-159411401D01*
X113562868Y-159431107D01*
X113575480Y-159452150D01*
X113585970Y-159474329D01*
X113594235Y-159497428D01*
X113600196Y-159521227D01*
X113603796Y-159545495D01*
X113605000Y-159569999D01*
X113605000Y-160470001D01*
X113603796Y-160494505D01*
X113600196Y-160518773D01*
X113594235Y-160542572D01*
X113585970Y-160565671D01*
X113575480Y-160587850D01*
X113562868Y-160608893D01*
X113548253Y-160628599D01*
X113531777Y-160646777D01*
X113513599Y-160663253D01*
X113493893Y-160677868D01*
X113472850Y-160690480D01*
X113450671Y-160700970D01*
X113427572Y-160709235D01*
X113403773Y-160715196D01*
X113379505Y-160718796D01*
X113355001Y-160720000D01*
X112704999Y-160720000D01*
X112680495Y-160718796D01*
X112656227Y-160715196D01*
X112632428Y-160709235D01*
X112609329Y-160700970D01*
X112587150Y-160690480D01*
X112566107Y-160677868D01*
X112546401Y-160663253D01*
X112528223Y-160646777D01*
X112511747Y-160628599D01*
X112497132Y-160608893D01*
X112484520Y-160587850D01*
X112474030Y-160565671D01*
X112465765Y-160542572D01*
X112459804Y-160518773D01*
X112456204Y-160494505D01*
X112455000Y-160470001D01*
X112455000Y-159569999D01*
X112456204Y-159545495D01*
X112459804Y-159521227D01*
X112465765Y-159497428D01*
X112474030Y-159474329D01*
X112484520Y-159452150D01*
X112497132Y-159431107D01*
X112511747Y-159411401D01*
X112528223Y-159393223D01*
X112546401Y-159376747D01*
X112566107Y-159362132D01*
X112587150Y-159349520D01*
X112609329Y-159339030D01*
X112632428Y-159330765D01*
X112656227Y-159324804D01*
X112680495Y-159321204D01*
X112704999Y-159320000D01*
X113355001Y-159320000D01*
X113379505Y-159321204D01*
X113379505Y-159321204D01*
G37*
D22*
%TD*%
%TO.P,D1,2*%
%TO.N,Net-(D1-Pad2)*%
X113030000Y-160020000D03*
D13*
%TO.N,/GND*%
%TO.C,D1*%
G36*
X111329505Y-159321204D02*
G01*
X111353773Y-159324804D01*
X111377572Y-159330765D01*
X111400671Y-159339030D01*
X111422850Y-159349520D01*
X111443893Y-159362132D01*
X111463599Y-159376747D01*
X111481777Y-159393223D01*
X111498253Y-159411401D01*
X111512868Y-159431107D01*
X111525480Y-159452150D01*
X111535970Y-159474329D01*
X111544235Y-159497428D01*
X111550196Y-159521227D01*
X111553796Y-159545495D01*
X111555000Y-159569999D01*
X111555000Y-160470001D01*
X111553796Y-160494505D01*
X111550196Y-160518773D01*
X111544235Y-160542572D01*
X111535970Y-160565671D01*
X111525480Y-160587850D01*
X111512868Y-160608893D01*
X111498253Y-160628599D01*
X111481777Y-160646777D01*
X111463599Y-160663253D01*
X111443893Y-160677868D01*
X111422850Y-160690480D01*
X111400671Y-160700970D01*
X111377572Y-160709235D01*
X111353773Y-160715196D01*
X111329505Y-160718796D01*
X111305001Y-160720000D01*
X110654999Y-160720000D01*
X110630495Y-160718796D01*
X110606227Y-160715196D01*
X110582428Y-160709235D01*
X110559329Y-160700970D01*
X110537150Y-160690480D01*
X110516107Y-160677868D01*
X110496401Y-160663253D01*
X110478223Y-160646777D01*
X110461747Y-160628599D01*
X110447132Y-160608893D01*
X110434520Y-160587850D01*
X110424030Y-160565671D01*
X110415765Y-160542572D01*
X110409804Y-160518773D01*
X110406204Y-160494505D01*
X110405000Y-160470001D01*
X110405000Y-159569999D01*
X110406204Y-159545495D01*
X110409804Y-159521227D01*
X110415765Y-159497428D01*
X110424030Y-159474329D01*
X110434520Y-159452150D01*
X110447132Y-159431107D01*
X110461747Y-159411401D01*
X110478223Y-159393223D01*
X110496401Y-159376747D01*
X110516107Y-159362132D01*
X110537150Y-159349520D01*
X110559329Y-159339030D01*
X110582428Y-159330765D01*
X110606227Y-159324804D01*
X110630495Y-159321204D01*
X110654999Y-159320000D01*
X111305001Y-159320000D01*
X111329505Y-159321204D01*
X111329505Y-159321204D01*
G37*
D22*
%TD*%
%TO.P,D1,1*%
%TO.N,/GND*%
X110980000Y-160020000D03*
D26*
%TO.N,/GND*%
X114300000Y-152400000D03*
D27*
X81915000Y-137795000D03*
D26*
X111760000Y-156845000D03*
%TO.N,/Vin*%
X105410000Y-153035000D03*
X106680000Y-141605000D03*
D27*
%TO.N,Net-(C3-Pad2)*%
X111760000Y-139065000D03*
X104140000Y-128905000D03*
%TO.N,Net-(D1-Pad2)*%
X117475000Y-154940000D03*
X113075720Y-138130280D03*
%TO.N,/esp32/MOSI*%
X131445000Y-115570000D03*
%TO.N,/esp32/GNRL_PURPOSE_2*%
X101600000Y-134620000D03*
X106649520Y-134711440D03*
%TO.N,/esp32/GNRL_PURPOSE_1*%
X108585000Y-124460000D03*
X97977960Y-126095760D03*
%TO.N,/esp32/WIFI_CONNECTION*%
X102870000Y-130810000D03*
X103087000Y-124550000D03*
%TO.N,/esp32/NO_WIFI_CONNECTION*%
X105410000Y-139700000D03*
X105410000Y-136525000D03*
%TO.N,/esp32/BATT_V*%
X107960160Y-147106640D03*
X107950000Y-136525000D03*
%TD*%
D28*
%TO.N,/GND*%
X111346001Y-113006001D02*
X128846001Y-113006001D01*
X110220000Y-151130000D02*
X113030000Y-151130000D01*
X113030000Y-151130000D02*
X114300000Y-152400000D01*
X106680000Y-161925000D02*
X109075000Y-161925000D01*
X109075000Y-161925000D02*
X110980000Y-160020000D01*
X105655000Y-160900000D02*
X106680000Y-161925000D01*
X105655000Y-160020000D02*
X105655000Y-160900000D01*
X83185000Y-154940000D02*
X78740000Y-150495000D01*
X78740000Y-150495000D02*
X78740000Y-141478000D01*
X101600000Y-154940000D02*
X83185000Y-154940000D01*
X105655000Y-158995000D02*
X101600000Y-154940000D01*
X105655000Y-160020000D02*
X105655000Y-158995000D01*
X81915000Y-133477000D02*
X81915000Y-137795000D01*
X78740000Y-130302000D02*
X81915000Y-133477000D01*
X111760000Y-156845000D02*
X110980000Y-157625000D01*
X111346001Y-113006001D02*
X110525540Y-112185540D01*
X100965000Y-112395000D02*
X101174460Y-112185540D01*
X101174460Y-112185540D02*
X106964480Y-112185540D01*
X122682000Y-158750000D02*
X120904000Y-156972000D01*
X132370000Y-157190000D02*
X130810000Y-158750000D01*
X134201000Y-157190000D02*
X132370000Y-157190000D01*
X134201000Y-157190000D02*
X142151000Y-157190000D01*
X132715000Y-114935000D02*
X130786001Y-113006001D01*
X130786001Y-113006001D02*
X128846001Y-113006001D01*
X110980000Y-157625000D02*
X110980000Y-160020000D01*
X130810000Y-158750000D02*
X122682000Y-158750000D01*
X100965000Y-112395000D02*
X91197000Y-112395000D01*
X91197000Y-112395000D02*
X90576000Y-113016000D01*
X87673000Y-114257000D02*
X88914000Y-113016000D01*
X88914000Y-113016000D02*
X90576000Y-113016000D01*
X86106000Y-114257000D02*
X87673000Y-114257000D01*
X82804000Y-113284000D02*
X83777000Y-114257000D01*
X83777000Y-114257000D02*
X86106000Y-114257000D01*
X78486000Y-113284000D02*
X82804000Y-113284000D01*
X110525540Y-112185540D02*
X106964480Y-112185540D01*
%TO.N,/Vbat*%
X86106000Y-116332000D02*
X86868000Y-116332000D01*
X81534000Y-115824000D02*
X82042000Y-116332000D01*
X82042000Y-116332000D02*
X86106000Y-116332000D01*
X78486000Y-115824000D02*
X81534000Y-115824000D01*
X88646000Y-118110000D02*
X90082000Y-118110000D01*
X90082000Y-118110000D02*
X90576000Y-117616000D01*
X86868000Y-116332000D02*
X88646000Y-118110000D01*
%TO.N,/Vin*%
X90576000Y-115316000D02*
X96876000Y-115316000D01*
X103374460Y-114260540D02*
X106964480Y-114260540D01*
X108063001Y-141085001D02*
X108063001Y-141885001D01*
X96876000Y-115316000D02*
X102319000Y-115316000D01*
X106964480Y-114260540D02*
X110762049Y-114260540D01*
X110762049Y-114260540D02*
X110797509Y-114296000D01*
X102319000Y-115316000D02*
X103374460Y-114260540D01*
X108763011Y-142585011D02*
X111245011Y-142585011D01*
X96876000Y-116216000D02*
X96876000Y-115316000D01*
X92710000Y-120015000D02*
X93077000Y-120015000D01*
X93077000Y-120015000D02*
X96876000Y-116216000D01*
X108220000Y-153670000D02*
X106045000Y-153670000D01*
X106045000Y-153670000D02*
X105410000Y-153035000D01*
X108063001Y-141085001D02*
X107199999Y-141085001D01*
X107199999Y-141085001D02*
X106680000Y-141605000D01*
X132350000Y-148320000D02*
X128524000Y-152146000D01*
X128524000Y-152146000D02*
X128524000Y-156972000D01*
X132350000Y-144272000D02*
X132350000Y-148320000D01*
X94959000Y-115316000D02*
X94705000Y-115570000D01*
X78740000Y-125222000D02*
X82423000Y-125222000D01*
X91440000Y-121285000D02*
X92710000Y-120015000D01*
X82423000Y-125222000D02*
X86360000Y-121285000D01*
X86360000Y-121285000D02*
X91440000Y-121285000D01*
X108063001Y-141885001D02*
X108763011Y-142585011D01*
X117348000Y-141755998D02*
X117348000Y-142646000D01*
X116438001Y-140845999D02*
X117348000Y-141755998D01*
X112984023Y-140845999D02*
X116438001Y-140845999D01*
X111245011Y-142585011D02*
X112984023Y-140845999D01*
X117348000Y-142646000D02*
X117348000Y-148946000D01*
D29*
%TO.N,/esp32/EN*%
X111346001Y-115546001D02*
X106703999Y-115546001D01*
X100112000Y-122138000D02*
X100112000Y-124877000D01*
X106703999Y-115546001D02*
X100112000Y-122138000D01*
X88227000Y-124877000D02*
X96177000Y-124877000D01*
X100112000Y-124877000D02*
X101346000Y-126111000D01*
X101346000Y-126111000D02*
X102362000Y-126111000D01*
X96177000Y-124877000D02*
X100112000Y-124877000D01*
%TO.N,Net-(C3-Pad2)*%
X111760000Y-139065000D02*
X110063001Y-140761999D01*
X110063001Y-140761999D02*
X110063001Y-141085001D01*
X103421000Y-128186000D02*
X104140000Y-128905000D01*
X102362000Y-128186000D02*
X103421000Y-128186000D01*
X88227000Y-129377000D02*
X96177000Y-129377000D01*
X99858000Y-129377000D02*
X101049000Y-128186000D01*
X101049000Y-128186000D02*
X102362000Y-128186000D01*
X96177000Y-129377000D02*
X99858000Y-129377000D01*
%TO.N,Net-(D1-Pad2)*%
X111638717Y-137780281D02*
X112725721Y-137780281D01*
X112725721Y-137780281D02*
X113075720Y-138130280D01*
X110063001Y-138135001D02*
X111283997Y-138135001D01*
X111283997Y-138135001D02*
X111638717Y-137780281D01*
X114300000Y-160020000D02*
X117475000Y-156845000D01*
X117475000Y-156845000D02*
X117475000Y-154940000D01*
X113030000Y-160020000D02*
X114300000Y-160020000D01*
X110063001Y-138135001D02*
X110149999Y-138135001D01*
%TO.N,Net-(D2-Pad2)*%
X110296200Y-145585080D02*
X110296200Y-144785080D01*
X107575708Y-146085090D02*
X109796190Y-146085090D01*
X104140000Y-149520798D02*
X107575708Y-146085090D01*
X109796190Y-146085090D02*
X110296200Y-145585080D01*
X104140000Y-154940000D02*
X104140000Y-149520798D01*
X107950000Y-158750000D02*
X107950000Y-159775000D01*
X107950000Y-159775000D02*
X107705000Y-160020000D01*
X104140000Y-154940000D02*
X107950000Y-158750000D01*
%TO.N,/esp32/CLK_SENSOR*%
X126365000Y-135255000D02*
X124536001Y-133426001D01*
X124536001Y-133426001D02*
X124536001Y-130766001D01*
X126365000Y-147828000D02*
X126365000Y-135255000D01*
X123444000Y-150749000D02*
X126365000Y-147828000D01*
X123444000Y-156972000D02*
X123444000Y-150749000D01*
%TO.N,/esp32/DATA_OUT_DTH22_SENSOR*%
X128905000Y-148590000D02*
X128905000Y-133865000D01*
X128905000Y-133865000D02*
X125806001Y-130766001D01*
X125984000Y-151511000D02*
X128905000Y-148590000D01*
X125984000Y-156972000D02*
X125984000Y-151511000D01*
%TO.N,/esp32/TX*%
X130053080Y-118110000D02*
X130029081Y-118086001D01*
X137160000Y-118110000D02*
X137136001Y-118086001D01*
X130029081Y-118086001D02*
X128846001Y-118086001D01*
X137160000Y-118110000D02*
X130053080Y-118110000D01*
X137160000Y-118110000D02*
X137668000Y-118110000D01*
X139065000Y-119507000D02*
X145161000Y-119507000D01*
X137668000Y-118110000D02*
X139065000Y-119507000D01*
%TO.N,/esp32/RX*%
X145010001Y-116816001D02*
X145161000Y-116967000D01*
X128846001Y-116816001D02*
X145010001Y-116816001D01*
%TO.N,/esp32/CS*%
X128846001Y-124436001D02*
X130193195Y-124436001D01*
X130193195Y-124436001D02*
X137275989Y-131518795D01*
X137275989Y-131518795D02*
X137275989Y-134788989D01*
X137275989Y-134788989D02*
X143584000Y-141097000D01*
X143584000Y-141097000D02*
X145034000Y-141097000D01*
%TO.N,/esp32/CLK*%
X130196001Y-123166001D02*
X138176000Y-131146000D01*
X128846001Y-123166001D02*
X130196001Y-123166001D01*
X138176000Y-131146000D02*
X138176000Y-133985000D01*
X142748000Y-138557000D02*
X145034000Y-138557000D01*
X138176000Y-133985000D02*
X142748000Y-138557000D01*
%TO.N,/esp32/MOSI*%
X131445000Y-115570000D02*
X130151001Y-114276001D01*
X130151001Y-114276001D02*
X128846001Y-114276001D01*
%TO.N,/esp32/MISO*%
X128846001Y-121896001D02*
X130913001Y-121896001D01*
X142494000Y-133477000D02*
X145034000Y-133477000D01*
X130913001Y-121896001D02*
X142494000Y-133477000D01*
%TO.N,/esp32/GNRL_PURPOSE_2*%
X106680000Y-132080000D02*
X106649520Y-132110480D01*
X86360000Y-135255000D02*
X82677000Y-138938000D01*
X82677000Y-138938000D02*
X78740000Y-138938000D01*
X100965000Y-135255000D02*
X86360000Y-135255000D01*
X101600000Y-134620000D02*
X100965000Y-135255000D01*
X106680000Y-128270000D02*
X106680000Y-132080000D01*
X109243999Y-125706001D02*
X106680000Y-128270000D01*
X111346001Y-125706001D02*
X109243999Y-125706001D01*
X106649520Y-132110480D02*
X106649520Y-134711440D01*
%TO.N,/esp32/GNRL_PURPOSE_1*%
X108585000Y-124460000D02*
X111322002Y-124460000D01*
X111322002Y-124460000D02*
X111346001Y-124436001D01*
X78740000Y-127762000D02*
X96393000Y-127762000D01*
X97977960Y-126095760D02*
X96393000Y-127680720D01*
X96393000Y-127680720D02*
X96393000Y-127762000D01*
%TO.N,/esp32/READ_BATT_V*%
X111346001Y-134206001D02*
X114620000Y-137480000D01*
X114620000Y-137480000D02*
X115840000Y-137480000D01*
X111346001Y-129516001D02*
X111346001Y-134206001D01*
%TO.N,Net-(Q1-Pad3)*%
X116604002Y-153670000D02*
X121920000Y-148354002D01*
X110220000Y-153670000D02*
X116604002Y-153670000D01*
X121920000Y-144918000D02*
X119648000Y-142646000D01*
X121920000Y-148354002D02*
X121920000Y-144918000D01*
X119648000Y-140238000D02*
X119648000Y-142646000D01*
X117840000Y-138430000D02*
X119648000Y-140238000D01*
%TO.N,Net-(Q2-Pad3)*%
X109971080Y-147722920D02*
X115048000Y-142646000D01*
X109971080Y-148584920D02*
X109971080Y-147722920D01*
%TO.N,/esp32/WIFI_CONNECTION*%
X104798999Y-119356001D02*
X103087000Y-121068000D01*
X103087000Y-121068000D02*
X103087000Y-124550000D01*
X102870000Y-136525000D02*
X104480001Y-138135001D01*
X104480001Y-138135001D02*
X108063001Y-138135001D01*
X102870000Y-130810000D02*
X102870000Y-136525000D01*
D30*
X103075180Y-124538180D02*
X103087000Y-124550000D01*
D29*
X111346001Y-119356001D02*
X104798999Y-119356001D01*
%TO.N,/esp32/NO_WIFI_CONNECTION*%
X105410000Y-139700000D02*
X105410000Y-143692880D01*
X105410000Y-143692880D02*
X106502200Y-144785080D01*
X106502200Y-144785080D02*
X108296200Y-144785080D01*
X105410000Y-121285000D02*
X105410000Y-136525000D01*
X106068999Y-120626001D02*
X105410000Y-121285000D01*
X111346001Y-120626001D02*
X106068999Y-120626001D01*
%TO.N,/esp32/BOOT*%
X134350000Y-144272000D02*
X134350000Y-152541000D01*
X134350000Y-152541000D02*
X134201000Y-152690000D01*
X130786001Y-129516001D02*
X134350000Y-133080000D01*
X134350000Y-133080000D02*
X134350000Y-144272000D01*
X128846001Y-129516001D02*
X130786001Y-129516001D01*
X134201000Y-152690000D02*
X142151000Y-152690000D01*
%TO.N,/esp32/BATT_V*%
X107971080Y-148584920D02*
X107971080Y-151119840D01*
X107960160Y-147106640D02*
X107960160Y-148330160D01*
X107950000Y-129372002D02*
X107950000Y-136525000D01*
X111346001Y-126976001D02*
X110346001Y-126976001D01*
X110346001Y-126976001D02*
X107950000Y-129372002D01*
X107971080Y-151119840D02*
X107981240Y-151130000D01*
%TD*%
D31*
%TO.N,/GND*%
G36*
X147947047Y-108622756D02*
G01*
X148107988Y-109011302D01*
X148341637Y-109360983D01*
X148639017Y-109658363D01*
X148988698Y-109892012D01*
X149377244Y-110052953D01*
X149789721Y-110135000D01*
X150210279Y-110135000D01*
X150622756Y-110052953D01*
X151011302Y-109892012D01*
X151360983Y-109658363D01*
X151658363Y-109360983D01*
X151892012Y-109011302D01*
X152019000Y-108704726D01*
X152019000Y-159295274D01*
X151892012Y-158988698D01*
X151658363Y-158639017D01*
X151360983Y-158341637D01*
X151011302Y-158107988D01*
X150622756Y-157947047D01*
X150210279Y-157865000D01*
X149789721Y-157865000D01*
X149377244Y-157947047D01*
X148988698Y-158107988D01*
X148639017Y-158341637D01*
X148341637Y-158639017D01*
X148107988Y-158988698D01*
X147947047Y-159377244D01*
X147865000Y-159789721D01*
X147865000Y-160210279D01*
X147947047Y-160622756D01*
X148107988Y-161011302D01*
X148341637Y-161360983D01*
X148639017Y-161658363D01*
X148988698Y-161892012D01*
X149377244Y-162052953D01*
X149789721Y-162135000D01*
X150210279Y-162135000D01*
X150622756Y-162052953D01*
X151011302Y-161892012D01*
X151360983Y-161658363D01*
X151658363Y-161360983D01*
X151892012Y-161011302D01*
X152019000Y-160704726D01*
X152019000Y-162432792D01*
X74676300Y-162306208D01*
X74676758Y-162112530D01*
X74789721Y-162135000D01*
X75210279Y-162135000D01*
X75622756Y-162052953D01*
X76011302Y-161892012D01*
X76360983Y-161658363D01*
X76658363Y-161360983D01*
X76892012Y-161011302D01*
X77012673Y-160720000D01*
X104441928Y-160720000D01*
X104454188Y-160844482D01*
X104490498Y-160964180D01*
X104549463Y-161074494D01*
X104628815Y-161171185D01*
X104725506Y-161250537D01*
X104835820Y-161309502D01*
X104955518Y-161345812D01*
X105080000Y-161358072D01*
X105369250Y-161355000D01*
X105528000Y-161196250D01*
X105528000Y-160147000D01*
X104603750Y-160147000D01*
X104445000Y-160305750D01*
X104441928Y-160720000D01*
X77012673Y-160720000D01*
X77052953Y-160622756D01*
X77135000Y-160210279D01*
X77135000Y-159789721D01*
X77052953Y-159377244D01*
X77029242Y-159320000D01*
X104441928Y-159320000D01*
X104445000Y-159734250D01*
X104603750Y-159893000D01*
X105528000Y-159893000D01*
X105528000Y-158843750D01*
X105369250Y-158685000D01*
X105080000Y-158681928D01*
X104955518Y-158694188D01*
X104835820Y-158730498D01*
X104725506Y-158789463D01*
X104628815Y-158868815D01*
X104549463Y-158965506D01*
X104490498Y-159075820D01*
X104454188Y-159195518D01*
X104441928Y-159320000D01*
X77029242Y-159320000D01*
X76892012Y-158988698D01*
X76658363Y-158639017D01*
X76360983Y-158341637D01*
X76011302Y-158107988D01*
X75622756Y-157947047D01*
X75210279Y-157865000D01*
X74789721Y-157865000D01*
X74686751Y-157885482D01*
X74724695Y-141834890D01*
X77298524Y-141834890D01*
X77343175Y-141982099D01*
X77468359Y-142244920D01*
X77642412Y-142478269D01*
X77858645Y-142673178D01*
X78108748Y-142822157D01*
X78383109Y-142919481D01*
X78613000Y-142798814D01*
X78613000Y-141605000D01*
X78867000Y-141605000D01*
X78867000Y-142798814D01*
X79096891Y-142919481D01*
X79371252Y-142822157D01*
X79621355Y-142673178D01*
X79837588Y-142478269D01*
X80011641Y-142244920D01*
X80136825Y-141982099D01*
X80181476Y-141834890D01*
X80060155Y-141605000D01*
X78867000Y-141605000D01*
X78613000Y-141605000D01*
X77419845Y-141605000D01*
X77298524Y-141834890D01*
X74724695Y-141834890D01*
X74751115Y-130658890D01*
X77298524Y-130658890D01*
X77343175Y-130806099D01*
X77468359Y-131068920D01*
X77642412Y-131302269D01*
X77858645Y-131497178D01*
X78108748Y-131646157D01*
X78383109Y-131743481D01*
X78613000Y-131622814D01*
X78613000Y-130429000D01*
X78867000Y-130429000D01*
X78867000Y-131622814D01*
X79096891Y-131743481D01*
X79371252Y-131646157D01*
X79621355Y-131497178D01*
X79837588Y-131302269D01*
X80011641Y-131068920D01*
X80136825Y-130806099D01*
X80181476Y-130658890D01*
X80060155Y-130429000D01*
X78867000Y-130429000D01*
X78613000Y-130429000D01*
X77419845Y-130429000D01*
X77298524Y-130658890D01*
X74751115Y-130658890D01*
X74794201Y-112434000D01*
X76997928Y-112434000D01*
X77001000Y-112998250D01*
X77159750Y-113157000D01*
X78359000Y-113157000D01*
X78359000Y-111957750D01*
X78613000Y-111957750D01*
X78613000Y-113157000D01*
X79812250Y-113157000D01*
X79971000Y-112998250D01*
X79974072Y-112434000D01*
X79961812Y-112309518D01*
X79948611Y-112266000D01*
X88937928Y-112266000D01*
X88941000Y-112730250D01*
X89099750Y-112889000D01*
X90449000Y-112889000D01*
X90449000Y-111789750D01*
X90703000Y-111789750D01*
X90703000Y-112889000D01*
X92052250Y-112889000D01*
X92211000Y-112730250D01*
X92214072Y-112266000D01*
X92201812Y-112141518D01*
X92165502Y-112021820D01*
X92106537Y-111911506D01*
X92027185Y-111814815D01*
X91930494Y-111735463D01*
X91820180Y-111676498D01*
X91700482Y-111640188D01*
X91576000Y-111627928D01*
X90861750Y-111631000D01*
X90703000Y-111789750D01*
X90449000Y-111789750D01*
X90290250Y-111631000D01*
X89576000Y-111627928D01*
X89451518Y-111640188D01*
X89331820Y-111676498D01*
X89221506Y-111735463D01*
X89124815Y-111814815D01*
X89045463Y-111911506D01*
X88986498Y-112021820D01*
X88950188Y-112141518D01*
X88937928Y-112266000D01*
X79948611Y-112266000D01*
X79925502Y-112189820D01*
X79866537Y-112079506D01*
X79787185Y-111982815D01*
X79690494Y-111903463D01*
X79580180Y-111844498D01*
X79460482Y-111808188D01*
X79336000Y-111795928D01*
X78771750Y-111799000D01*
X78613000Y-111957750D01*
X78359000Y-111957750D01*
X78200250Y-111799000D01*
X77636000Y-111795928D01*
X77511518Y-111808188D01*
X77391820Y-111844498D01*
X77281506Y-111903463D01*
X77184815Y-111982815D01*
X77105463Y-112079506D01*
X77046498Y-112189820D01*
X77010188Y-112309518D01*
X76997928Y-112434000D01*
X74794201Y-112434000D01*
X74799637Y-110135000D01*
X75210279Y-110135000D01*
X75622756Y-110052953D01*
X76011302Y-109892012D01*
X76360983Y-109658363D01*
X76658363Y-109360983D01*
X76892012Y-109011302D01*
X76919079Y-108945957D01*
X82670959Y-109219856D01*
X82695824Y-109218597D01*
X82719965Y-109212512D01*
X82742455Y-109201833D01*
X82762429Y-109186972D01*
X82779121Y-109168500D01*
X82791888Y-109147127D01*
X82800240Y-109123673D01*
X82803856Y-109099041D01*
X82803406Y-109090160D01*
X93733013Y-108841760D01*
X93980196Y-113291045D01*
X93984006Y-113315648D01*
X93992544Y-113339034D01*
X94005480Y-113360306D01*
X94022317Y-113378646D01*
X94042409Y-113393348D01*
X94064982Y-113403848D01*
X94089171Y-113409742D01*
X94105095Y-113410986D01*
X95237928Y-113427978D01*
X95237928Y-114181000D01*
X95014741Y-114181000D01*
X94958999Y-114175510D01*
X94903257Y-114181000D01*
X92081501Y-114181000D01*
X92069191Y-114166000D01*
X92106537Y-114120494D01*
X92165502Y-114010180D01*
X92201812Y-113890482D01*
X92214072Y-113766000D01*
X92211000Y-113301750D01*
X92052250Y-113143000D01*
X90703000Y-113143000D01*
X90703000Y-113163000D01*
X90449000Y-113163000D01*
X90449000Y-113143000D01*
X89099750Y-113143000D01*
X88941000Y-113301750D01*
X88937928Y-113766000D01*
X88950188Y-113890482D01*
X88986498Y-114010180D01*
X89045463Y-114120494D01*
X89082809Y-114166000D01*
X89045463Y-114211506D01*
X88986498Y-114321820D01*
X88950188Y-114441518D01*
X88937928Y-114566000D01*
X88937928Y-116066000D01*
X88950188Y-116190482D01*
X88986498Y-116310180D01*
X89045463Y-116420494D01*
X89082809Y-116466000D01*
X89045463Y-116511506D01*
X88986498Y-116621820D01*
X88950188Y-116741518D01*
X88944133Y-116803000D01*
X87709995Y-115568864D01*
X87674449Y-115525551D01*
X87501623Y-115383716D01*
X87304447Y-115278324D01*
X87298030Y-115276377D01*
X87361537Y-115198994D01*
X87420502Y-115088680D01*
X87456812Y-114968982D01*
X87469072Y-114844500D01*
X87466000Y-114542750D01*
X87307250Y-114384000D01*
X86233000Y-114384000D01*
X86233000Y-114404000D01*
X85979000Y-114404000D01*
X85979000Y-114384000D01*
X84904750Y-114384000D01*
X84746000Y-114542750D01*
X84742928Y-114844500D01*
X84755188Y-114968982D01*
X84791498Y-115088680D01*
X84849397Y-115197000D01*
X82512131Y-115197000D01*
X82375996Y-115060865D01*
X82340449Y-115017551D01*
X82167623Y-114875716D01*
X81970447Y-114770324D01*
X81756499Y-114705423D01*
X81589752Y-114689000D01*
X81589751Y-114689000D01*
X81534000Y-114683509D01*
X81478249Y-114689000D01*
X79644728Y-114689000D01*
X79690494Y-114664537D01*
X79787185Y-114585185D01*
X79866537Y-114488494D01*
X79925502Y-114378180D01*
X79961812Y-114258482D01*
X79974072Y-114134000D01*
X79971544Y-113669500D01*
X84742928Y-113669500D01*
X84746000Y-113971250D01*
X84904750Y-114130000D01*
X85979000Y-114130000D01*
X85979000Y-113193250D01*
X86233000Y-113193250D01*
X86233000Y-114130000D01*
X87307250Y-114130000D01*
X87466000Y-113971250D01*
X87469072Y-113669500D01*
X87456812Y-113545018D01*
X87420502Y-113425320D01*
X87361537Y-113315006D01*
X87282185Y-113218315D01*
X87185494Y-113138963D01*
X87075180Y-113079998D01*
X86955482Y-113043688D01*
X86831000Y-113031428D01*
X86391750Y-113034500D01*
X86233000Y-113193250D01*
X85979000Y-113193250D01*
X85820250Y-113034500D01*
X85381000Y-113031428D01*
X85256518Y-113043688D01*
X85136820Y-113079998D01*
X85026506Y-113138963D01*
X84929815Y-113218315D01*
X84850463Y-113315006D01*
X84791498Y-113425320D01*
X84755188Y-113545018D01*
X84742928Y-113669500D01*
X79971544Y-113669500D01*
X79971000Y-113569750D01*
X79812250Y-113411000D01*
X78613000Y-113411000D01*
X78613000Y-113431000D01*
X78359000Y-113431000D01*
X78359000Y-113411000D01*
X77159750Y-113411000D01*
X77001000Y-113569750D01*
X76997928Y-114134000D01*
X77010188Y-114258482D01*
X77046498Y-114378180D01*
X77105463Y-114488494D01*
X77184815Y-114585185D01*
X77281506Y-114664537D01*
X77391820Y-114723502D01*
X77460687Y-114744393D01*
X77430866Y-114768866D01*
X77245294Y-114994986D01*
X77107401Y-115252966D01*
X77022487Y-115532889D01*
X76993815Y-115824000D01*
X77022487Y-116115111D01*
X77107401Y-116395034D01*
X77245294Y-116653014D01*
X77430866Y-116879134D01*
X77656986Y-117064706D01*
X77914966Y-117202599D01*
X78194889Y-117287513D01*
X78413050Y-117309000D01*
X78558950Y-117309000D01*
X78777111Y-117287513D01*
X79057034Y-117202599D01*
X79315014Y-117064706D01*
X79443817Y-116959000D01*
X81063869Y-116959000D01*
X81200004Y-117095135D01*
X81235551Y-117138449D01*
X81408377Y-117280284D01*
X81605553Y-117385676D01*
X81819501Y-117450577D01*
X81986248Y-117467000D01*
X81986257Y-117467000D01*
X82041999Y-117472490D01*
X82097741Y-117467000D01*
X85248173Y-117467000D01*
X85291150Y-117489972D01*
X85457746Y-117540508D01*
X85631000Y-117557572D01*
X86488441Y-117557572D01*
X87804013Y-118873146D01*
X87839551Y-118916449D01*
X87882854Y-118951987D01*
X87882856Y-118951989D01*
X88012377Y-119058284D01*
X88209553Y-119163676D01*
X88423501Y-119228577D01*
X88646000Y-119250491D01*
X88701752Y-119245000D01*
X90026249Y-119245000D01*
X90082000Y-119250491D01*
X90137751Y-119245000D01*
X90137752Y-119245000D01*
X90304499Y-119228577D01*
X90518447Y-119163676D01*
X90715623Y-119058284D01*
X90781680Y-119004072D01*
X91576000Y-119004072D01*
X91700482Y-118991812D01*
X91820180Y-118955502D01*
X91930494Y-118896537D01*
X92027185Y-118817185D01*
X92106537Y-118720494D01*
X92165502Y-118610180D01*
X92201812Y-118490482D01*
X92214072Y-118366000D01*
X92214072Y-116866000D01*
X92201812Y-116741518D01*
X92165502Y-116621820D01*
X92106537Y-116511506D01*
X92069191Y-116466000D01*
X92081501Y-116451000D01*
X93989394Y-116451000D01*
X94071378Y-116518283D01*
X94268554Y-116623676D01*
X94482502Y-116688577D01*
X94705000Y-116710491D01*
X94784175Y-116702693D01*
X92601693Y-118885176D01*
X92508493Y-118894356D01*
X92487500Y-118896423D01*
X92437705Y-118911529D01*
X92273553Y-118961324D01*
X92076377Y-119066716D01*
X91903551Y-119208551D01*
X91868011Y-119251857D01*
X90969869Y-120150000D01*
X86415752Y-120150000D01*
X86360000Y-120144509D01*
X86304248Y-120150000D01*
X86137501Y-120166423D01*
X85923553Y-120231324D01*
X85726377Y-120336716D01*
X85553551Y-120478551D01*
X85518011Y-120521857D01*
X81952869Y-124087000D01*
X80157683Y-124087000D01*
X80120537Y-124017506D01*
X80041185Y-123920815D01*
X79944494Y-123841463D01*
X79834180Y-123782498D01*
X79714482Y-123746188D01*
X79590000Y-123733928D01*
X77890000Y-123733928D01*
X77765518Y-123746188D01*
X77645820Y-123782498D01*
X77535506Y-123841463D01*
X77438815Y-123920815D01*
X77359463Y-124017506D01*
X77300498Y-124127820D01*
X77264188Y-124247518D01*
X77251928Y-124372000D01*
X77251928Y-126072000D01*
X77264188Y-126196482D01*
X77300498Y-126316180D01*
X77359463Y-126426494D01*
X77438815Y-126523185D01*
X77535506Y-126602537D01*
X77645820Y-126661502D01*
X77714687Y-126682393D01*
X77684866Y-126706866D01*
X77499294Y-126932986D01*
X77361401Y-127190966D01*
X77276487Y-127470889D01*
X77247815Y-127762000D01*
X77276487Y-128053111D01*
X77361401Y-128333034D01*
X77499294Y-128591014D01*
X77684866Y-128817134D01*
X77910986Y-129002706D01*
X77975523Y-129037201D01*
X77858645Y-129106822D01*
X77642412Y-129301731D01*
X77468359Y-129535080D01*
X77343175Y-129797901D01*
X77298524Y-129945110D01*
X77419845Y-130175000D01*
X78613000Y-130175000D01*
X78613000Y-130155000D01*
X78867000Y-130155000D01*
X78867000Y-130175000D01*
X80060155Y-130175000D01*
X80181476Y-129945110D01*
X80136825Y-129797901D01*
X80011641Y-129535080D01*
X79837588Y-129301731D01*
X79621355Y-129106822D01*
X79504477Y-129037201D01*
X79569014Y-129002706D01*
X79795134Y-128817134D01*
X79893725Y-128697000D01*
X86816883Y-128697000D01*
X86813928Y-128727000D01*
X86813928Y-130027000D01*
X86826188Y-130151482D01*
X86862498Y-130271180D01*
X86921463Y-130381494D01*
X87000815Y-130478185D01*
X87097506Y-130557537D01*
X87207820Y-130616502D01*
X87327518Y-130652812D01*
X87452000Y-130665072D01*
X89002000Y-130665072D01*
X89126482Y-130652812D01*
X89246180Y-130616502D01*
X89356494Y-130557537D01*
X89453185Y-130478185D01*
X89532537Y-130381494D01*
X89569683Y-130312000D01*
X94834317Y-130312000D01*
X94871463Y-130381494D01*
X94950815Y-130478185D01*
X95047506Y-130557537D01*
X95157820Y-130616502D01*
X95277518Y-130652812D01*
X95402000Y-130665072D01*
X96952000Y-130665072D01*
X97076482Y-130652812D01*
X97196180Y-130616502D01*
X97306494Y-130557537D01*
X97403185Y-130478185D01*
X97482537Y-130381494D01*
X97519683Y-130312000D01*
X99812068Y-130312000D01*
X99858000Y-130316524D01*
X99903932Y-130312000D01*
X100041292Y-130298471D01*
X100217540Y-130245007D01*
X100379972Y-130158186D01*
X100522344Y-130041344D01*
X100551630Y-130005659D01*
X101339662Y-129217628D01*
X101393614Y-129261905D01*
X101547150Y-129343972D01*
X101713746Y-129394508D01*
X101887000Y-129411572D01*
X102837000Y-129411572D01*
X103010254Y-129394508D01*
X103176850Y-129343972D01*
X103228875Y-129316164D01*
X103254957Y-129342246D01*
X103267104Y-129371572D01*
X103374901Y-129532901D01*
X103512099Y-129670099D01*
X103673428Y-129777896D01*
X103852686Y-129852147D01*
X104042986Y-129890000D01*
X104237014Y-129890000D01*
X104427314Y-129852147D01*
X104475001Y-129832395D01*
X104475001Y-136208358D01*
X104462853Y-136237686D01*
X104425000Y-136427986D01*
X104425000Y-136622014D01*
X104458694Y-136791404D01*
X103805000Y-136137711D01*
X103805000Y-131126639D01*
X103817147Y-131097314D01*
X103855000Y-130907014D01*
X103855000Y-130712986D01*
X103817147Y-130522686D01*
X103742896Y-130343428D01*
X103635099Y-130182099D01*
X103497901Y-130044901D01*
X103336572Y-129937104D01*
X103157314Y-129862853D01*
X102967014Y-129825000D01*
X102772986Y-129825000D01*
X102582686Y-129862853D01*
X102403428Y-129937104D01*
X102242099Y-130044901D01*
X102104901Y-130182099D01*
X101997104Y-130343428D01*
X101922853Y-130522686D01*
X101885000Y-130712986D01*
X101885000Y-130907014D01*
X101922853Y-131097314D01*
X101935000Y-131126640D01*
X101935001Y-133692605D01*
X101887314Y-133672853D01*
X101697014Y-133635000D01*
X101502986Y-133635000D01*
X101312686Y-133672853D01*
X101133428Y-133747104D01*
X100972099Y-133854901D01*
X100834901Y-133992099D01*
X100727104Y-134153428D01*
X100714957Y-134182754D01*
X100577711Y-134320000D01*
X86405935Y-134320000D01*
X86360000Y-134315476D01*
X86176708Y-134333528D01*
X86000459Y-134386993D01*
X85953675Y-134412000D01*
X85838028Y-134473814D01*
X85695656Y-134590656D01*
X85666370Y-134626341D01*
X82289711Y-138003000D01*
X79893725Y-138003000D01*
X79795134Y-137882866D01*
X79765313Y-137858393D01*
X79834180Y-137837502D01*
X79944494Y-137778537D01*
X80041185Y-137699185D01*
X80120537Y-137602494D01*
X80179502Y-137492180D01*
X80215812Y-137372482D01*
X80228072Y-137248000D01*
X80228072Y-135548000D01*
X80215812Y-135423518D01*
X80179502Y-135303820D01*
X80120537Y-135193506D01*
X80041185Y-135096815D01*
X79944494Y-135017463D01*
X79834180Y-134958498D01*
X79714482Y-134922188D01*
X79590000Y-134909928D01*
X77890000Y-134909928D01*
X77765518Y-134922188D01*
X77645820Y-134958498D01*
X77535506Y-135017463D01*
X77438815Y-135096815D01*
X77359463Y-135193506D01*
X77300498Y-135303820D01*
X77264188Y-135423518D01*
X77251928Y-135548000D01*
X77251928Y-137248000D01*
X77264188Y-137372482D01*
X77300498Y-137492180D01*
X77359463Y-137602494D01*
X77438815Y-137699185D01*
X77535506Y-137778537D01*
X77645820Y-137837502D01*
X77714687Y-137858393D01*
X77684866Y-137882866D01*
X77499294Y-138108986D01*
X77361401Y-138366966D01*
X77276487Y-138646889D01*
X77247815Y-138938000D01*
X77276487Y-139229111D01*
X77361401Y-139509034D01*
X77499294Y-139767014D01*
X77684866Y-139993134D01*
X77910986Y-140178706D01*
X77975523Y-140213201D01*
X77858645Y-140282822D01*
X77642412Y-140477731D01*
X77468359Y-140711080D01*
X77343175Y-140973901D01*
X77298524Y-141121110D01*
X77419845Y-141351000D01*
X78613000Y-141351000D01*
X78613000Y-141331000D01*
X78867000Y-141331000D01*
X78867000Y-141351000D01*
X80060155Y-141351000D01*
X80181476Y-141121110D01*
X80136825Y-140973901D01*
X80011641Y-140711080D01*
X79837588Y-140477731D01*
X79621355Y-140282822D01*
X79504477Y-140213201D01*
X79569014Y-140178706D01*
X79795134Y-139993134D01*
X79893725Y-139873000D01*
X82631068Y-139873000D01*
X82677000Y-139877524D01*
X82722932Y-139873000D01*
X82860292Y-139859471D01*
X83036540Y-139806007D01*
X83198972Y-139719186D01*
X83341344Y-139602344D01*
X83370630Y-139566659D01*
X86747289Y-136190000D01*
X100919068Y-136190000D01*
X100965000Y-136194524D01*
X101010932Y-136190000D01*
X101148292Y-136176471D01*
X101324540Y-136123007D01*
X101486972Y-136036186D01*
X101629344Y-135919344D01*
X101658630Y-135883659D01*
X101935001Y-135607288D01*
X101935001Y-136479058D01*
X101930476Y-136525000D01*
X101948529Y-136708291D01*
X101990085Y-136845281D01*
X102001994Y-136884540D01*
X102088815Y-137046972D01*
X102205657Y-137189344D01*
X102241336Y-137218625D01*
X103786375Y-138763665D01*
X103815657Y-138799345D01*
X103958029Y-138916187D01*
X104120461Y-139003008D01*
X104228088Y-139035656D01*
X104296708Y-139056472D01*
X104480000Y-139074525D01*
X104525932Y-139070001D01*
X104646999Y-139070001D01*
X104644901Y-139072099D01*
X104537104Y-139233428D01*
X104462853Y-139412686D01*
X104425000Y-139602986D01*
X104425000Y-139797014D01*
X104462853Y-139987314D01*
X104475000Y-140016640D01*
X104475001Y-143646938D01*
X104470476Y-143692880D01*
X104488529Y-143876171D01*
X104499538Y-143912461D01*
X104541994Y-144052420D01*
X104628815Y-144214852D01*
X104745657Y-144357224D01*
X104781336Y-144386505D01*
X105808574Y-145413744D01*
X105837856Y-145449424D01*
X105980228Y-145566266D01*
X106142660Y-145653087D01*
X106265443Y-145690333D01*
X106318907Y-145706551D01*
X106502199Y-145724604D01*
X106548131Y-145720080D01*
X106618429Y-145720080D01*
X103511336Y-148827173D01*
X103475657Y-148856454D01*
X103358815Y-148998826D01*
X103301054Y-149106891D01*
X103271994Y-149161258D01*
X103218529Y-149337507D01*
X103200476Y-149520798D01*
X103205001Y-149566740D01*
X103205000Y-154894068D01*
X103200476Y-154940000D01*
X103205000Y-154985931D01*
X103218529Y-155123291D01*
X103271993Y-155299539D01*
X103358814Y-155461971D01*
X103475656Y-155604344D01*
X103511341Y-155633630D01*
X106789228Y-158911517D01*
X106752038Y-158942038D01*
X106746658Y-158948594D01*
X106681185Y-158868815D01*
X106584494Y-158789463D01*
X106474180Y-158730498D01*
X106354482Y-158694188D01*
X106230000Y-158681928D01*
X105940750Y-158685000D01*
X105782000Y-158843750D01*
X105782000Y-159893000D01*
X105802000Y-159893000D01*
X105802000Y-160147000D01*
X105782000Y-160147000D01*
X105782000Y-161196250D01*
X105940750Y-161355000D01*
X106230000Y-161358072D01*
X106354482Y-161345812D01*
X106474180Y-161309502D01*
X106584494Y-161250537D01*
X106681185Y-161171185D01*
X106746658Y-161091406D01*
X106752038Y-161097962D01*
X106886613Y-161208405D01*
X107040149Y-161290472D01*
X107206745Y-161341008D01*
X107379999Y-161358072D01*
X108030001Y-161358072D01*
X108203255Y-161341008D01*
X108369851Y-161290472D01*
X108523387Y-161208405D01*
X108657962Y-161097962D01*
X108768405Y-160963387D01*
X108850472Y-160809851D01*
X108877727Y-160720000D01*
X109766928Y-160720000D01*
X109779188Y-160844482D01*
X109815498Y-160964180D01*
X109874463Y-161074494D01*
X109953815Y-161171185D01*
X110050506Y-161250537D01*
X110160820Y-161309502D01*
X110280518Y-161345812D01*
X110405000Y-161358072D01*
X110694250Y-161355000D01*
X110853000Y-161196250D01*
X110853000Y-160147000D01*
X109928750Y-160147000D01*
X109770000Y-160305750D01*
X109766928Y-160720000D01*
X108877727Y-160720000D01*
X108901008Y-160643255D01*
X108918072Y-160470001D01*
X108918072Y-159569999D01*
X108901008Y-159396745D01*
X108885000Y-159343973D01*
X108885000Y-159320000D01*
X109766928Y-159320000D01*
X109770000Y-159734250D01*
X109928750Y-159893000D01*
X110853000Y-159893000D01*
X110853000Y-158843750D01*
X110694250Y-158685000D01*
X110405000Y-158681928D01*
X110280518Y-158694188D01*
X110160820Y-158730498D01*
X110050506Y-158789463D01*
X109953815Y-158868815D01*
X109874463Y-158965506D01*
X109815498Y-159075820D01*
X109779188Y-159195518D01*
X109766928Y-159320000D01*
X108885000Y-159320000D01*
X108885000Y-158795935D01*
X108889524Y-158750000D01*
X108871472Y-158566708D01*
X108818007Y-158390459D01*
X108765462Y-158292155D01*
X108731186Y-158228028D01*
X108614344Y-158085656D01*
X108578660Y-158056371D01*
X105075000Y-154552711D01*
X105075000Y-154305132D01*
X105203008Y-154433140D01*
X105238551Y-154476449D01*
X105400703Y-154609524D01*
X105411377Y-154618284D01*
X105608553Y-154723676D01*
X105822501Y-154788577D01*
X106045000Y-154810491D01*
X106100752Y-154805000D01*
X107311539Y-154805000D01*
X107376613Y-154858405D01*
X107530149Y-154940472D01*
X107696745Y-154991008D01*
X107869999Y-155008072D01*
X108570001Y-155008072D01*
X108743255Y-154991008D01*
X108909851Y-154940472D01*
X109063387Y-154858405D01*
X109197962Y-154747962D01*
X109220000Y-154721109D01*
X109242038Y-154747962D01*
X109376613Y-154858405D01*
X109530149Y-154940472D01*
X109696745Y-154991008D01*
X109869999Y-155008072D01*
X110570001Y-155008072D01*
X110743255Y-154991008D01*
X110909851Y-154940472D01*
X111063387Y-154858405D01*
X111197962Y-154747962D01*
X111308405Y-154613387D01*
X111312888Y-154605000D01*
X116547605Y-154605000D01*
X116527853Y-154652686D01*
X116490000Y-154842986D01*
X116490000Y-155037014D01*
X116527853Y-155227314D01*
X116540001Y-155256641D01*
X116540000Y-156457710D01*
X114015737Y-158981974D01*
X113982962Y-158942038D01*
X113848387Y-158831595D01*
X113694851Y-158749528D01*
X113528255Y-158698992D01*
X113355001Y-158681928D01*
X112704999Y-158681928D01*
X112531745Y-158698992D01*
X112365149Y-158749528D01*
X112211613Y-158831595D01*
X112077038Y-158942038D01*
X112071658Y-158948594D01*
X112006185Y-158868815D01*
X111909494Y-158789463D01*
X111799180Y-158730498D01*
X111679482Y-158694188D01*
X111555000Y-158681928D01*
X111265750Y-158685000D01*
X111107000Y-158843750D01*
X111107000Y-159893000D01*
X111127000Y-159893000D01*
X111127000Y-160147000D01*
X111107000Y-160147000D01*
X111107000Y-161196250D01*
X111265750Y-161355000D01*
X111555000Y-161358072D01*
X111679482Y-161345812D01*
X111799180Y-161309502D01*
X111909494Y-161250537D01*
X112006185Y-161171185D01*
X112071658Y-161091406D01*
X112077038Y-161097962D01*
X112211613Y-161208405D01*
X112365149Y-161290472D01*
X112531745Y-161341008D01*
X112704999Y-161358072D01*
X113355001Y-161358072D01*
X113528255Y-161341008D01*
X113694851Y-161290472D01*
X113848387Y-161208405D01*
X113982962Y-161097962D01*
X114093405Y-160963387D01*
X114097888Y-160955000D01*
X114254068Y-160955000D01*
X114300000Y-160959524D01*
X114345932Y-160955000D01*
X114483292Y-160941471D01*
X114659540Y-160888007D01*
X114821972Y-160801186D01*
X114964344Y-160684344D01*
X114993630Y-160648659D01*
X118103666Y-157538624D01*
X118139344Y-157509344D01*
X118256186Y-157366972D01*
X118276540Y-157328891D01*
X119462519Y-157328891D01*
X119559843Y-157603252D01*
X119708822Y-157853355D01*
X119903731Y-158069588D01*
X120137080Y-158243641D01*
X120399901Y-158368825D01*
X120547110Y-158413476D01*
X120777000Y-158292155D01*
X120777000Y-157099000D01*
X119583186Y-157099000D01*
X119462519Y-157328891D01*
X118276540Y-157328891D01*
X118343007Y-157204540D01*
X118380253Y-157081757D01*
X118396471Y-157028293D01*
X118414524Y-156845001D01*
X118410000Y-156799069D01*
X118410000Y-156615109D01*
X119462519Y-156615109D01*
X119583186Y-156845000D01*
X120777000Y-156845000D01*
X120777000Y-155651845D01*
X120547110Y-155530524D01*
X120399901Y-155575175D01*
X120137080Y-155700359D01*
X119903731Y-155874412D01*
X119708822Y-156090645D01*
X119559843Y-156340748D01*
X119462519Y-156615109D01*
X118410000Y-156615109D01*
X118410000Y-155256639D01*
X118422147Y-155227314D01*
X118460000Y-155037014D01*
X118460000Y-154842986D01*
X118422147Y-154652686D01*
X118347896Y-154473428D01*
X118240099Y-154312099D01*
X118102901Y-154174901D01*
X117941572Y-154067104D01*
X117762314Y-153992853D01*
X117629797Y-153966494D01*
X122548666Y-149047626D01*
X122584344Y-149018346D01*
X122701186Y-148875974D01*
X122788007Y-148713542D01*
X122841471Y-148537294D01*
X122855000Y-148399934D01*
X122855000Y-148399928D01*
X122859523Y-148354003D01*
X122855000Y-148308078D01*
X122855000Y-144963931D01*
X122859524Y-144917999D01*
X122841471Y-144734707D01*
X122814427Y-144645556D01*
X122788007Y-144558460D01*
X122701186Y-144396028D01*
X122584344Y-144253656D01*
X122548664Y-144224374D01*
X121036072Y-142711783D01*
X121036072Y-141646000D01*
X121023812Y-141521518D01*
X120987502Y-141401820D01*
X120928537Y-141291506D01*
X120849185Y-141194815D01*
X120752494Y-141115463D01*
X120642180Y-141056498D01*
X120583000Y-141038546D01*
X120583000Y-140283931D01*
X120587524Y-140237999D01*
X120569471Y-140054707D01*
X120542690Y-139966424D01*
X120516007Y-139878460D01*
X120429186Y-139716028D01*
X120312344Y-139573656D01*
X120276666Y-139544376D01*
X118928072Y-138195783D01*
X118928072Y-138030000D01*
X118915812Y-137905518D01*
X118879502Y-137785820D01*
X118820537Y-137675506D01*
X118741185Y-137578815D01*
X118644494Y-137499463D01*
X118534180Y-137440498D01*
X118414482Y-137404188D01*
X118290000Y-137391928D01*
X117390000Y-137391928D01*
X117265518Y-137404188D01*
X117145820Y-137440498D01*
X117035506Y-137499463D01*
X116938815Y-137578815D01*
X116928072Y-137591905D01*
X116928072Y-137080000D01*
X116915812Y-136955518D01*
X116879502Y-136835820D01*
X116820537Y-136725506D01*
X116741185Y-136628815D01*
X116644494Y-136549463D01*
X116534180Y-136490498D01*
X116414482Y-136454188D01*
X116290000Y-136441928D01*
X115390000Y-136441928D01*
X115265518Y-136454188D01*
X115145820Y-136490498D01*
X115043856Y-136545000D01*
X115007289Y-136545000D01*
X112281001Y-133818712D01*
X112281001Y-131516001D01*
X113287929Y-131516001D01*
X113300189Y-131640483D01*
X113336499Y-131760181D01*
X113395464Y-131870495D01*
X113474816Y-131967186D01*
X113571507Y-132046538D01*
X113681821Y-132105503D01*
X113801519Y-132141813D01*
X113926001Y-132154073D01*
X114090251Y-132151001D01*
X114249001Y-131992251D01*
X114249001Y-130893001D01*
X113449751Y-130893001D01*
X113291001Y-131051751D01*
X113287929Y-131516001D01*
X112281001Y-131516001D01*
X112281001Y-130573455D01*
X112340181Y-130555503D01*
X112450495Y-130496538D01*
X112547186Y-130417186D01*
X112626538Y-130320495D01*
X112685503Y-130210181D01*
X112721813Y-130090483D01*
X112729148Y-130016001D01*
X113287929Y-130016001D01*
X113291001Y-130480251D01*
X113449751Y-130639001D01*
X114249001Y-130639001D01*
X114249001Y-129539751D01*
X114090251Y-129381001D01*
X113926001Y-129377929D01*
X113801519Y-129390189D01*
X113681821Y-129426499D01*
X113571507Y-129485464D01*
X113474816Y-129564816D01*
X113395464Y-129661507D01*
X113336499Y-129771821D01*
X113300189Y-129891519D01*
X113287929Y-130016001D01*
X112729148Y-130016001D01*
X112734073Y-129966001D01*
X112734073Y-129066001D01*
X112721813Y-128941519D01*
X112703455Y-128881001D01*
X112721813Y-128820483D01*
X112734073Y-128696001D01*
X112734073Y-127796001D01*
X112721813Y-127671519D01*
X112703455Y-127611001D01*
X112721813Y-127550483D01*
X112734073Y-127426001D01*
X112734073Y-126526001D01*
X112721813Y-126401519D01*
X112703455Y-126341001D01*
X112721813Y-126280483D01*
X112734073Y-126156001D01*
X112734073Y-125256001D01*
X112721813Y-125131519D01*
X112703455Y-125071001D01*
X112721813Y-125010483D01*
X112734073Y-124886001D01*
X112734073Y-123986001D01*
X112721813Y-123861519D01*
X112703455Y-123801001D01*
X112721813Y-123740483D01*
X112734073Y-123616001D01*
X112734073Y-122716001D01*
X112721813Y-122591519D01*
X112703455Y-122531001D01*
X112721813Y-122470483D01*
X112734073Y-122346001D01*
X112734073Y-121446001D01*
X112721813Y-121321519D01*
X112703455Y-121261001D01*
X112721813Y-121200483D01*
X112734073Y-121076001D01*
X112734073Y-120176001D01*
X112721813Y-120051519D01*
X112703455Y-119991001D01*
X112721813Y-119930483D01*
X112734073Y-119806001D01*
X112734073Y-118906001D01*
X112721813Y-118781519D01*
X112703455Y-118721001D01*
X112721813Y-118660483D01*
X112734073Y-118536001D01*
X112734073Y-118296001D01*
X116727929Y-118296001D01*
X116727929Y-119346001D01*
X116740189Y-119470483D01*
X116774473Y-119583501D01*
X116740189Y-119696519D01*
X116727929Y-119821001D01*
X116727929Y-120871001D01*
X116740189Y-120995483D01*
X116774473Y-121108501D01*
X116740189Y-121221519D01*
X116727929Y-121346001D01*
X116727929Y-122396001D01*
X116740189Y-122520483D01*
X116776499Y-122640181D01*
X116835464Y-122750495D01*
X116914816Y-122847186D01*
X117011507Y-122926538D01*
X117121821Y-122985503D01*
X117241519Y-123021813D01*
X117366001Y-123034073D01*
X118416001Y-123034073D01*
X118540483Y-123021813D01*
X118653501Y-122987529D01*
X118766519Y-123021813D01*
X118891001Y-123034073D01*
X119941001Y-123034073D01*
X120065483Y-123021813D01*
X120178501Y-122987529D01*
X120291519Y-123021813D01*
X120416001Y-123034073D01*
X121466001Y-123034073D01*
X121590483Y-123021813D01*
X121710181Y-122985503D01*
X121820495Y-122926538D01*
X121917186Y-122847186D01*
X121996538Y-122750495D01*
X122055503Y-122640181D01*
X122091813Y-122520483D01*
X122104073Y-122396001D01*
X122104073Y-121346001D01*
X122091813Y-121221519D01*
X122057529Y-121108501D01*
X122091813Y-120995483D01*
X122104073Y-120871001D01*
X122104073Y-119821001D01*
X122091813Y-119696519D01*
X122057529Y-119583501D01*
X122091813Y-119470483D01*
X122104073Y-119346001D01*
X122104073Y-118296001D01*
X122091813Y-118171519D01*
X122055503Y-118051821D01*
X121996538Y-117941507D01*
X121917186Y-117844816D01*
X121820495Y-117765464D01*
X121710181Y-117706499D01*
X121590483Y-117670189D01*
X121466001Y-117657929D01*
X120416001Y-117657929D01*
X120291519Y-117670189D01*
X120178501Y-117704473D01*
X120065483Y-117670189D01*
X119941001Y-117657929D01*
X118891001Y-117657929D01*
X118766519Y-117670189D01*
X118653501Y-117704473D01*
X118540483Y-117670189D01*
X118416001Y-117657929D01*
X117366001Y-117657929D01*
X117241519Y-117670189D01*
X117121821Y-117706499D01*
X117011507Y-117765464D01*
X116914816Y-117844816D01*
X116835464Y-117941507D01*
X116776499Y-118051821D01*
X116740189Y-118171519D01*
X116727929Y-118296001D01*
X112734073Y-118296001D01*
X112734073Y-117636001D01*
X112721813Y-117511519D01*
X112703455Y-117451001D01*
X112721813Y-117390483D01*
X112734073Y-117266001D01*
X112734073Y-116366001D01*
X112721813Y-116241519D01*
X112703455Y-116181001D01*
X112721813Y-116120483D01*
X112734073Y-115996001D01*
X112734073Y-115096001D01*
X112721813Y-114971519D01*
X112703455Y-114911001D01*
X112721813Y-114850483D01*
X112734073Y-114726001D01*
X112734073Y-113826001D01*
X112721813Y-113701519D01*
X112718375Y-113690185D01*
X127457929Y-113911279D01*
X127457929Y-114726001D01*
X127470189Y-114850483D01*
X127488547Y-114911001D01*
X127470189Y-114971519D01*
X127457929Y-115096001D01*
X127457929Y-115996001D01*
X127470189Y-116120483D01*
X127488547Y-116181001D01*
X127470189Y-116241519D01*
X127457929Y-116366001D01*
X127457929Y-117266001D01*
X127470189Y-117390483D01*
X127488547Y-117451001D01*
X127470189Y-117511519D01*
X127457929Y-117636001D01*
X127457929Y-118536001D01*
X127470189Y-118660483D01*
X127488547Y-118721001D01*
X127470189Y-118781519D01*
X127457929Y-118906001D01*
X127457929Y-119806001D01*
X127470189Y-119930483D01*
X127488547Y-119991001D01*
X127470189Y-120051519D01*
X127457929Y-120176001D01*
X127457929Y-121076001D01*
X127470189Y-121200483D01*
X127488547Y-121261001D01*
X127470189Y-121321519D01*
X127457929Y-121446001D01*
X127457929Y-122346001D01*
X127470189Y-122470483D01*
X127488547Y-122531001D01*
X127470189Y-122591519D01*
X127457929Y-122716001D01*
X127457929Y-123616001D01*
X127470189Y-123740483D01*
X127488547Y-123801001D01*
X127470189Y-123861519D01*
X127457929Y-123986001D01*
X127457929Y-124886001D01*
X127470189Y-125010483D01*
X127488547Y-125071001D01*
X127470189Y-125131519D01*
X127457929Y-125256001D01*
X127457929Y-126156001D01*
X127470189Y-126280483D01*
X127488547Y-126341001D01*
X127470189Y-126401519D01*
X127457929Y-126526001D01*
X127457929Y-127426001D01*
X127470189Y-127550483D01*
X127488547Y-127611001D01*
X127470189Y-127671519D01*
X127457929Y-127796001D01*
X127457929Y-128696001D01*
X127470189Y-128820483D01*
X127488547Y-128881001D01*
X127470189Y-128941519D01*
X127457929Y-129066001D01*
X127457929Y-129966001D01*
X127470189Y-130090483D01*
X127506499Y-130210181D01*
X127565464Y-130320495D01*
X127644816Y-130417186D01*
X127741507Y-130496538D01*
X127851821Y-130555503D01*
X127971519Y-130591813D01*
X128096001Y-130604073D01*
X129596001Y-130604073D01*
X129720483Y-130591813D01*
X129840181Y-130555503D01*
X129950495Y-130496538D01*
X130005982Y-130451001D01*
X130398712Y-130451001D01*
X133415000Y-133467289D01*
X133415001Y-143158779D01*
X133372038Y-143194038D01*
X133350000Y-143220891D01*
X133327962Y-143194038D01*
X133193387Y-143083595D01*
X133039851Y-143001528D01*
X132873255Y-142950992D01*
X132700001Y-142933928D01*
X131999999Y-142933928D01*
X131826745Y-142950992D01*
X131660149Y-143001528D01*
X131506613Y-143083595D01*
X131372038Y-143194038D01*
X131261595Y-143328613D01*
X131179528Y-143482149D01*
X131128992Y-143648745D01*
X131111928Y-143821999D01*
X131111928Y-144722001D01*
X131128992Y-144895255D01*
X131179528Y-145061851D01*
X131215000Y-145128215D01*
X131215001Y-147849867D01*
X127760865Y-151304004D01*
X127717551Y-151339551D01*
X127575716Y-151512377D01*
X127483178Y-151685506D01*
X127470324Y-151709554D01*
X127405423Y-151923502D01*
X127383509Y-152146000D01*
X127389000Y-152201752D01*
X127389001Y-155554317D01*
X127319506Y-155591463D01*
X127222815Y-155670815D01*
X127143463Y-155767506D01*
X127084498Y-155877820D01*
X127063607Y-155946687D01*
X127039134Y-155916866D01*
X126919000Y-155818275D01*
X126919000Y-151898289D01*
X129533660Y-149283629D01*
X129569344Y-149254344D01*
X129686186Y-149111972D01*
X129773007Y-148949540D01*
X129826471Y-148773292D01*
X129840000Y-148635932D01*
X129840000Y-148635931D01*
X129844524Y-148590000D01*
X129840000Y-148544068D01*
X129840000Y-133910931D01*
X129844524Y-133864999D01*
X129826471Y-133681707D01*
X129783987Y-133541658D01*
X129773007Y-133505460D01*
X129686186Y-133343028D01*
X129569344Y-133200656D01*
X129533664Y-133171374D01*
X126894073Y-130531784D01*
X126894073Y-130016001D01*
X126881813Y-129891519D01*
X126845503Y-129771821D01*
X126786538Y-129661507D01*
X126707186Y-129564816D01*
X126610495Y-129485464D01*
X126500181Y-129426499D01*
X126380483Y-129390189D01*
X126256001Y-129377929D01*
X125356001Y-129377929D01*
X125231519Y-129390189D01*
X125171001Y-129408547D01*
X125110483Y-129390189D01*
X124986001Y-129377929D01*
X124086001Y-129377929D01*
X123961519Y-129390189D01*
X123901001Y-129408547D01*
X123840483Y-129390189D01*
X123716001Y-129377929D01*
X122816001Y-129377929D01*
X122691519Y-129390189D01*
X122631001Y-129408547D01*
X122570483Y-129390189D01*
X122446001Y-129377929D01*
X121546001Y-129377929D01*
X121421519Y-129390189D01*
X121361001Y-129408547D01*
X121300483Y-129390189D01*
X121176001Y-129377929D01*
X120276001Y-129377929D01*
X120151519Y-129390189D01*
X120091001Y-129408547D01*
X120030483Y-129390189D01*
X119906001Y-129377929D01*
X119006001Y-129377929D01*
X118881519Y-129390189D01*
X118821001Y-129408547D01*
X118760483Y-129390189D01*
X118636001Y-129377929D01*
X117736001Y-129377929D01*
X117611519Y-129390189D01*
X117551001Y-129408547D01*
X117490483Y-129390189D01*
X117366001Y-129377929D01*
X116466001Y-129377929D01*
X116341519Y-129390189D01*
X116281001Y-129408547D01*
X116220483Y-129390189D01*
X116096001Y-129377929D01*
X115196001Y-129377929D01*
X115071519Y-129390189D01*
X115011001Y-129408547D01*
X114950483Y-129390189D01*
X114826001Y-129377929D01*
X114661751Y-129381001D01*
X114503001Y-129539751D01*
X114503001Y-130639001D01*
X114523001Y-130639001D01*
X114523001Y-130893001D01*
X114503001Y-130893001D01*
X114503001Y-131992251D01*
X114661751Y-132151001D01*
X114826001Y-132154073D01*
X114950483Y-132141813D01*
X115011001Y-132123455D01*
X115071519Y-132141813D01*
X115196001Y-132154073D01*
X116096001Y-132154073D01*
X116220483Y-132141813D01*
X116281001Y-132123455D01*
X116341519Y-132141813D01*
X116466001Y-132154073D01*
X117366001Y-132154073D01*
X117490483Y-132141813D01*
X117551001Y-132123455D01*
X117611519Y-132141813D01*
X117736001Y-132154073D01*
X118636001Y-132154073D01*
X118760483Y-132141813D01*
X118821001Y-132123455D01*
X118881519Y-132141813D01*
X119006001Y-132154073D01*
X119906001Y-132154073D01*
X120030483Y-132141813D01*
X120091001Y-132123455D01*
X120151519Y-132141813D01*
X120276001Y-132154073D01*
X121176001Y-132154073D01*
X121300483Y-132141813D01*
X121361001Y-132123455D01*
X121421519Y-132141813D01*
X121546001Y-132154073D01*
X122446001Y-132154073D01*
X122570483Y-132141813D01*
X122631001Y-132123455D01*
X122691519Y-132141813D01*
X122816001Y-132154073D01*
X123601001Y-132154073D01*
X123601001Y-133380069D01*
X123596477Y-133426001D01*
X123613809Y-133601971D01*
X123614530Y-133609292D01*
X123667994Y-133785540D01*
X123754815Y-133947972D01*
X123871657Y-134090345D01*
X123907342Y-134119631D01*
X125430001Y-135642291D01*
X125430000Y-147440711D01*
X122815336Y-150055375D01*
X122779657Y-150084656D01*
X122662815Y-150227028D01*
X122649556Y-150251834D01*
X122575994Y-150389460D01*
X122522529Y-150565709D01*
X122504476Y-150749000D01*
X122509001Y-150794942D01*
X122509000Y-155818274D01*
X122388866Y-155916866D01*
X122203294Y-156142986D01*
X122168799Y-156207523D01*
X122099178Y-156090645D01*
X121904269Y-155874412D01*
X121670920Y-155700359D01*
X121408099Y-155575175D01*
X121260890Y-155530524D01*
X121031000Y-155651845D01*
X121031000Y-156845000D01*
X121051000Y-156845000D01*
X121051000Y-157099000D01*
X121031000Y-157099000D01*
X121031000Y-158292155D01*
X121260890Y-158413476D01*
X121408099Y-158368825D01*
X121670920Y-158243641D01*
X121904269Y-158069588D01*
X122099178Y-157853355D01*
X122168799Y-157736477D01*
X122203294Y-157801014D01*
X122388866Y-158027134D01*
X122614986Y-158212706D01*
X122872966Y-158350599D01*
X123152889Y-158435513D01*
X123371050Y-158457000D01*
X123516950Y-158457000D01*
X123735111Y-158435513D01*
X124015034Y-158350599D01*
X124273014Y-158212706D01*
X124499134Y-158027134D01*
X124684706Y-157801014D01*
X124714000Y-157746209D01*
X124743294Y-157801014D01*
X124928866Y-158027134D01*
X125154986Y-158212706D01*
X125412966Y-158350599D01*
X125692889Y-158435513D01*
X125911050Y-158457000D01*
X126056950Y-158457000D01*
X126275111Y-158435513D01*
X126555034Y-158350599D01*
X126813014Y-158212706D01*
X127039134Y-158027134D01*
X127063607Y-157997313D01*
X127084498Y-158066180D01*
X127143463Y-158176494D01*
X127222815Y-158273185D01*
X127319506Y-158352537D01*
X127429820Y-158411502D01*
X127549518Y-158447812D01*
X127674000Y-158460072D01*
X129374000Y-158460072D01*
X129498482Y-158447812D01*
X129618180Y-158411502D01*
X129728494Y-158352537D01*
X129825185Y-158273185D01*
X129904537Y-158176494D01*
X129963502Y-158066180D01*
X129999812Y-157946482D01*
X130010299Y-157840000D01*
X132787928Y-157840000D01*
X132800188Y-157964482D01*
X132836498Y-158084180D01*
X132895463Y-158194494D01*
X132974815Y-158291185D01*
X133071506Y-158370537D01*
X133181820Y-158429502D01*
X133301518Y-158465812D01*
X133426000Y-158478072D01*
X133915250Y-158475000D01*
X134074000Y-158316250D01*
X134074000Y-157317000D01*
X134328000Y-157317000D01*
X134328000Y-158316250D01*
X134486750Y-158475000D01*
X134976000Y-158478072D01*
X135100482Y-158465812D01*
X135220180Y-158429502D01*
X135330494Y-158370537D01*
X135427185Y-158291185D01*
X135506537Y-158194494D01*
X135565502Y-158084180D01*
X135601812Y-157964482D01*
X135614072Y-157840000D01*
X140737928Y-157840000D01*
X140750188Y-157964482D01*
X140786498Y-158084180D01*
X140845463Y-158194494D01*
X140924815Y-158291185D01*
X141021506Y-158370537D01*
X141131820Y-158429502D01*
X141251518Y-158465812D01*
X141376000Y-158478072D01*
X141865250Y-158475000D01*
X142024000Y-158316250D01*
X142024000Y-157317000D01*
X142278000Y-157317000D01*
X142278000Y-158316250D01*
X142436750Y-158475000D01*
X142926000Y-158478072D01*
X143050482Y-158465812D01*
X143170180Y-158429502D01*
X143280494Y-158370537D01*
X143377185Y-158291185D01*
X143456537Y-158194494D01*
X143515502Y-158084180D01*
X143551812Y-157964482D01*
X143564072Y-157840000D01*
X143561000Y-157475750D01*
X143402250Y-157317000D01*
X142278000Y-157317000D01*
X142024000Y-157317000D01*
X140899750Y-157317000D01*
X140741000Y-157475750D01*
X140737928Y-157840000D01*
X135614072Y-157840000D01*
X135611000Y-157475750D01*
X135452250Y-157317000D01*
X134328000Y-157317000D01*
X134074000Y-157317000D01*
X132949750Y-157317000D01*
X132791000Y-157475750D01*
X132787928Y-157840000D01*
X130010299Y-157840000D01*
X130012072Y-157822000D01*
X130012072Y-156540000D01*
X132787928Y-156540000D01*
X132791000Y-156904250D01*
X132949750Y-157063000D01*
X134074000Y-157063000D01*
X134074000Y-156063750D01*
X134328000Y-156063750D01*
X134328000Y-157063000D01*
X135452250Y-157063000D01*
X135611000Y-156904250D01*
X135614072Y-156540000D01*
X140737928Y-156540000D01*
X140741000Y-156904250D01*
X140899750Y-157063000D01*
X142024000Y-157063000D01*
X142024000Y-156063750D01*
X142278000Y-156063750D01*
X142278000Y-157063000D01*
X143402250Y-157063000D01*
X143561000Y-156904250D01*
X143564072Y-156540000D01*
X143551812Y-156415518D01*
X143515502Y-156295820D01*
X143456537Y-156185506D01*
X143377185Y-156088815D01*
X143280494Y-156009463D01*
X143170180Y-155950498D01*
X143050482Y-155914188D01*
X142926000Y-155901928D01*
X142436750Y-155905000D01*
X142278000Y-156063750D01*
X142024000Y-156063750D01*
X141865250Y-155905000D01*
X141376000Y-155901928D01*
X141251518Y-155914188D01*
X141131820Y-155950498D01*
X141021506Y-156009463D01*
X140924815Y-156088815D01*
X140845463Y-156185506D01*
X140786498Y-156295820D01*
X140750188Y-156415518D01*
X140737928Y-156540000D01*
X135614072Y-156540000D01*
X135601812Y-156415518D01*
X135565502Y-156295820D01*
X135506537Y-156185506D01*
X135427185Y-156088815D01*
X135330494Y-156009463D01*
X135220180Y-155950498D01*
X135100482Y-155914188D01*
X134976000Y-155901928D01*
X134486750Y-155905000D01*
X134328000Y-156063750D01*
X134074000Y-156063750D01*
X133915250Y-155905000D01*
X133426000Y-155901928D01*
X133301518Y-155914188D01*
X133181820Y-155950498D01*
X133071506Y-156009463D01*
X132974815Y-156088815D01*
X132895463Y-156185506D01*
X132836498Y-156295820D01*
X132800188Y-156415518D01*
X132787928Y-156540000D01*
X130012072Y-156540000D01*
X130012072Y-156122000D01*
X129999812Y-155997518D01*
X129963502Y-155877820D01*
X129904537Y-155767506D01*
X129825185Y-155670815D01*
X129728494Y-155591463D01*
X129659000Y-155554317D01*
X129659000Y-152616131D01*
X133113141Y-149161991D01*
X133156449Y-149126449D01*
X133298284Y-148953623D01*
X133403676Y-148756447D01*
X133415001Y-148719115D01*
X133415001Y-151403011D01*
X133301518Y-151414188D01*
X133181820Y-151450498D01*
X133071506Y-151509463D01*
X132974815Y-151588815D01*
X132895463Y-151685506D01*
X132836498Y-151795820D01*
X132800188Y-151915518D01*
X132787928Y-152040000D01*
X132787928Y-153340000D01*
X132800188Y-153464482D01*
X132836498Y-153584180D01*
X132895463Y-153694494D01*
X132974815Y-153791185D01*
X133071506Y-153870537D01*
X133181820Y-153929502D01*
X133301518Y-153965812D01*
X133426000Y-153978072D01*
X134976000Y-153978072D01*
X135100482Y-153965812D01*
X135220180Y-153929502D01*
X135330494Y-153870537D01*
X135427185Y-153791185D01*
X135506537Y-153694494D01*
X135543683Y-153625000D01*
X140808317Y-153625000D01*
X140845463Y-153694494D01*
X140924815Y-153791185D01*
X141021506Y-153870537D01*
X141131820Y-153929502D01*
X141251518Y-153965812D01*
X141376000Y-153978072D01*
X142926000Y-153978072D01*
X143050482Y-153965812D01*
X143170180Y-153929502D01*
X143280494Y-153870537D01*
X143377185Y-153791185D01*
X143456537Y-153694494D01*
X143515502Y-153584180D01*
X143551812Y-153464482D01*
X143564072Y-153340000D01*
X143564072Y-152040000D01*
X143551812Y-151915518D01*
X143515502Y-151795820D01*
X143456537Y-151685506D01*
X143377185Y-151588815D01*
X143280494Y-151509463D01*
X143170180Y-151450498D01*
X143050482Y-151414188D01*
X142926000Y-151401928D01*
X141376000Y-151401928D01*
X141251518Y-151414188D01*
X141131820Y-151450498D01*
X141021506Y-151509463D01*
X140924815Y-151588815D01*
X140845463Y-151685506D01*
X140808317Y-151755000D01*
X135543683Y-151755000D01*
X135506537Y-151685506D01*
X135427185Y-151588815D01*
X135330494Y-151509463D01*
X135285000Y-151485146D01*
X135285000Y-145385220D01*
X135327962Y-145349962D01*
X135438405Y-145215387D01*
X135520472Y-145061851D01*
X135571008Y-144895255D01*
X135588072Y-144722001D01*
X135588072Y-143821999D01*
X135571008Y-143648745D01*
X135520472Y-143482149D01*
X135438405Y-143328613D01*
X135327962Y-143194038D01*
X135285000Y-143158780D01*
X135285000Y-133125935D01*
X135289524Y-133080000D01*
X135271472Y-132896708D01*
X135218007Y-132720459D01*
X135177575Y-132644816D01*
X135131186Y-132558028D01*
X135014344Y-132415656D01*
X134978660Y-132386371D01*
X131479631Y-128887342D01*
X131450345Y-128851657D01*
X131307973Y-128734815D01*
X131145541Y-128647994D01*
X130969293Y-128594530D01*
X130831933Y-128581001D01*
X130786001Y-128576477D01*
X130740069Y-128581001D01*
X130234073Y-128581001D01*
X130234073Y-127796001D01*
X130221813Y-127671519D01*
X130203455Y-127611001D01*
X130221813Y-127550483D01*
X130234073Y-127426001D01*
X130234073Y-126526001D01*
X130221813Y-126401519D01*
X130203455Y-126341001D01*
X130221813Y-126280483D01*
X130234073Y-126156001D01*
X130234073Y-125799168D01*
X136340989Y-131906085D01*
X136340990Y-134743047D01*
X136336465Y-134788989D01*
X136354518Y-134972280D01*
X136392296Y-135096815D01*
X136407983Y-135148529D01*
X136494804Y-135310961D01*
X136611646Y-135453333D01*
X136647325Y-135482614D01*
X142890370Y-141725659D01*
X142919656Y-141761344D01*
X143062028Y-141878186D01*
X143167880Y-141934765D01*
X143224459Y-141965007D01*
X143400708Y-142018472D01*
X143554459Y-142033615D01*
X143558188Y-142071482D01*
X143594498Y-142191180D01*
X143653463Y-142301494D01*
X143732815Y-142398185D01*
X143829506Y-142477537D01*
X143939820Y-142536502D01*
X144059518Y-142572812D01*
X144184000Y-142585072D01*
X145884000Y-142585072D01*
X146008482Y-142572812D01*
X146128180Y-142536502D01*
X146238494Y-142477537D01*
X146335185Y-142398185D01*
X146414537Y-142301494D01*
X146473502Y-142191180D01*
X146509812Y-142071482D01*
X146522072Y-141947000D01*
X146522072Y-140247000D01*
X146509812Y-140122518D01*
X146473502Y-140002820D01*
X146414537Y-139892506D01*
X146335185Y-139795815D01*
X146238494Y-139716463D01*
X146128180Y-139657498D01*
X146059313Y-139636607D01*
X146089134Y-139612134D01*
X146274706Y-139386014D01*
X146412599Y-139128034D01*
X146497513Y-138848111D01*
X146526185Y-138557000D01*
X146497513Y-138265889D01*
X146412599Y-137985966D01*
X146274706Y-137727986D01*
X146089134Y-137501866D01*
X145863014Y-137316294D01*
X145808209Y-137287000D01*
X145863014Y-137257706D01*
X146089134Y-137072134D01*
X146274706Y-136846014D01*
X146412599Y-136588034D01*
X146497513Y-136308111D01*
X146526185Y-136017000D01*
X146497513Y-135725889D01*
X146412599Y-135445966D01*
X146274706Y-135187986D01*
X146089134Y-134961866D01*
X145863014Y-134776294D01*
X145808209Y-134747000D01*
X145863014Y-134717706D01*
X146089134Y-134532134D01*
X146274706Y-134306014D01*
X146412599Y-134048034D01*
X146497513Y-133768111D01*
X146526185Y-133477000D01*
X146497513Y-133185889D01*
X146412599Y-132905966D01*
X146274706Y-132647986D01*
X146089134Y-132421866D01*
X145863014Y-132236294D01*
X145808209Y-132207000D01*
X145863014Y-132177706D01*
X146089134Y-131992134D01*
X146274706Y-131766014D01*
X146412599Y-131508034D01*
X146497513Y-131228111D01*
X146526185Y-130937000D01*
X146497513Y-130645889D01*
X146412599Y-130365966D01*
X146274706Y-130107986D01*
X146089134Y-129881866D01*
X145863014Y-129696294D01*
X145798477Y-129661799D01*
X145915355Y-129592178D01*
X146131588Y-129397269D01*
X146305641Y-129163920D01*
X146430825Y-128901099D01*
X146475476Y-128753890D01*
X146354155Y-128524000D01*
X145161000Y-128524000D01*
X145161000Y-128544000D01*
X144907000Y-128544000D01*
X144907000Y-128524000D01*
X143713845Y-128524000D01*
X143592524Y-128753890D01*
X143637175Y-128901099D01*
X143762359Y-129163920D01*
X143936412Y-129397269D01*
X144152645Y-129592178D01*
X144269523Y-129661799D01*
X144204986Y-129696294D01*
X143978866Y-129881866D01*
X143793294Y-130107986D01*
X143655401Y-130365966D01*
X143570487Y-130645889D01*
X143541815Y-130937000D01*
X143570487Y-131228111D01*
X143655401Y-131508034D01*
X143793294Y-131766014D01*
X143978866Y-131992134D01*
X144204986Y-132177706D01*
X144259791Y-132207000D01*
X144204986Y-132236294D01*
X143978866Y-132421866D01*
X143880275Y-132542000D01*
X142881289Y-132542000D01*
X138379399Y-128040110D01*
X143592524Y-128040110D01*
X143713845Y-128270000D01*
X144907000Y-128270000D01*
X144907000Y-127076186D01*
X145161000Y-127076186D01*
X145161000Y-128270000D01*
X146354155Y-128270000D01*
X146475476Y-128040110D01*
X146430825Y-127892901D01*
X146305641Y-127630080D01*
X146131588Y-127396731D01*
X145915355Y-127201822D01*
X145665252Y-127052843D01*
X145390891Y-126955519D01*
X145161000Y-127076186D01*
X144907000Y-127076186D01*
X144677109Y-126955519D01*
X144402748Y-127052843D01*
X144152645Y-127201822D01*
X143936412Y-127396731D01*
X143762359Y-127630080D01*
X143637175Y-127892901D01*
X143592524Y-128040110D01*
X138379399Y-128040110D01*
X131606631Y-121267342D01*
X131577345Y-121231657D01*
X131434973Y-121114815D01*
X131272541Y-121027994D01*
X131096293Y-120974530D01*
X130958933Y-120961001D01*
X130913001Y-120956477D01*
X130867069Y-120961001D01*
X130234073Y-120961001D01*
X130234073Y-120176001D01*
X130221813Y-120051519D01*
X130203455Y-119991001D01*
X130221813Y-119930483D01*
X130234073Y-119806001D01*
X130234073Y-119045000D01*
X137114066Y-119045000D01*
X137160000Y-119049524D01*
X137205935Y-119045000D01*
X137280711Y-119045000D01*
X138371374Y-120135664D01*
X138400656Y-120171344D01*
X138543028Y-120288186D01*
X138705460Y-120375007D01*
X138799904Y-120403656D01*
X138881707Y-120428471D01*
X139064999Y-120446524D01*
X139110931Y-120442000D01*
X144007275Y-120442000D01*
X144105866Y-120562134D01*
X144135687Y-120586607D01*
X144066820Y-120607498D01*
X143956506Y-120666463D01*
X143859815Y-120745815D01*
X143780463Y-120842506D01*
X143721498Y-120952820D01*
X143685188Y-121072518D01*
X143672928Y-121197000D01*
X143672928Y-122897000D01*
X143685188Y-123021482D01*
X143721498Y-123141180D01*
X143780463Y-123251494D01*
X143859815Y-123348185D01*
X143956506Y-123427537D01*
X144066820Y-123486502D01*
X144186518Y-123522812D01*
X144311000Y-123535072D01*
X146011000Y-123535072D01*
X146135482Y-123522812D01*
X146255180Y-123486502D01*
X146365494Y-123427537D01*
X146462185Y-123348185D01*
X146541537Y-123251494D01*
X146600502Y-123141180D01*
X146636812Y-123021482D01*
X146649072Y-122897000D01*
X146649072Y-121197000D01*
X146636812Y-121072518D01*
X146600502Y-120952820D01*
X146541537Y-120842506D01*
X146462185Y-120745815D01*
X146365494Y-120666463D01*
X146255180Y-120607498D01*
X146186313Y-120586607D01*
X146216134Y-120562134D01*
X146401706Y-120336014D01*
X146539599Y-120078034D01*
X146624513Y-119798111D01*
X146653185Y-119507000D01*
X146624513Y-119215889D01*
X146539599Y-118935966D01*
X146401706Y-118677986D01*
X146216134Y-118451866D01*
X145990014Y-118266294D01*
X145935209Y-118237000D01*
X145990014Y-118207706D01*
X146216134Y-118022134D01*
X146401706Y-117796014D01*
X146539599Y-117538034D01*
X146624513Y-117258111D01*
X146653185Y-116967000D01*
X146624513Y-116675889D01*
X146539599Y-116395966D01*
X146401706Y-116137986D01*
X146216134Y-115911866D01*
X145990014Y-115726294D01*
X145925477Y-115691799D01*
X146042355Y-115622178D01*
X146258588Y-115427269D01*
X146432641Y-115193920D01*
X146557825Y-114931099D01*
X146602476Y-114783890D01*
X146481155Y-114554000D01*
X145288000Y-114554000D01*
X145288000Y-114574000D01*
X145034000Y-114574000D01*
X145034000Y-114554000D01*
X143840845Y-114554000D01*
X143719524Y-114783890D01*
X143764175Y-114931099D01*
X143889359Y-115193920D01*
X144063412Y-115427269D01*
X144279645Y-115622178D01*
X144396523Y-115691799D01*
X144331986Y-115726294D01*
X144143475Y-115881001D01*
X132382336Y-115881001D01*
X132392147Y-115857314D01*
X132430000Y-115667014D01*
X132430000Y-115472986D01*
X132392147Y-115282686D01*
X132317896Y-115103428D01*
X132210099Y-114942099D01*
X132072901Y-114804901D01*
X131911572Y-114697104D01*
X131882246Y-114684957D01*
X131164161Y-113966872D01*
X143764789Y-114155881D01*
X143840845Y-114300000D01*
X145034000Y-114300000D01*
X145034000Y-113106186D01*
X145288000Y-113106186D01*
X145288000Y-114300000D01*
X146481155Y-114300000D01*
X146602476Y-114070110D01*
X146557825Y-113922901D01*
X146432641Y-113660080D01*
X146258588Y-113426731D01*
X146042355Y-113231822D01*
X145792252Y-113082843D01*
X145517891Y-112985519D01*
X145288000Y-113106186D01*
X145034000Y-113106186D01*
X145034000Y-108585000D01*
X147939537Y-108585000D01*
X147947047Y-108622756D01*
X147947047Y-108622756D01*
G37*
X147947047Y-108622756D02*
X148107988Y-109011302D01*
X148341637Y-109360983D01*
X148639017Y-109658363D01*
X148988698Y-109892012D01*
X149377244Y-110052953D01*
X149789721Y-110135000D01*
X150210279Y-110135000D01*
X150622756Y-110052953D01*
X151011302Y-109892012D01*
X151360983Y-109658363D01*
X151658363Y-109360983D01*
X151892012Y-109011302D01*
X152019000Y-108704726D01*
X152019000Y-159295274D01*
X151892012Y-158988698D01*
X151658363Y-158639017D01*
X151360983Y-158341637D01*
X151011302Y-158107988D01*
X150622756Y-157947047D01*
X150210279Y-157865000D01*
X149789721Y-157865000D01*
X149377244Y-157947047D01*
X148988698Y-158107988D01*
X148639017Y-158341637D01*
X148341637Y-158639017D01*
X148107988Y-158988698D01*
X147947047Y-159377244D01*
X147865000Y-159789721D01*
X147865000Y-160210279D01*
X147947047Y-160622756D01*
X148107988Y-161011302D01*
X148341637Y-161360983D01*
X148639017Y-161658363D01*
X148988698Y-161892012D01*
X149377244Y-162052953D01*
X149789721Y-162135000D01*
X150210279Y-162135000D01*
X150622756Y-162052953D01*
X151011302Y-161892012D01*
X151360983Y-161658363D01*
X151658363Y-161360983D01*
X151892012Y-161011302D01*
X152019000Y-160704726D01*
X152019000Y-162432792D01*
X74676300Y-162306208D01*
X74676758Y-162112530D01*
X74789721Y-162135000D01*
X75210279Y-162135000D01*
X75622756Y-162052953D01*
X76011302Y-161892012D01*
X76360983Y-161658363D01*
X76658363Y-161360983D01*
X76892012Y-161011302D01*
X77012673Y-160720000D01*
X104441928Y-160720000D01*
X104454188Y-160844482D01*
X104490498Y-160964180D01*
X104549463Y-161074494D01*
X104628815Y-161171185D01*
X104725506Y-161250537D01*
X104835820Y-161309502D01*
X104955518Y-161345812D01*
X105080000Y-161358072D01*
X105369250Y-161355000D01*
X105528000Y-161196250D01*
X105528000Y-160147000D01*
X104603750Y-160147000D01*
X104445000Y-160305750D01*
X104441928Y-160720000D01*
X77012673Y-160720000D01*
X77052953Y-160622756D01*
X77135000Y-160210279D01*
X77135000Y-159789721D01*
X77052953Y-159377244D01*
X77029242Y-159320000D01*
X104441928Y-159320000D01*
X104445000Y-159734250D01*
X104603750Y-159893000D01*
X105528000Y-159893000D01*
X105528000Y-158843750D01*
X105369250Y-158685000D01*
X105080000Y-158681928D01*
X104955518Y-158694188D01*
X104835820Y-158730498D01*
X104725506Y-158789463D01*
X104628815Y-158868815D01*
X104549463Y-158965506D01*
X104490498Y-159075820D01*
X104454188Y-159195518D01*
X104441928Y-159320000D01*
X77029242Y-159320000D01*
X76892012Y-158988698D01*
X76658363Y-158639017D01*
X76360983Y-158341637D01*
X76011302Y-158107988D01*
X75622756Y-157947047D01*
X75210279Y-157865000D01*
X74789721Y-157865000D01*
X74686751Y-157885482D01*
X74724695Y-141834890D01*
X77298524Y-141834890D01*
X77343175Y-141982099D01*
X77468359Y-142244920D01*
X77642412Y-142478269D01*
X77858645Y-142673178D01*
X78108748Y-142822157D01*
X78383109Y-142919481D01*
X78613000Y-142798814D01*
X78613000Y-141605000D01*
X78867000Y-141605000D01*
X78867000Y-142798814D01*
X79096891Y-142919481D01*
X79371252Y-142822157D01*
X79621355Y-142673178D01*
X79837588Y-142478269D01*
X80011641Y-142244920D01*
X80136825Y-141982099D01*
X80181476Y-141834890D01*
X80060155Y-141605000D01*
X78867000Y-141605000D01*
X78613000Y-141605000D01*
X77419845Y-141605000D01*
X77298524Y-141834890D01*
X74724695Y-141834890D01*
X74751115Y-130658890D01*
X77298524Y-130658890D01*
X77343175Y-130806099D01*
X77468359Y-131068920D01*
X77642412Y-131302269D01*
X77858645Y-131497178D01*
X78108748Y-131646157D01*
X78383109Y-131743481D01*
X78613000Y-131622814D01*
X78613000Y-130429000D01*
X78867000Y-130429000D01*
X78867000Y-131622814D01*
X79096891Y-131743481D01*
X79371252Y-131646157D01*
X79621355Y-131497178D01*
X79837588Y-131302269D01*
X80011641Y-131068920D01*
X80136825Y-130806099D01*
X80181476Y-130658890D01*
X80060155Y-130429000D01*
X78867000Y-130429000D01*
X78613000Y-130429000D01*
X77419845Y-130429000D01*
X77298524Y-130658890D01*
X74751115Y-130658890D01*
X74794201Y-112434000D01*
X76997928Y-112434000D01*
X77001000Y-112998250D01*
X77159750Y-113157000D01*
X78359000Y-113157000D01*
X78359000Y-111957750D01*
X78613000Y-111957750D01*
X78613000Y-113157000D01*
X79812250Y-113157000D01*
X79971000Y-112998250D01*
X79974072Y-112434000D01*
X79961812Y-112309518D01*
X79948611Y-112266000D01*
X88937928Y-112266000D01*
X88941000Y-112730250D01*
X89099750Y-112889000D01*
X90449000Y-112889000D01*
X90449000Y-111789750D01*
X90703000Y-111789750D01*
X90703000Y-112889000D01*
X92052250Y-112889000D01*
X92211000Y-112730250D01*
X92214072Y-112266000D01*
X92201812Y-112141518D01*
X92165502Y-112021820D01*
X92106537Y-111911506D01*
X92027185Y-111814815D01*
X91930494Y-111735463D01*
X91820180Y-111676498D01*
X91700482Y-111640188D01*
X91576000Y-111627928D01*
X90861750Y-111631000D01*
X90703000Y-111789750D01*
X90449000Y-111789750D01*
X90290250Y-111631000D01*
X89576000Y-111627928D01*
X89451518Y-111640188D01*
X89331820Y-111676498D01*
X89221506Y-111735463D01*
X89124815Y-111814815D01*
X89045463Y-111911506D01*
X88986498Y-112021820D01*
X88950188Y-112141518D01*
X88937928Y-112266000D01*
X79948611Y-112266000D01*
X79925502Y-112189820D01*
X79866537Y-112079506D01*
X79787185Y-111982815D01*
X79690494Y-111903463D01*
X79580180Y-111844498D01*
X79460482Y-111808188D01*
X79336000Y-111795928D01*
X78771750Y-111799000D01*
X78613000Y-111957750D01*
X78359000Y-111957750D01*
X78200250Y-111799000D01*
X77636000Y-111795928D01*
X77511518Y-111808188D01*
X77391820Y-111844498D01*
X77281506Y-111903463D01*
X77184815Y-111982815D01*
X77105463Y-112079506D01*
X77046498Y-112189820D01*
X77010188Y-112309518D01*
X76997928Y-112434000D01*
X74794201Y-112434000D01*
X74799637Y-110135000D01*
X75210279Y-110135000D01*
X75622756Y-110052953D01*
X76011302Y-109892012D01*
X76360983Y-109658363D01*
X76658363Y-109360983D01*
X76892012Y-109011302D01*
X76919079Y-108945957D01*
X82670959Y-109219856D01*
X82695824Y-109218597D01*
X82719965Y-109212512D01*
X82742455Y-109201833D01*
X82762429Y-109186972D01*
X82779121Y-109168500D01*
X82791888Y-109147127D01*
X82800240Y-109123673D01*
X82803856Y-109099041D01*
X82803406Y-109090160D01*
X93733013Y-108841760D01*
X93980196Y-113291045D01*
X93984006Y-113315648D01*
X93992544Y-113339034D01*
X94005480Y-113360306D01*
X94022317Y-113378646D01*
X94042409Y-113393348D01*
X94064982Y-113403848D01*
X94089171Y-113409742D01*
X94105095Y-113410986D01*
X95237928Y-113427978D01*
X95237928Y-114181000D01*
X95014741Y-114181000D01*
X94958999Y-114175510D01*
X94903257Y-114181000D01*
X92081501Y-114181000D01*
X92069191Y-114166000D01*
X92106537Y-114120494D01*
X92165502Y-114010180D01*
X92201812Y-113890482D01*
X92214072Y-113766000D01*
X92211000Y-113301750D01*
X92052250Y-113143000D01*
X90703000Y-113143000D01*
X90703000Y-113163000D01*
X90449000Y-113163000D01*
X90449000Y-113143000D01*
X89099750Y-113143000D01*
X88941000Y-113301750D01*
X88937928Y-113766000D01*
X88950188Y-113890482D01*
X88986498Y-114010180D01*
X89045463Y-114120494D01*
X89082809Y-114166000D01*
X89045463Y-114211506D01*
X88986498Y-114321820D01*
X88950188Y-114441518D01*
X88937928Y-114566000D01*
X88937928Y-116066000D01*
X88950188Y-116190482D01*
X88986498Y-116310180D01*
X89045463Y-116420494D01*
X89082809Y-116466000D01*
X89045463Y-116511506D01*
X88986498Y-116621820D01*
X88950188Y-116741518D01*
X88944133Y-116803000D01*
X87709995Y-115568864D01*
X87674449Y-115525551D01*
X87501623Y-115383716D01*
X87304447Y-115278324D01*
X87298030Y-115276377D01*
X87361537Y-115198994D01*
X87420502Y-115088680D01*
X87456812Y-114968982D01*
X87469072Y-114844500D01*
X87466000Y-114542750D01*
X87307250Y-114384000D01*
X86233000Y-114384000D01*
X86233000Y-114404000D01*
X85979000Y-114404000D01*
X85979000Y-114384000D01*
X84904750Y-114384000D01*
X84746000Y-114542750D01*
X84742928Y-114844500D01*
X84755188Y-114968982D01*
X84791498Y-115088680D01*
X84849397Y-115197000D01*
X82512131Y-115197000D01*
X82375996Y-115060865D01*
X82340449Y-115017551D01*
X82167623Y-114875716D01*
X81970447Y-114770324D01*
X81756499Y-114705423D01*
X81589752Y-114689000D01*
X81589751Y-114689000D01*
X81534000Y-114683509D01*
X81478249Y-114689000D01*
X79644728Y-114689000D01*
X79690494Y-114664537D01*
X79787185Y-114585185D01*
X79866537Y-114488494D01*
X79925502Y-114378180D01*
X79961812Y-114258482D01*
X79974072Y-114134000D01*
X79971544Y-113669500D01*
X84742928Y-113669500D01*
X84746000Y-113971250D01*
X84904750Y-114130000D01*
X85979000Y-114130000D01*
X85979000Y-113193250D01*
X86233000Y-113193250D01*
X86233000Y-114130000D01*
X87307250Y-114130000D01*
X87466000Y-113971250D01*
X87469072Y-113669500D01*
X87456812Y-113545018D01*
X87420502Y-113425320D01*
X87361537Y-113315006D01*
X87282185Y-113218315D01*
X87185494Y-113138963D01*
X87075180Y-113079998D01*
X86955482Y-113043688D01*
X86831000Y-113031428D01*
X86391750Y-113034500D01*
X86233000Y-113193250D01*
X85979000Y-113193250D01*
X85820250Y-113034500D01*
X85381000Y-113031428D01*
X85256518Y-113043688D01*
X85136820Y-113079998D01*
X85026506Y-113138963D01*
X84929815Y-113218315D01*
X84850463Y-113315006D01*
X84791498Y-113425320D01*
X84755188Y-113545018D01*
X84742928Y-113669500D01*
X79971544Y-113669500D01*
X79971000Y-113569750D01*
X79812250Y-113411000D01*
X78613000Y-113411000D01*
X78613000Y-113431000D01*
X78359000Y-113431000D01*
X78359000Y-113411000D01*
X77159750Y-113411000D01*
X77001000Y-113569750D01*
X76997928Y-114134000D01*
X77010188Y-114258482D01*
X77046498Y-114378180D01*
X77105463Y-114488494D01*
X77184815Y-114585185D01*
X77281506Y-114664537D01*
X77391820Y-114723502D01*
X77460687Y-114744393D01*
X77430866Y-114768866D01*
X77245294Y-114994986D01*
X77107401Y-115252966D01*
X77022487Y-115532889D01*
X76993815Y-115824000D01*
X77022487Y-116115111D01*
X77107401Y-116395034D01*
X77245294Y-116653014D01*
X77430866Y-116879134D01*
X77656986Y-117064706D01*
X77914966Y-117202599D01*
X78194889Y-117287513D01*
X78413050Y-117309000D01*
X78558950Y-117309000D01*
X78777111Y-117287513D01*
X79057034Y-117202599D01*
X79315014Y-117064706D01*
X79443817Y-116959000D01*
X81063869Y-116959000D01*
X81200004Y-117095135D01*
X81235551Y-117138449D01*
X81408377Y-117280284D01*
X81605553Y-117385676D01*
X81819501Y-117450577D01*
X81986248Y-117467000D01*
X81986257Y-117467000D01*
X82041999Y-117472490D01*
X82097741Y-117467000D01*
X85248173Y-117467000D01*
X85291150Y-117489972D01*
X85457746Y-117540508D01*
X85631000Y-117557572D01*
X86488441Y-117557572D01*
X87804013Y-118873146D01*
X87839551Y-118916449D01*
X87882854Y-118951987D01*
X87882856Y-118951989D01*
X88012377Y-119058284D01*
X88209553Y-119163676D01*
X88423501Y-119228577D01*
X88646000Y-119250491D01*
X88701752Y-119245000D01*
X90026249Y-119245000D01*
X90082000Y-119250491D01*
X90137751Y-119245000D01*
X90137752Y-119245000D01*
X90304499Y-119228577D01*
X90518447Y-119163676D01*
X90715623Y-119058284D01*
X90781680Y-119004072D01*
X91576000Y-119004072D01*
X91700482Y-118991812D01*
X91820180Y-118955502D01*
X91930494Y-118896537D01*
X92027185Y-118817185D01*
X92106537Y-118720494D01*
X92165502Y-118610180D01*
X92201812Y-118490482D01*
X92214072Y-118366000D01*
X92214072Y-116866000D01*
X92201812Y-116741518D01*
X92165502Y-116621820D01*
X92106537Y-116511506D01*
X92069191Y-116466000D01*
X92081501Y-116451000D01*
X93989394Y-116451000D01*
X94071378Y-116518283D01*
X94268554Y-116623676D01*
X94482502Y-116688577D01*
X94705000Y-116710491D01*
X94784175Y-116702693D01*
X92601693Y-118885176D01*
X92508493Y-118894356D01*
X92487500Y-118896423D01*
X92437705Y-118911529D01*
X92273553Y-118961324D01*
X92076377Y-119066716D01*
X91903551Y-119208551D01*
X91868011Y-119251857D01*
X90969869Y-120150000D01*
X86415752Y-120150000D01*
X86360000Y-120144509D01*
X86304248Y-120150000D01*
X86137501Y-120166423D01*
X85923553Y-120231324D01*
X85726377Y-120336716D01*
X85553551Y-120478551D01*
X85518011Y-120521857D01*
X81952869Y-124087000D01*
X80157683Y-124087000D01*
X80120537Y-124017506D01*
X80041185Y-123920815D01*
X79944494Y-123841463D01*
X79834180Y-123782498D01*
X79714482Y-123746188D01*
X79590000Y-123733928D01*
X77890000Y-123733928D01*
X77765518Y-123746188D01*
X77645820Y-123782498D01*
X77535506Y-123841463D01*
X77438815Y-123920815D01*
X77359463Y-124017506D01*
X77300498Y-124127820D01*
X77264188Y-124247518D01*
X77251928Y-124372000D01*
X77251928Y-126072000D01*
X77264188Y-126196482D01*
X77300498Y-126316180D01*
X77359463Y-126426494D01*
X77438815Y-126523185D01*
X77535506Y-126602537D01*
X77645820Y-126661502D01*
X77714687Y-126682393D01*
X77684866Y-126706866D01*
X77499294Y-126932986D01*
X77361401Y-127190966D01*
X77276487Y-127470889D01*
X77247815Y-127762000D01*
X77276487Y-128053111D01*
X77361401Y-128333034D01*
X77499294Y-128591014D01*
X77684866Y-128817134D01*
X77910986Y-129002706D01*
X77975523Y-129037201D01*
X77858645Y-129106822D01*
X77642412Y-129301731D01*
X77468359Y-129535080D01*
X77343175Y-129797901D01*
X77298524Y-129945110D01*
X77419845Y-130175000D01*
X78613000Y-130175000D01*
X78613000Y-130155000D01*
X78867000Y-130155000D01*
X78867000Y-130175000D01*
X80060155Y-130175000D01*
X80181476Y-129945110D01*
X80136825Y-129797901D01*
X80011641Y-129535080D01*
X79837588Y-129301731D01*
X79621355Y-129106822D01*
X79504477Y-129037201D01*
X79569014Y-129002706D01*
X79795134Y-128817134D01*
X79893725Y-128697000D01*
X86816883Y-128697000D01*
X86813928Y-128727000D01*
X86813928Y-130027000D01*
X86826188Y-130151482D01*
X86862498Y-130271180D01*
X86921463Y-130381494D01*
X87000815Y-130478185D01*
X87097506Y-130557537D01*
X87207820Y-130616502D01*
X87327518Y-130652812D01*
X87452000Y-130665072D01*
X89002000Y-130665072D01*
X89126482Y-130652812D01*
X89246180Y-130616502D01*
X89356494Y-130557537D01*
X89453185Y-130478185D01*
X89532537Y-130381494D01*
X89569683Y-130312000D01*
X94834317Y-130312000D01*
X94871463Y-130381494D01*
X94950815Y-130478185D01*
X95047506Y-130557537D01*
X95157820Y-130616502D01*
X95277518Y-130652812D01*
X95402000Y-130665072D01*
X96952000Y-130665072D01*
X97076482Y-130652812D01*
X97196180Y-130616502D01*
X97306494Y-130557537D01*
X97403185Y-130478185D01*
X97482537Y-130381494D01*
X97519683Y-130312000D01*
X99812068Y-130312000D01*
X99858000Y-130316524D01*
X99903932Y-130312000D01*
X100041292Y-130298471D01*
X100217540Y-130245007D01*
X100379972Y-130158186D01*
X100522344Y-130041344D01*
X100551630Y-130005659D01*
X101339662Y-129217628D01*
X101393614Y-129261905D01*
X101547150Y-129343972D01*
X101713746Y-129394508D01*
X101887000Y-129411572D01*
X102837000Y-129411572D01*
X103010254Y-129394508D01*
X103176850Y-129343972D01*
X103228875Y-129316164D01*
X103254957Y-129342246D01*
X103267104Y-129371572D01*
X103374901Y-129532901D01*
X103512099Y-129670099D01*
X103673428Y-129777896D01*
X103852686Y-129852147D01*
X104042986Y-129890000D01*
X104237014Y-129890000D01*
X104427314Y-129852147D01*
X104475001Y-129832395D01*
X104475001Y-136208358D01*
X104462853Y-136237686D01*
X104425000Y-136427986D01*
X104425000Y-136622014D01*
X104458694Y-136791404D01*
X103805000Y-136137711D01*
X103805000Y-131126639D01*
X103817147Y-131097314D01*
X103855000Y-130907014D01*
X103855000Y-130712986D01*
X103817147Y-130522686D01*
X103742896Y-130343428D01*
X103635099Y-130182099D01*
X103497901Y-130044901D01*
X103336572Y-129937104D01*
X103157314Y-129862853D01*
X102967014Y-129825000D01*
X102772986Y-129825000D01*
X102582686Y-129862853D01*
X102403428Y-129937104D01*
X102242099Y-130044901D01*
X102104901Y-130182099D01*
X101997104Y-130343428D01*
X101922853Y-130522686D01*
X101885000Y-130712986D01*
X101885000Y-130907014D01*
X101922853Y-131097314D01*
X101935000Y-131126640D01*
X101935001Y-133692605D01*
X101887314Y-133672853D01*
X101697014Y-133635000D01*
X101502986Y-133635000D01*
X101312686Y-133672853D01*
X101133428Y-133747104D01*
X100972099Y-133854901D01*
X100834901Y-133992099D01*
X100727104Y-134153428D01*
X100714957Y-134182754D01*
X100577711Y-134320000D01*
X86405935Y-134320000D01*
X86360000Y-134315476D01*
X86176708Y-134333528D01*
X86000459Y-134386993D01*
X85953675Y-134412000D01*
X85838028Y-134473814D01*
X85695656Y-134590656D01*
X85666370Y-134626341D01*
X82289711Y-138003000D01*
X79893725Y-138003000D01*
X79795134Y-137882866D01*
X79765313Y-137858393D01*
X79834180Y-137837502D01*
X79944494Y-137778537D01*
X80041185Y-137699185D01*
X80120537Y-137602494D01*
X80179502Y-137492180D01*
X80215812Y-137372482D01*
X80228072Y-137248000D01*
X80228072Y-135548000D01*
X80215812Y-135423518D01*
X80179502Y-135303820D01*
X80120537Y-135193506D01*
X80041185Y-135096815D01*
X79944494Y-135017463D01*
X79834180Y-134958498D01*
X79714482Y-134922188D01*
X79590000Y-134909928D01*
X77890000Y-134909928D01*
X77765518Y-134922188D01*
X77645820Y-134958498D01*
X77535506Y-135017463D01*
X77438815Y-135096815D01*
X77359463Y-135193506D01*
X77300498Y-135303820D01*
X77264188Y-135423518D01*
X77251928Y-135548000D01*
X77251928Y-137248000D01*
X77264188Y-137372482D01*
X77300498Y-137492180D01*
X77359463Y-137602494D01*
X77438815Y-137699185D01*
X77535506Y-137778537D01*
X77645820Y-137837502D01*
X77714687Y-137858393D01*
X77684866Y-137882866D01*
X77499294Y-138108986D01*
X77361401Y-138366966D01*
X77276487Y-138646889D01*
X77247815Y-138938000D01*
X77276487Y-139229111D01*
X77361401Y-139509034D01*
X77499294Y-139767014D01*
X77684866Y-139993134D01*
X77910986Y-140178706D01*
X77975523Y-140213201D01*
X77858645Y-140282822D01*
X77642412Y-140477731D01*
X77468359Y-140711080D01*
X77343175Y-140973901D01*
X77298524Y-141121110D01*
X77419845Y-141351000D01*
X78613000Y-141351000D01*
X78613000Y-141331000D01*
X78867000Y-141331000D01*
X78867000Y-141351000D01*
X80060155Y-141351000D01*
X80181476Y-141121110D01*
X80136825Y-140973901D01*
X80011641Y-140711080D01*
X79837588Y-140477731D01*
X79621355Y-140282822D01*
X79504477Y-140213201D01*
X79569014Y-140178706D01*
X79795134Y-139993134D01*
X79893725Y-139873000D01*
X82631068Y-139873000D01*
X82677000Y-139877524D01*
X82722932Y-139873000D01*
X82860292Y-139859471D01*
X83036540Y-139806007D01*
X83198972Y-139719186D01*
X83341344Y-139602344D01*
X83370630Y-139566659D01*
X86747289Y-136190000D01*
X100919068Y-136190000D01*
X100965000Y-136194524D01*
X101010932Y-136190000D01*
X101148292Y-136176471D01*
X101324540Y-136123007D01*
X101486972Y-136036186D01*
X101629344Y-135919344D01*
X101658630Y-135883659D01*
X101935001Y-135607288D01*
X101935001Y-136479058D01*
X101930476Y-136525000D01*
X101948529Y-136708291D01*
X101990085Y-136845281D01*
X102001994Y-136884540D01*
X102088815Y-137046972D01*
X102205657Y-137189344D01*
X102241336Y-137218625D01*
X103786375Y-138763665D01*
X103815657Y-138799345D01*
X103958029Y-138916187D01*
X104120461Y-139003008D01*
X104228088Y-139035656D01*
X104296708Y-139056472D01*
X104480000Y-139074525D01*
X104525932Y-139070001D01*
X104646999Y-139070001D01*
X104644901Y-139072099D01*
X104537104Y-139233428D01*
X104462853Y-139412686D01*
X104425000Y-139602986D01*
X104425000Y-139797014D01*
X104462853Y-139987314D01*
X104475000Y-140016640D01*
X104475001Y-143646938D01*
X104470476Y-143692880D01*
X104488529Y-143876171D01*
X104499538Y-143912461D01*
X104541994Y-144052420D01*
X104628815Y-144214852D01*
X104745657Y-144357224D01*
X104781336Y-144386505D01*
X105808574Y-145413744D01*
X105837856Y-145449424D01*
X105980228Y-145566266D01*
X106142660Y-145653087D01*
X106265443Y-145690333D01*
X106318907Y-145706551D01*
X106502199Y-145724604D01*
X106548131Y-145720080D01*
X106618429Y-145720080D01*
X103511336Y-148827173D01*
X103475657Y-148856454D01*
X103358815Y-148998826D01*
X103301054Y-149106891D01*
X103271994Y-149161258D01*
X103218529Y-149337507D01*
X103200476Y-149520798D01*
X103205001Y-149566740D01*
X103205000Y-154894068D01*
X103200476Y-154940000D01*
X103205000Y-154985931D01*
X103218529Y-155123291D01*
X103271993Y-155299539D01*
X103358814Y-155461971D01*
X103475656Y-155604344D01*
X103511341Y-155633630D01*
X106789228Y-158911517D01*
X106752038Y-158942038D01*
X106746658Y-158948594D01*
X106681185Y-158868815D01*
X106584494Y-158789463D01*
X106474180Y-158730498D01*
X106354482Y-158694188D01*
X106230000Y-158681928D01*
X105940750Y-158685000D01*
X105782000Y-158843750D01*
X105782000Y-159893000D01*
X105802000Y-159893000D01*
X105802000Y-160147000D01*
X105782000Y-160147000D01*
X105782000Y-161196250D01*
X105940750Y-161355000D01*
X106230000Y-161358072D01*
X106354482Y-161345812D01*
X106474180Y-161309502D01*
X106584494Y-161250537D01*
X106681185Y-161171185D01*
X106746658Y-161091406D01*
X106752038Y-161097962D01*
X106886613Y-161208405D01*
X107040149Y-161290472D01*
X107206745Y-161341008D01*
X107379999Y-161358072D01*
X108030001Y-161358072D01*
X108203255Y-161341008D01*
X108369851Y-161290472D01*
X108523387Y-161208405D01*
X108657962Y-161097962D01*
X108768405Y-160963387D01*
X108850472Y-160809851D01*
X108877727Y-160720000D01*
X109766928Y-160720000D01*
X109779188Y-160844482D01*
X109815498Y-160964180D01*
X109874463Y-161074494D01*
X109953815Y-161171185D01*
X110050506Y-161250537D01*
X110160820Y-161309502D01*
X110280518Y-161345812D01*
X110405000Y-161358072D01*
X110694250Y-161355000D01*
X110853000Y-161196250D01*
X110853000Y-160147000D01*
X109928750Y-160147000D01*
X109770000Y-160305750D01*
X109766928Y-160720000D01*
X108877727Y-160720000D01*
X108901008Y-160643255D01*
X108918072Y-160470001D01*
X108918072Y-159569999D01*
X108901008Y-159396745D01*
X108885000Y-159343973D01*
X108885000Y-159320000D01*
X109766928Y-159320000D01*
X109770000Y-159734250D01*
X109928750Y-159893000D01*
X110853000Y-159893000D01*
X110853000Y-158843750D01*
X110694250Y-158685000D01*
X110405000Y-158681928D01*
X110280518Y-158694188D01*
X110160820Y-158730498D01*
X110050506Y-158789463D01*
X109953815Y-158868815D01*
X109874463Y-158965506D01*
X109815498Y-159075820D01*
X109779188Y-159195518D01*
X109766928Y-159320000D01*
X108885000Y-159320000D01*
X108885000Y-158795935D01*
X108889524Y-158750000D01*
X108871472Y-158566708D01*
X108818007Y-158390459D01*
X108765462Y-158292155D01*
X108731186Y-158228028D01*
X108614344Y-158085656D01*
X108578660Y-158056371D01*
X105075000Y-154552711D01*
X105075000Y-154305132D01*
X105203008Y-154433140D01*
X105238551Y-154476449D01*
X105400703Y-154609524D01*
X105411377Y-154618284D01*
X105608553Y-154723676D01*
X105822501Y-154788577D01*
X106045000Y-154810491D01*
X106100752Y-154805000D01*
X107311539Y-154805000D01*
X107376613Y-154858405D01*
X107530149Y-154940472D01*
X107696745Y-154991008D01*
X107869999Y-155008072D01*
X108570001Y-155008072D01*
X108743255Y-154991008D01*
X108909851Y-154940472D01*
X109063387Y-154858405D01*
X109197962Y-154747962D01*
X109220000Y-154721109D01*
X109242038Y-154747962D01*
X109376613Y-154858405D01*
X109530149Y-154940472D01*
X109696745Y-154991008D01*
X109869999Y-155008072D01*
X110570001Y-155008072D01*
X110743255Y-154991008D01*
X110909851Y-154940472D01*
X111063387Y-154858405D01*
X111197962Y-154747962D01*
X111308405Y-154613387D01*
X111312888Y-154605000D01*
X116547605Y-154605000D01*
X116527853Y-154652686D01*
X116490000Y-154842986D01*
X116490000Y-155037014D01*
X116527853Y-155227314D01*
X116540001Y-155256641D01*
X116540000Y-156457710D01*
X114015737Y-158981974D01*
X113982962Y-158942038D01*
X113848387Y-158831595D01*
X113694851Y-158749528D01*
X113528255Y-158698992D01*
X113355001Y-158681928D01*
X112704999Y-158681928D01*
X112531745Y-158698992D01*
X112365149Y-158749528D01*
X112211613Y-158831595D01*
X112077038Y-158942038D01*
X112071658Y-158948594D01*
X112006185Y-158868815D01*
X111909494Y-158789463D01*
X111799180Y-158730498D01*
X111679482Y-158694188D01*
X111555000Y-158681928D01*
X111265750Y-158685000D01*
X111107000Y-158843750D01*
X111107000Y-159893000D01*
X111127000Y-159893000D01*
X111127000Y-160147000D01*
X111107000Y-160147000D01*
X111107000Y-161196250D01*
X111265750Y-161355000D01*
X111555000Y-161358072D01*
X111679482Y-161345812D01*
X111799180Y-161309502D01*
X111909494Y-161250537D01*
X112006185Y-161171185D01*
X112071658Y-161091406D01*
X112077038Y-161097962D01*
X112211613Y-161208405D01*
X112365149Y-161290472D01*
X112531745Y-161341008D01*
X112704999Y-161358072D01*
X113355001Y-161358072D01*
X113528255Y-161341008D01*
X113694851Y-161290472D01*
X113848387Y-161208405D01*
X113982962Y-161097962D01*
X114093405Y-160963387D01*
X114097888Y-160955000D01*
X114254068Y-160955000D01*
X114300000Y-160959524D01*
X114345932Y-160955000D01*
X114483292Y-160941471D01*
X114659540Y-160888007D01*
X114821972Y-160801186D01*
X114964344Y-160684344D01*
X114993630Y-160648659D01*
X118103666Y-157538624D01*
X118139344Y-157509344D01*
X118256186Y-157366972D01*
X118276540Y-157328891D01*
X119462519Y-157328891D01*
X119559843Y-157603252D01*
X119708822Y-157853355D01*
X119903731Y-158069588D01*
X120137080Y-158243641D01*
X120399901Y-158368825D01*
X120547110Y-158413476D01*
X120777000Y-158292155D01*
X120777000Y-157099000D01*
X119583186Y-157099000D01*
X119462519Y-157328891D01*
X118276540Y-157328891D01*
X118343007Y-157204540D01*
X118380253Y-157081757D01*
X118396471Y-157028293D01*
X118414524Y-156845001D01*
X118410000Y-156799069D01*
X118410000Y-156615109D01*
X119462519Y-156615109D01*
X119583186Y-156845000D01*
X120777000Y-156845000D01*
X120777000Y-155651845D01*
X120547110Y-155530524D01*
X120399901Y-155575175D01*
X120137080Y-155700359D01*
X119903731Y-155874412D01*
X119708822Y-156090645D01*
X119559843Y-156340748D01*
X119462519Y-156615109D01*
X118410000Y-156615109D01*
X118410000Y-155256639D01*
X118422147Y-155227314D01*
X118460000Y-155037014D01*
X118460000Y-154842986D01*
X118422147Y-154652686D01*
X118347896Y-154473428D01*
X118240099Y-154312099D01*
X118102901Y-154174901D01*
X117941572Y-154067104D01*
X117762314Y-153992853D01*
X117629797Y-153966494D01*
X122548666Y-149047626D01*
X122584344Y-149018346D01*
X122701186Y-148875974D01*
X122788007Y-148713542D01*
X122841471Y-148537294D01*
X122855000Y-148399934D01*
X122855000Y-148399928D01*
X122859523Y-148354003D01*
X122855000Y-148308078D01*
X122855000Y-144963931D01*
X122859524Y-144917999D01*
X122841471Y-144734707D01*
X122814427Y-144645556D01*
X122788007Y-144558460D01*
X122701186Y-144396028D01*
X122584344Y-144253656D01*
X122548664Y-144224374D01*
X121036072Y-142711783D01*
X121036072Y-141646000D01*
X121023812Y-141521518D01*
X120987502Y-141401820D01*
X120928537Y-141291506D01*
X120849185Y-141194815D01*
X120752494Y-141115463D01*
X120642180Y-141056498D01*
X120583000Y-141038546D01*
X120583000Y-140283931D01*
X120587524Y-140237999D01*
X120569471Y-140054707D01*
X120542690Y-139966424D01*
X120516007Y-139878460D01*
X120429186Y-139716028D01*
X120312344Y-139573656D01*
X120276666Y-139544376D01*
X118928072Y-138195783D01*
X118928072Y-138030000D01*
X118915812Y-137905518D01*
X118879502Y-137785820D01*
X118820537Y-137675506D01*
X118741185Y-137578815D01*
X118644494Y-137499463D01*
X118534180Y-137440498D01*
X118414482Y-137404188D01*
X118290000Y-137391928D01*
X117390000Y-137391928D01*
X117265518Y-137404188D01*
X117145820Y-137440498D01*
X117035506Y-137499463D01*
X116938815Y-137578815D01*
X116928072Y-137591905D01*
X116928072Y-137080000D01*
X116915812Y-136955518D01*
X116879502Y-136835820D01*
X116820537Y-136725506D01*
X116741185Y-136628815D01*
X116644494Y-136549463D01*
X116534180Y-136490498D01*
X116414482Y-136454188D01*
X116290000Y-136441928D01*
X115390000Y-136441928D01*
X115265518Y-136454188D01*
X115145820Y-136490498D01*
X115043856Y-136545000D01*
X115007289Y-136545000D01*
X112281001Y-133818712D01*
X112281001Y-131516001D01*
X113287929Y-131516001D01*
X113300189Y-131640483D01*
X113336499Y-131760181D01*
X113395464Y-131870495D01*
X113474816Y-131967186D01*
X113571507Y-132046538D01*
X113681821Y-132105503D01*
X113801519Y-132141813D01*
X113926001Y-132154073D01*
X114090251Y-132151001D01*
X114249001Y-131992251D01*
X114249001Y-130893001D01*
X113449751Y-130893001D01*
X113291001Y-131051751D01*
X113287929Y-131516001D01*
X112281001Y-131516001D01*
X112281001Y-130573455D01*
X112340181Y-130555503D01*
X112450495Y-130496538D01*
X112547186Y-130417186D01*
X112626538Y-130320495D01*
X112685503Y-130210181D01*
X112721813Y-130090483D01*
X112729148Y-130016001D01*
X113287929Y-130016001D01*
X113291001Y-130480251D01*
X113449751Y-130639001D01*
X114249001Y-130639001D01*
X114249001Y-129539751D01*
X114090251Y-129381001D01*
X113926001Y-129377929D01*
X113801519Y-129390189D01*
X113681821Y-129426499D01*
X113571507Y-129485464D01*
X113474816Y-129564816D01*
X113395464Y-129661507D01*
X113336499Y-129771821D01*
X113300189Y-129891519D01*
X113287929Y-130016001D01*
X112729148Y-130016001D01*
X112734073Y-129966001D01*
X112734073Y-129066001D01*
X112721813Y-128941519D01*
X112703455Y-128881001D01*
X112721813Y-128820483D01*
X112734073Y-128696001D01*
X112734073Y-127796001D01*
X112721813Y-127671519D01*
X112703455Y-127611001D01*
X112721813Y-127550483D01*
X112734073Y-127426001D01*
X112734073Y-126526001D01*
X112721813Y-126401519D01*
X112703455Y-126341001D01*
X112721813Y-126280483D01*
X112734073Y-126156001D01*
X112734073Y-125256001D01*
X112721813Y-125131519D01*
X112703455Y-125071001D01*
X112721813Y-125010483D01*
X112734073Y-124886001D01*
X112734073Y-123986001D01*
X112721813Y-123861519D01*
X112703455Y-123801001D01*
X112721813Y-123740483D01*
X112734073Y-123616001D01*
X112734073Y-122716001D01*
X112721813Y-122591519D01*
X112703455Y-122531001D01*
X112721813Y-122470483D01*
X112734073Y-122346001D01*
X112734073Y-121446001D01*
X112721813Y-121321519D01*
X112703455Y-121261001D01*
X112721813Y-121200483D01*
X112734073Y-121076001D01*
X112734073Y-120176001D01*
X112721813Y-120051519D01*
X112703455Y-119991001D01*
X112721813Y-119930483D01*
X112734073Y-119806001D01*
X112734073Y-118906001D01*
X112721813Y-118781519D01*
X112703455Y-118721001D01*
X112721813Y-118660483D01*
X112734073Y-118536001D01*
X112734073Y-118296001D01*
X116727929Y-118296001D01*
X116727929Y-119346001D01*
X116740189Y-119470483D01*
X116774473Y-119583501D01*
X116740189Y-119696519D01*
X116727929Y-119821001D01*
X116727929Y-120871001D01*
X116740189Y-120995483D01*
X116774473Y-121108501D01*
X116740189Y-121221519D01*
X116727929Y-121346001D01*
X116727929Y-122396001D01*
X116740189Y-122520483D01*
X116776499Y-122640181D01*
X116835464Y-122750495D01*
X116914816Y-122847186D01*
X117011507Y-122926538D01*
X117121821Y-122985503D01*
X117241519Y-123021813D01*
X117366001Y-123034073D01*
X118416001Y-123034073D01*
X118540483Y-123021813D01*
X118653501Y-122987529D01*
X118766519Y-123021813D01*
X118891001Y-123034073D01*
X119941001Y-123034073D01*
X120065483Y-123021813D01*
X120178501Y-122987529D01*
X120291519Y-123021813D01*
X120416001Y-123034073D01*
X121466001Y-123034073D01*
X121590483Y-123021813D01*
X121710181Y-122985503D01*
X121820495Y-122926538D01*
X121917186Y-122847186D01*
X121996538Y-122750495D01*
X122055503Y-122640181D01*
X122091813Y-122520483D01*
X122104073Y-122396001D01*
X122104073Y-121346001D01*
X122091813Y-121221519D01*
X122057529Y-121108501D01*
X122091813Y-120995483D01*
X122104073Y-120871001D01*
X122104073Y-119821001D01*
X122091813Y-119696519D01*
X122057529Y-119583501D01*
X122091813Y-119470483D01*
X122104073Y-119346001D01*
X122104073Y-118296001D01*
X122091813Y-118171519D01*
X122055503Y-118051821D01*
X121996538Y-117941507D01*
X121917186Y-117844816D01*
X121820495Y-117765464D01*
X121710181Y-117706499D01*
X121590483Y-117670189D01*
X121466001Y-117657929D01*
X120416001Y-117657929D01*
X120291519Y-117670189D01*
X120178501Y-117704473D01*
X120065483Y-117670189D01*
X119941001Y-117657929D01*
X118891001Y-117657929D01*
X118766519Y-117670189D01*
X118653501Y-117704473D01*
X118540483Y-117670189D01*
X118416001Y-117657929D01*
X117366001Y-117657929D01*
X117241519Y-117670189D01*
X117121821Y-117706499D01*
X117011507Y-117765464D01*
X116914816Y-117844816D01*
X116835464Y-117941507D01*
X116776499Y-118051821D01*
X116740189Y-118171519D01*
X116727929Y-118296001D01*
X112734073Y-118296001D01*
X112734073Y-117636001D01*
X112721813Y-117511519D01*
X112703455Y-117451001D01*
X112721813Y-117390483D01*
X112734073Y-117266001D01*
X112734073Y-116366001D01*
X112721813Y-116241519D01*
X112703455Y-116181001D01*
X112721813Y-116120483D01*
X112734073Y-115996001D01*
X112734073Y-115096001D01*
X112721813Y-114971519D01*
X112703455Y-114911001D01*
X112721813Y-114850483D01*
X112734073Y-114726001D01*
X112734073Y-113826001D01*
X112721813Y-113701519D01*
X112718375Y-113690185D01*
X127457929Y-113911279D01*
X127457929Y-114726001D01*
X127470189Y-114850483D01*
X127488547Y-114911001D01*
X127470189Y-114971519D01*
X127457929Y-115096001D01*
X127457929Y-115996001D01*
X127470189Y-116120483D01*
X127488547Y-116181001D01*
X127470189Y-116241519D01*
X127457929Y-116366001D01*
X127457929Y-117266001D01*
X127470189Y-117390483D01*
X127488547Y-117451001D01*
X127470189Y-117511519D01*
X127457929Y-117636001D01*
X127457929Y-118536001D01*
X127470189Y-118660483D01*
X127488547Y-118721001D01*
X127470189Y-118781519D01*
X127457929Y-118906001D01*
X127457929Y-119806001D01*
X127470189Y-119930483D01*
X127488547Y-119991001D01*
X127470189Y-120051519D01*
X127457929Y-120176001D01*
X127457929Y-121076001D01*
X127470189Y-121200483D01*
X127488547Y-121261001D01*
X127470189Y-121321519D01*
X127457929Y-121446001D01*
X127457929Y-122346001D01*
X127470189Y-122470483D01*
X127488547Y-122531001D01*
X127470189Y-122591519D01*
X127457929Y-122716001D01*
X127457929Y-123616001D01*
X127470189Y-123740483D01*
X127488547Y-123801001D01*
X127470189Y-123861519D01*
X127457929Y-123986001D01*
X127457929Y-124886001D01*
X127470189Y-125010483D01*
X127488547Y-125071001D01*
X127470189Y-125131519D01*
X127457929Y-125256001D01*
X127457929Y-126156001D01*
X127470189Y-126280483D01*
X127488547Y-126341001D01*
X127470189Y-126401519D01*
X127457929Y-126526001D01*
X127457929Y-127426001D01*
X127470189Y-127550483D01*
X127488547Y-127611001D01*
X127470189Y-127671519D01*
X127457929Y-127796001D01*
X127457929Y-128696001D01*
X127470189Y-128820483D01*
X127488547Y-128881001D01*
X127470189Y-128941519D01*
X127457929Y-129066001D01*
X127457929Y-129966001D01*
X127470189Y-130090483D01*
X127506499Y-130210181D01*
X127565464Y-130320495D01*
X127644816Y-130417186D01*
X127741507Y-130496538D01*
X127851821Y-130555503D01*
X127971519Y-130591813D01*
X128096001Y-130604073D01*
X129596001Y-130604073D01*
X129720483Y-130591813D01*
X129840181Y-130555503D01*
X129950495Y-130496538D01*
X130005982Y-130451001D01*
X130398712Y-130451001D01*
X133415000Y-133467289D01*
X133415001Y-143158779D01*
X133372038Y-143194038D01*
X133350000Y-143220891D01*
X133327962Y-143194038D01*
X133193387Y-143083595D01*
X133039851Y-143001528D01*
X132873255Y-142950992D01*
X132700001Y-142933928D01*
X131999999Y-142933928D01*
X131826745Y-142950992D01*
X131660149Y-143001528D01*
X131506613Y-143083595D01*
X131372038Y-143194038D01*
X131261595Y-143328613D01*
X131179528Y-143482149D01*
X131128992Y-143648745D01*
X131111928Y-143821999D01*
X131111928Y-144722001D01*
X131128992Y-144895255D01*
X131179528Y-145061851D01*
X131215000Y-145128215D01*
X131215001Y-147849867D01*
X127760865Y-151304004D01*
X127717551Y-151339551D01*
X127575716Y-151512377D01*
X127483178Y-151685506D01*
X127470324Y-151709554D01*
X127405423Y-151923502D01*
X127383509Y-152146000D01*
X127389000Y-152201752D01*
X127389001Y-155554317D01*
X127319506Y-155591463D01*
X127222815Y-155670815D01*
X127143463Y-155767506D01*
X127084498Y-155877820D01*
X127063607Y-155946687D01*
X127039134Y-155916866D01*
X126919000Y-155818275D01*
X126919000Y-151898289D01*
X129533660Y-149283629D01*
X129569344Y-149254344D01*
X129686186Y-149111972D01*
X129773007Y-148949540D01*
X129826471Y-148773292D01*
X129840000Y-148635932D01*
X129840000Y-148635931D01*
X129844524Y-148590000D01*
X129840000Y-148544068D01*
X129840000Y-133910931D01*
X129844524Y-133864999D01*
X129826471Y-133681707D01*
X129783987Y-133541658D01*
X129773007Y-133505460D01*
X129686186Y-133343028D01*
X129569344Y-133200656D01*
X129533664Y-133171374D01*
X126894073Y-130531784D01*
X126894073Y-130016001D01*
X126881813Y-129891519D01*
X126845503Y-129771821D01*
X126786538Y-129661507D01*
X126707186Y-129564816D01*
X126610495Y-129485464D01*
X126500181Y-129426499D01*
X126380483Y-129390189D01*
X126256001Y-129377929D01*
X125356001Y-129377929D01*
X125231519Y-129390189D01*
X125171001Y-129408547D01*
X125110483Y-129390189D01*
X124986001Y-129377929D01*
X124086001Y-129377929D01*
X123961519Y-129390189D01*
X123901001Y-129408547D01*
X123840483Y-129390189D01*
X123716001Y-129377929D01*
X122816001Y-129377929D01*
X122691519Y-129390189D01*
X122631001Y-129408547D01*
X122570483Y-129390189D01*
X122446001Y-129377929D01*
X121546001Y-129377929D01*
X121421519Y-129390189D01*
X121361001Y-129408547D01*
X121300483Y-129390189D01*
X121176001Y-129377929D01*
X120276001Y-129377929D01*
X120151519Y-129390189D01*
X120091001Y-129408547D01*
X120030483Y-129390189D01*
X119906001Y-129377929D01*
X119006001Y-129377929D01*
X118881519Y-129390189D01*
X118821001Y-129408547D01*
X118760483Y-129390189D01*
X118636001Y-129377929D01*
X117736001Y-129377929D01*
X117611519Y-129390189D01*
X117551001Y-129408547D01*
X117490483Y-129390189D01*
X117366001Y-129377929D01*
X116466001Y-129377929D01*
X116341519Y-129390189D01*
X116281001Y-129408547D01*
X116220483Y-129390189D01*
X116096001Y-129377929D01*
X115196001Y-129377929D01*
X115071519Y-129390189D01*
X115011001Y-129408547D01*
X114950483Y-129390189D01*
X114826001Y-129377929D01*
X114661751Y-129381001D01*
X114503001Y-129539751D01*
X114503001Y-130639001D01*
X114523001Y-130639001D01*
X114523001Y-130893001D01*
X114503001Y-130893001D01*
X114503001Y-131992251D01*
X114661751Y-132151001D01*
X114826001Y-132154073D01*
X114950483Y-132141813D01*
X115011001Y-132123455D01*
X115071519Y-132141813D01*
X115196001Y-132154073D01*
X116096001Y-132154073D01*
X116220483Y-132141813D01*
X116281001Y-132123455D01*
X116341519Y-132141813D01*
X116466001Y-132154073D01*
X117366001Y-132154073D01*
X117490483Y-132141813D01*
X117551001Y-132123455D01*
X117611519Y-132141813D01*
X117736001Y-132154073D01*
X118636001Y-132154073D01*
X118760483Y-132141813D01*
X118821001Y-132123455D01*
X118881519Y-132141813D01*
X119006001Y-132154073D01*
X119906001Y-132154073D01*
X120030483Y-132141813D01*
X120091001Y-132123455D01*
X120151519Y-132141813D01*
X120276001Y-132154073D01*
X121176001Y-132154073D01*
X121300483Y-132141813D01*
X121361001Y-132123455D01*
X121421519Y-132141813D01*
X121546001Y-132154073D01*
X122446001Y-132154073D01*
X122570483Y-132141813D01*
X122631001Y-132123455D01*
X122691519Y-132141813D01*
X122816001Y-132154073D01*
X123601001Y-132154073D01*
X123601001Y-133380069D01*
X123596477Y-133426001D01*
X123613809Y-133601971D01*
X123614530Y-133609292D01*
X123667994Y-133785540D01*
X123754815Y-133947972D01*
X123871657Y-134090345D01*
X123907342Y-134119631D01*
X125430001Y-135642291D01*
X125430000Y-147440711D01*
X122815336Y-150055375D01*
X122779657Y-150084656D01*
X122662815Y-150227028D01*
X122649556Y-150251834D01*
X122575994Y-150389460D01*
X122522529Y-150565709D01*
X122504476Y-150749000D01*
X122509001Y-150794942D01*
X122509000Y-155818274D01*
X122388866Y-155916866D01*
X122203294Y-156142986D01*
X122168799Y-156207523D01*
X122099178Y-156090645D01*
X121904269Y-155874412D01*
X121670920Y-155700359D01*
X121408099Y-155575175D01*
X121260890Y-155530524D01*
X121031000Y-155651845D01*
X121031000Y-156845000D01*
X121051000Y-156845000D01*
X121051000Y-157099000D01*
X121031000Y-157099000D01*
X121031000Y-158292155D01*
X121260890Y-158413476D01*
X121408099Y-158368825D01*
X121670920Y-158243641D01*
X121904269Y-158069588D01*
X122099178Y-157853355D01*
X122168799Y-157736477D01*
X122203294Y-157801014D01*
X122388866Y-158027134D01*
X122614986Y-158212706D01*
X122872966Y-158350599D01*
X123152889Y-158435513D01*
X123371050Y-158457000D01*
X123516950Y-158457000D01*
X123735111Y-158435513D01*
X124015034Y-158350599D01*
X124273014Y-158212706D01*
X124499134Y-158027134D01*
X124684706Y-157801014D01*
X124714000Y-157746209D01*
X124743294Y-157801014D01*
X124928866Y-158027134D01*
X125154986Y-158212706D01*
X125412966Y-158350599D01*
X125692889Y-158435513D01*
X125911050Y-158457000D01*
X126056950Y-158457000D01*
X126275111Y-158435513D01*
X126555034Y-158350599D01*
X126813014Y-158212706D01*
X127039134Y-158027134D01*
X127063607Y-157997313D01*
X127084498Y-158066180D01*
X127143463Y-158176494D01*
X127222815Y-158273185D01*
X127319506Y-158352537D01*
X127429820Y-158411502D01*
X127549518Y-158447812D01*
X127674000Y-158460072D01*
X129374000Y-158460072D01*
X129498482Y-158447812D01*
X129618180Y-158411502D01*
X129728494Y-158352537D01*
X129825185Y-158273185D01*
X129904537Y-158176494D01*
X129963502Y-158066180D01*
X129999812Y-157946482D01*
X130010299Y-157840000D01*
X132787928Y-157840000D01*
X132800188Y-157964482D01*
X132836498Y-158084180D01*
X132895463Y-158194494D01*
X132974815Y-158291185D01*
X133071506Y-158370537D01*
X133181820Y-158429502D01*
X133301518Y-158465812D01*
X133426000Y-158478072D01*
X133915250Y-158475000D01*
X134074000Y-158316250D01*
X134074000Y-157317000D01*
X134328000Y-157317000D01*
X134328000Y-158316250D01*
X134486750Y-158475000D01*
X134976000Y-158478072D01*
X135100482Y-158465812D01*
X135220180Y-158429502D01*
X135330494Y-158370537D01*
X135427185Y-158291185D01*
X135506537Y-158194494D01*
X135565502Y-158084180D01*
X135601812Y-157964482D01*
X135614072Y-157840000D01*
X140737928Y-157840000D01*
X140750188Y-157964482D01*
X140786498Y-158084180D01*
X140845463Y-158194494D01*
X140924815Y-158291185D01*
X141021506Y-158370537D01*
X141131820Y-158429502D01*
X141251518Y-158465812D01*
X141376000Y-158478072D01*
X141865250Y-158475000D01*
X142024000Y-158316250D01*
X142024000Y-157317000D01*
X142278000Y-157317000D01*
X142278000Y-158316250D01*
X142436750Y-158475000D01*
X142926000Y-158478072D01*
X143050482Y-158465812D01*
X143170180Y-158429502D01*
X143280494Y-158370537D01*
X143377185Y-158291185D01*
X143456537Y-158194494D01*
X143515502Y-158084180D01*
X143551812Y-157964482D01*
X143564072Y-157840000D01*
X143561000Y-157475750D01*
X143402250Y-157317000D01*
X142278000Y-157317000D01*
X142024000Y-157317000D01*
X140899750Y-157317000D01*
X140741000Y-157475750D01*
X140737928Y-157840000D01*
X135614072Y-157840000D01*
X135611000Y-157475750D01*
X135452250Y-157317000D01*
X134328000Y-157317000D01*
X134074000Y-157317000D01*
X132949750Y-157317000D01*
X132791000Y-157475750D01*
X132787928Y-157840000D01*
X130010299Y-157840000D01*
X130012072Y-157822000D01*
X130012072Y-156540000D01*
X132787928Y-156540000D01*
X132791000Y-156904250D01*
X132949750Y-157063000D01*
X134074000Y-157063000D01*
X134074000Y-156063750D01*
X134328000Y-156063750D01*
X134328000Y-157063000D01*
X135452250Y-157063000D01*
X135611000Y-156904250D01*
X135614072Y-156540000D01*
X140737928Y-156540000D01*
X140741000Y-156904250D01*
X140899750Y-157063000D01*
X142024000Y-157063000D01*
X142024000Y-156063750D01*
X142278000Y-156063750D01*
X142278000Y-157063000D01*
X143402250Y-157063000D01*
X143561000Y-156904250D01*
X143564072Y-156540000D01*
X143551812Y-156415518D01*
X143515502Y-156295820D01*
X143456537Y-156185506D01*
X143377185Y-156088815D01*
X143280494Y-156009463D01*
X143170180Y-155950498D01*
X143050482Y-155914188D01*
X142926000Y-155901928D01*
X142436750Y-155905000D01*
X142278000Y-156063750D01*
X142024000Y-156063750D01*
X141865250Y-155905000D01*
X141376000Y-155901928D01*
X141251518Y-155914188D01*
X141131820Y-155950498D01*
X141021506Y-156009463D01*
X140924815Y-156088815D01*
X140845463Y-156185506D01*
X140786498Y-156295820D01*
X140750188Y-156415518D01*
X140737928Y-156540000D01*
X135614072Y-156540000D01*
X135601812Y-156415518D01*
X135565502Y-156295820D01*
X135506537Y-156185506D01*
X135427185Y-156088815D01*
X135330494Y-156009463D01*
X135220180Y-155950498D01*
X135100482Y-155914188D01*
X134976000Y-155901928D01*
X134486750Y-155905000D01*
X134328000Y-156063750D01*
X134074000Y-156063750D01*
X133915250Y-155905000D01*
X133426000Y-155901928D01*
X133301518Y-155914188D01*
X133181820Y-155950498D01*
X133071506Y-156009463D01*
X132974815Y-156088815D01*
X132895463Y-156185506D01*
X132836498Y-156295820D01*
X132800188Y-156415518D01*
X132787928Y-156540000D01*
X130012072Y-156540000D01*
X130012072Y-156122000D01*
X129999812Y-155997518D01*
X129963502Y-155877820D01*
X129904537Y-155767506D01*
X129825185Y-155670815D01*
X129728494Y-155591463D01*
X129659000Y-155554317D01*
X129659000Y-152616131D01*
X133113141Y-149161991D01*
X133156449Y-149126449D01*
X133298284Y-148953623D01*
X133403676Y-148756447D01*
X133415001Y-148719115D01*
X133415001Y-151403011D01*
X133301518Y-151414188D01*
X133181820Y-151450498D01*
X133071506Y-151509463D01*
X132974815Y-151588815D01*
X132895463Y-151685506D01*
X132836498Y-151795820D01*
X132800188Y-151915518D01*
X132787928Y-152040000D01*
X132787928Y-153340000D01*
X132800188Y-153464482D01*
X132836498Y-153584180D01*
X132895463Y-153694494D01*
X132974815Y-153791185D01*
X133071506Y-153870537D01*
X133181820Y-153929502D01*
X133301518Y-153965812D01*
X133426000Y-153978072D01*
X134976000Y-153978072D01*
X135100482Y-153965812D01*
X135220180Y-153929502D01*
X135330494Y-153870537D01*
X135427185Y-153791185D01*
X135506537Y-153694494D01*
X135543683Y-153625000D01*
X140808317Y-153625000D01*
X140845463Y-153694494D01*
X140924815Y-153791185D01*
X141021506Y-153870537D01*
X141131820Y-153929502D01*
X141251518Y-153965812D01*
X141376000Y-153978072D01*
X142926000Y-153978072D01*
X143050482Y-153965812D01*
X143170180Y-153929502D01*
X143280494Y-153870537D01*
X143377185Y-153791185D01*
X143456537Y-153694494D01*
X143515502Y-153584180D01*
X143551812Y-153464482D01*
X143564072Y-153340000D01*
X143564072Y-152040000D01*
X143551812Y-151915518D01*
X143515502Y-151795820D01*
X143456537Y-151685506D01*
X143377185Y-151588815D01*
X143280494Y-151509463D01*
X143170180Y-151450498D01*
X143050482Y-151414188D01*
X142926000Y-151401928D01*
X141376000Y-151401928D01*
X141251518Y-151414188D01*
X141131820Y-151450498D01*
X141021506Y-151509463D01*
X140924815Y-151588815D01*
X140845463Y-151685506D01*
X140808317Y-151755000D01*
X135543683Y-151755000D01*
X135506537Y-151685506D01*
X135427185Y-151588815D01*
X135330494Y-151509463D01*
X135285000Y-151485146D01*
X135285000Y-145385220D01*
X135327962Y-145349962D01*
X135438405Y-145215387D01*
X135520472Y-145061851D01*
X135571008Y-144895255D01*
X135588072Y-144722001D01*
X135588072Y-143821999D01*
X135571008Y-143648745D01*
X135520472Y-143482149D01*
X135438405Y-143328613D01*
X135327962Y-143194038D01*
X135285000Y-143158780D01*
X135285000Y-133125935D01*
X135289524Y-133080000D01*
X135271472Y-132896708D01*
X135218007Y-132720459D01*
X135177575Y-132644816D01*
X135131186Y-132558028D01*
X135014344Y-132415656D01*
X134978660Y-132386371D01*
X131479631Y-128887342D01*
X131450345Y-128851657D01*
X131307973Y-128734815D01*
X131145541Y-128647994D01*
X130969293Y-128594530D01*
X130831933Y-128581001D01*
X130786001Y-128576477D01*
X130740069Y-128581001D01*
X130234073Y-128581001D01*
X130234073Y-127796001D01*
X130221813Y-127671519D01*
X130203455Y-127611001D01*
X130221813Y-127550483D01*
X130234073Y-127426001D01*
X130234073Y-126526001D01*
X130221813Y-126401519D01*
X130203455Y-126341001D01*
X130221813Y-126280483D01*
X130234073Y-126156001D01*
X130234073Y-125799168D01*
X136340989Y-131906085D01*
X136340990Y-134743047D01*
X136336465Y-134788989D01*
X136354518Y-134972280D01*
X136392296Y-135096815D01*
X136407983Y-135148529D01*
X136494804Y-135310961D01*
X136611646Y-135453333D01*
X136647325Y-135482614D01*
X142890370Y-141725659D01*
X142919656Y-141761344D01*
X143062028Y-141878186D01*
X143167880Y-141934765D01*
X143224459Y-141965007D01*
X143400708Y-142018472D01*
X143554459Y-142033615D01*
X143558188Y-142071482D01*
X143594498Y-142191180D01*
X143653463Y-142301494D01*
X143732815Y-142398185D01*
X143829506Y-142477537D01*
X143939820Y-142536502D01*
X144059518Y-142572812D01*
X144184000Y-142585072D01*
X145884000Y-142585072D01*
X146008482Y-142572812D01*
X146128180Y-142536502D01*
X146238494Y-142477537D01*
X146335185Y-142398185D01*
X146414537Y-142301494D01*
X146473502Y-142191180D01*
X146509812Y-142071482D01*
X146522072Y-141947000D01*
X146522072Y-140247000D01*
X146509812Y-140122518D01*
X146473502Y-140002820D01*
X146414537Y-139892506D01*
X146335185Y-139795815D01*
X146238494Y-139716463D01*
X146128180Y-139657498D01*
X146059313Y-139636607D01*
X146089134Y-139612134D01*
X146274706Y-139386014D01*
X146412599Y-139128034D01*
X146497513Y-138848111D01*
X146526185Y-138557000D01*
X146497513Y-138265889D01*
X146412599Y-137985966D01*
X146274706Y-137727986D01*
X146089134Y-137501866D01*
X145863014Y-137316294D01*
X145808209Y-137287000D01*
X145863014Y-137257706D01*
X146089134Y-137072134D01*
X146274706Y-136846014D01*
X146412599Y-136588034D01*
X146497513Y-136308111D01*
X146526185Y-136017000D01*
X146497513Y-135725889D01*
X146412599Y-135445966D01*
X146274706Y-135187986D01*
X146089134Y-134961866D01*
X145863014Y-134776294D01*
X145808209Y-134747000D01*
X145863014Y-134717706D01*
X146089134Y-134532134D01*
X146274706Y-134306014D01*
X146412599Y-134048034D01*
X146497513Y-133768111D01*
X146526185Y-133477000D01*
X146497513Y-133185889D01*
X146412599Y-132905966D01*
X146274706Y-132647986D01*
X146089134Y-132421866D01*
X145863014Y-132236294D01*
X145808209Y-132207000D01*
X145863014Y-132177706D01*
X146089134Y-131992134D01*
X146274706Y-131766014D01*
X146412599Y-131508034D01*
X146497513Y-131228111D01*
X146526185Y-130937000D01*
X146497513Y-130645889D01*
X146412599Y-130365966D01*
X146274706Y-130107986D01*
X146089134Y-129881866D01*
X145863014Y-129696294D01*
X145798477Y-129661799D01*
X145915355Y-129592178D01*
X146131588Y-129397269D01*
X146305641Y-129163920D01*
X146430825Y-128901099D01*
X146475476Y-128753890D01*
X146354155Y-128524000D01*
X145161000Y-128524000D01*
X145161000Y-128544000D01*
X144907000Y-128544000D01*
X144907000Y-128524000D01*
X143713845Y-128524000D01*
X143592524Y-128753890D01*
X143637175Y-128901099D01*
X143762359Y-129163920D01*
X143936412Y-129397269D01*
X144152645Y-129592178D01*
X144269523Y-129661799D01*
X144204986Y-129696294D01*
X143978866Y-129881866D01*
X143793294Y-130107986D01*
X143655401Y-130365966D01*
X143570487Y-130645889D01*
X143541815Y-130937000D01*
X143570487Y-131228111D01*
X143655401Y-131508034D01*
X143793294Y-131766014D01*
X143978866Y-131992134D01*
X144204986Y-132177706D01*
X144259791Y-132207000D01*
X144204986Y-132236294D01*
X143978866Y-132421866D01*
X143880275Y-132542000D01*
X142881289Y-132542000D01*
X138379399Y-128040110D01*
X143592524Y-128040110D01*
X143713845Y-128270000D01*
X144907000Y-128270000D01*
X144907000Y-127076186D01*
X145161000Y-127076186D01*
X145161000Y-128270000D01*
X146354155Y-128270000D01*
X146475476Y-128040110D01*
X146430825Y-127892901D01*
X146305641Y-127630080D01*
X146131588Y-127396731D01*
X145915355Y-127201822D01*
X145665252Y-127052843D01*
X145390891Y-126955519D01*
X145161000Y-127076186D01*
X144907000Y-127076186D01*
X144677109Y-126955519D01*
X144402748Y-127052843D01*
X144152645Y-127201822D01*
X143936412Y-127396731D01*
X143762359Y-127630080D01*
X143637175Y-127892901D01*
X143592524Y-128040110D01*
X138379399Y-128040110D01*
X131606631Y-121267342D01*
X131577345Y-121231657D01*
X131434973Y-121114815D01*
X131272541Y-121027994D01*
X131096293Y-120974530D01*
X130958933Y-120961001D01*
X130913001Y-120956477D01*
X130867069Y-120961001D01*
X130234073Y-120961001D01*
X130234073Y-120176001D01*
X130221813Y-120051519D01*
X130203455Y-119991001D01*
X130221813Y-119930483D01*
X130234073Y-119806001D01*
X130234073Y-119045000D01*
X137114066Y-119045000D01*
X137160000Y-119049524D01*
X137205935Y-119045000D01*
X137280711Y-119045000D01*
X138371374Y-120135664D01*
X138400656Y-120171344D01*
X138543028Y-120288186D01*
X138705460Y-120375007D01*
X138799904Y-120403656D01*
X138881707Y-120428471D01*
X139064999Y-120446524D01*
X139110931Y-120442000D01*
X144007275Y-120442000D01*
X144105866Y-120562134D01*
X144135687Y-120586607D01*
X144066820Y-120607498D01*
X143956506Y-120666463D01*
X143859815Y-120745815D01*
X143780463Y-120842506D01*
X143721498Y-120952820D01*
X143685188Y-121072518D01*
X143672928Y-121197000D01*
X143672928Y-122897000D01*
X143685188Y-123021482D01*
X143721498Y-123141180D01*
X143780463Y-123251494D01*
X143859815Y-123348185D01*
X143956506Y-123427537D01*
X144066820Y-123486502D01*
X144186518Y-123522812D01*
X144311000Y-123535072D01*
X146011000Y-123535072D01*
X146135482Y-123522812D01*
X146255180Y-123486502D01*
X146365494Y-123427537D01*
X146462185Y-123348185D01*
X146541537Y-123251494D01*
X146600502Y-123141180D01*
X146636812Y-123021482D01*
X146649072Y-122897000D01*
X146649072Y-121197000D01*
X146636812Y-121072518D01*
X146600502Y-120952820D01*
X146541537Y-120842506D01*
X146462185Y-120745815D01*
X146365494Y-120666463D01*
X146255180Y-120607498D01*
X146186313Y-120586607D01*
X146216134Y-120562134D01*
X146401706Y-120336014D01*
X146539599Y-120078034D01*
X146624513Y-119798111D01*
X146653185Y-119507000D01*
X146624513Y-119215889D01*
X146539599Y-118935966D01*
X146401706Y-118677986D01*
X146216134Y-118451866D01*
X145990014Y-118266294D01*
X145935209Y-118237000D01*
X145990014Y-118207706D01*
X146216134Y-118022134D01*
X146401706Y-117796014D01*
X146539599Y-117538034D01*
X146624513Y-117258111D01*
X146653185Y-116967000D01*
X146624513Y-116675889D01*
X146539599Y-116395966D01*
X146401706Y-116137986D01*
X146216134Y-115911866D01*
X145990014Y-115726294D01*
X145925477Y-115691799D01*
X146042355Y-115622178D01*
X146258588Y-115427269D01*
X146432641Y-115193920D01*
X146557825Y-114931099D01*
X146602476Y-114783890D01*
X146481155Y-114554000D01*
X145288000Y-114554000D01*
X145288000Y-114574000D01*
X145034000Y-114574000D01*
X145034000Y-114554000D01*
X143840845Y-114554000D01*
X143719524Y-114783890D01*
X143764175Y-114931099D01*
X143889359Y-115193920D01*
X144063412Y-115427269D01*
X144279645Y-115622178D01*
X144396523Y-115691799D01*
X144331986Y-115726294D01*
X144143475Y-115881001D01*
X132382336Y-115881001D01*
X132392147Y-115857314D01*
X132430000Y-115667014D01*
X132430000Y-115472986D01*
X132392147Y-115282686D01*
X132317896Y-115103428D01*
X132210099Y-114942099D01*
X132072901Y-114804901D01*
X131911572Y-114697104D01*
X131882246Y-114684957D01*
X131164161Y-113966872D01*
X143764789Y-114155881D01*
X143840845Y-114300000D01*
X145034000Y-114300000D01*
X145034000Y-113106186D01*
X145288000Y-113106186D01*
X145288000Y-114300000D01*
X146481155Y-114300000D01*
X146602476Y-114070110D01*
X146557825Y-113922901D01*
X146432641Y-113660080D01*
X146258588Y-113426731D01*
X146042355Y-113231822D01*
X145792252Y-113082843D01*
X145517891Y-112985519D01*
X145288000Y-113106186D01*
X145034000Y-113106186D01*
X145034000Y-108585000D01*
X147939537Y-108585000D01*
X147947047Y-108622756D01*
G36*
X116213000Y-144151502D02*
G01*
X116213001Y-147307928D01*
X115448000Y-147307928D01*
X115323518Y-147320188D01*
X115203820Y-147356498D01*
X115093506Y-147415463D01*
X114996815Y-147494815D01*
X114917463Y-147591506D01*
X114858498Y-147701820D01*
X114822188Y-147821518D01*
X114809928Y-147946000D01*
X114809928Y-149946000D01*
X114822188Y-150070482D01*
X114858498Y-150190180D01*
X114917463Y-150300494D01*
X114996815Y-150397185D01*
X115093506Y-150476537D01*
X115203820Y-150535502D01*
X115323518Y-150571812D01*
X115448000Y-150584072D01*
X118367641Y-150584072D01*
X116216713Y-152735000D01*
X111312888Y-152735000D01*
X111308405Y-152726613D01*
X111197962Y-152592038D01*
X111063387Y-152481595D01*
X110909851Y-152399528D01*
X110879827Y-152390420D01*
X110935734Y-152360537D01*
X111032425Y-152281185D01*
X111111777Y-152184494D01*
X111170742Y-152074180D01*
X111207052Y-151954482D01*
X111219312Y-151830000D01*
X111216240Y-151415750D01*
X111057490Y-151257000D01*
X110108240Y-151257000D01*
X110108240Y-151277000D01*
X109854240Y-151277000D01*
X109854240Y-151257000D01*
X109834240Y-151257000D01*
X109834240Y-151003000D01*
X109854240Y-151003000D01*
X109854240Y-150983000D01*
X110108240Y-150983000D01*
X110108240Y-151003000D01*
X111057490Y-151003000D01*
X111216240Y-150844250D01*
X111219312Y-150430000D01*
X111207052Y-150305518D01*
X111170742Y-150185820D01*
X111111777Y-150075506D01*
X111032425Y-149978815D01*
X110935734Y-149899463D01*
X110825420Y-149840498D01*
X110738260Y-149814058D01*
X110814467Y-149773325D01*
X110949042Y-149662882D01*
X111059485Y-149528307D01*
X111141552Y-149374771D01*
X111192088Y-149208175D01*
X111209152Y-149034921D01*
X111209152Y-148134919D01*
X111192088Y-147961665D01*
X111160094Y-147856195D01*
X114732218Y-144284072D01*
X115798000Y-144284072D01*
X115922482Y-144271812D01*
X116042180Y-144235502D01*
X116152494Y-144176537D01*
X116198000Y-144139191D01*
X116213000Y-144151502D01*
X116213000Y-144151502D01*
G37*
X116213000Y-144151502D02*
X116213001Y-147307928D01*
X115448000Y-147307928D01*
X115323518Y-147320188D01*
X115203820Y-147356498D01*
X115093506Y-147415463D01*
X114996815Y-147494815D01*
X114917463Y-147591506D01*
X114858498Y-147701820D01*
X114822188Y-147821518D01*
X114809928Y-147946000D01*
X114809928Y-149946000D01*
X114822188Y-150070482D01*
X114858498Y-150190180D01*
X114917463Y-150300494D01*
X114996815Y-150397185D01*
X115093506Y-150476537D01*
X115203820Y-150535502D01*
X115323518Y-150571812D01*
X115448000Y-150584072D01*
X118367641Y-150584072D01*
X116216713Y-152735000D01*
X111312888Y-152735000D01*
X111308405Y-152726613D01*
X111197962Y-152592038D01*
X111063387Y-152481595D01*
X110909851Y-152399528D01*
X110879827Y-152390420D01*
X110935734Y-152360537D01*
X111032425Y-152281185D01*
X111111777Y-152184494D01*
X111170742Y-152074180D01*
X111207052Y-151954482D01*
X111219312Y-151830000D01*
X111216240Y-151415750D01*
X111057490Y-151257000D01*
X110108240Y-151257000D01*
X110108240Y-151277000D01*
X109854240Y-151277000D01*
X109854240Y-151257000D01*
X109834240Y-151257000D01*
X109834240Y-151003000D01*
X109854240Y-151003000D01*
X109854240Y-150983000D01*
X110108240Y-150983000D01*
X110108240Y-151003000D01*
X111057490Y-151003000D01*
X111216240Y-150844250D01*
X111219312Y-150430000D01*
X111207052Y-150305518D01*
X111170742Y-150185820D01*
X111111777Y-150075506D01*
X111032425Y-149978815D01*
X110935734Y-149899463D01*
X110825420Y-149840498D01*
X110738260Y-149814058D01*
X110814467Y-149773325D01*
X110949042Y-149662882D01*
X111059485Y-149528307D01*
X111141552Y-149374771D01*
X111192088Y-149208175D01*
X111209152Y-149034921D01*
X111209152Y-148134919D01*
X111192088Y-147961665D01*
X111160094Y-147856195D01*
X114732218Y-144284072D01*
X115798000Y-144284072D01*
X115922482Y-144271812D01*
X116042180Y-144235502D01*
X116152494Y-144176537D01*
X116198000Y-144139191D01*
X116213000Y-144151502D01*
G36*
X114098028Y-138261186D02*
G01*
X114260460Y-138348007D01*
X114322960Y-138366966D01*
X114436708Y-138401472D01*
X114620000Y-138419524D01*
X114665935Y-138415000D01*
X115043856Y-138415000D01*
X115071918Y-138430000D01*
X115035506Y-138449463D01*
X114938815Y-138528815D01*
X114859463Y-138625506D01*
X114800498Y-138735820D01*
X114764188Y-138855518D01*
X114751928Y-138980000D01*
X114755000Y-139094250D01*
X114913750Y-139253000D01*
X115713000Y-139253000D01*
X115713000Y-139233000D01*
X115967000Y-139233000D01*
X115967000Y-139253000D01*
X116766250Y-139253000D01*
X116850857Y-139168393D01*
X116859463Y-139184494D01*
X116938815Y-139281185D01*
X117035506Y-139360537D01*
X117145820Y-139419502D01*
X117265518Y-139455812D01*
X117390000Y-139468072D01*
X117555783Y-139468072D01*
X118713000Y-140625290D01*
X118713000Y-141038546D01*
X118653820Y-141056498D01*
X118543506Y-141115463D01*
X118498000Y-141152809D01*
X118452494Y-141115463D01*
X118342180Y-141056498D01*
X118222482Y-141020188D01*
X118211536Y-141019110D01*
X118154449Y-140949549D01*
X118111140Y-140914006D01*
X117279996Y-140082863D01*
X117244450Y-140039550D01*
X117071624Y-139897715D01*
X116924237Y-139818936D01*
X116928072Y-139780000D01*
X116925000Y-139665750D01*
X116766250Y-139507000D01*
X115967000Y-139507000D01*
X115967000Y-139527000D01*
X115713000Y-139527000D01*
X115713000Y-139507000D01*
X114913750Y-139507000D01*
X114755000Y-139665750D01*
X114753783Y-139710999D01*
X113039764Y-139710999D01*
X112984022Y-139705509D01*
X112928280Y-139710999D01*
X112928271Y-139710999D01*
X112761524Y-139727422D01*
X112547576Y-139792323D01*
X112350400Y-139897715D01*
X112177574Y-140039550D01*
X112142032Y-140082859D01*
X111301073Y-140923818D01*
X111301073Y-140846216D01*
X112197247Y-139950043D01*
X112226572Y-139937896D01*
X112387901Y-139830099D01*
X112525099Y-139692901D01*
X112632896Y-139531572D01*
X112707147Y-139352314D01*
X112745000Y-139162014D01*
X112745000Y-139059448D01*
X112788406Y-139077427D01*
X112978706Y-139115280D01*
X113172734Y-139115280D01*
X113363034Y-139077427D01*
X113542292Y-139003176D01*
X113703621Y-138895379D01*
X113840819Y-138758181D01*
X113948616Y-138596852D01*
X114022867Y-138417594D01*
X114060160Y-138230109D01*
X114098028Y-138261186D01*
X114098028Y-138261186D01*
G37*
X114098028Y-138261186D02*
X114260460Y-138348007D01*
X114322960Y-138366966D01*
X114436708Y-138401472D01*
X114620000Y-138419524D01*
X114665935Y-138415000D01*
X115043856Y-138415000D01*
X115071918Y-138430000D01*
X115035506Y-138449463D01*
X114938815Y-138528815D01*
X114859463Y-138625506D01*
X114800498Y-138735820D01*
X114764188Y-138855518D01*
X114751928Y-138980000D01*
X114755000Y-139094250D01*
X114913750Y-139253000D01*
X115713000Y-139253000D01*
X115713000Y-139233000D01*
X115967000Y-139233000D01*
X115967000Y-139253000D01*
X116766250Y-139253000D01*
X116850857Y-139168393D01*
X116859463Y-139184494D01*
X116938815Y-139281185D01*
X117035506Y-139360537D01*
X117145820Y-139419502D01*
X117265518Y-139455812D01*
X117390000Y-139468072D01*
X117555783Y-139468072D01*
X118713000Y-140625290D01*
X118713000Y-141038546D01*
X118653820Y-141056498D01*
X118543506Y-141115463D01*
X118498000Y-141152809D01*
X118452494Y-141115463D01*
X118342180Y-141056498D01*
X118222482Y-141020188D01*
X118211536Y-141019110D01*
X118154449Y-140949549D01*
X118111140Y-140914006D01*
X117279996Y-140082863D01*
X117244450Y-140039550D01*
X117071624Y-139897715D01*
X116924237Y-139818936D01*
X116928072Y-139780000D01*
X116925000Y-139665750D01*
X116766250Y-139507000D01*
X115967000Y-139507000D01*
X115967000Y-139527000D01*
X115713000Y-139527000D01*
X115713000Y-139507000D01*
X114913750Y-139507000D01*
X114755000Y-139665750D01*
X114753783Y-139710999D01*
X113039764Y-139710999D01*
X112984022Y-139705509D01*
X112928280Y-139710999D01*
X112928271Y-139710999D01*
X112761524Y-139727422D01*
X112547576Y-139792323D01*
X112350400Y-139897715D01*
X112177574Y-140039550D01*
X112142032Y-140082859D01*
X111301073Y-140923818D01*
X111301073Y-140846216D01*
X112197247Y-139950043D01*
X112226572Y-139937896D01*
X112387901Y-139830099D01*
X112525099Y-139692901D01*
X112632896Y-139531572D01*
X112707147Y-139352314D01*
X112745000Y-139162014D01*
X112745000Y-139059448D01*
X112788406Y-139077427D01*
X112978706Y-139115280D01*
X113172734Y-139115280D01*
X113363034Y-139077427D01*
X113542292Y-139003176D01*
X113703621Y-138895379D01*
X113840819Y-138758181D01*
X113948616Y-138596852D01*
X114022867Y-138417594D01*
X114060160Y-138230109D01*
X114098028Y-138261186D01*
%TD*%
M02*
